<?xml version="1.0" standalone="no"?><!DOCTYPE svg PUBLIC "-//W3C//DTD SVG 1.1//EN" "http://www.w3.org/Graphics/SVG/1.1/DTD/svg11.dtd"><svg t="1576384366222" class="icon" viewBox="0 0 1024 1024" version="1.1" xmlns="http://www.w3.org/2000/svg" p-id="13856" xmlns:xlink="http://www.w3.org/1999/xlink" width="200" height="200"><defs><style type="text/css"></style></defs><path d="M953.863014 7.013699H482.542466C462.90411 7.013699 447.473973 22.443836 447.473973 42.082192v436.252055h-65.928768V126.246575v-1.402739-1.40274c0-19.638356-15.430137-35.068493-35.068493-35.068493h-92.580822V57.512329c0-19.638356-15.430137-35.068493-35.068493-35.068493H74.345205c-19.638356 0-35.068493 15.430137-35.068493 35.068493v144.482192c0 19.638356 15.430137 35.068493 35.068493 35.068493h144.482192c19.638356 0 35.068493-15.430137 35.068493-35.068493v-44.887672h57.512329V476.931507h-57.512329v-36.471233c0-19.638356-15.430137-35.068493-35.068493-35.068493H74.345205c-19.638356 0-35.068493 15.430137-35.068493 35.068493v144.482192c0 19.638356 15.430137 35.068493 35.068493 35.068493h144.482192c19.638356 0 35.068493-15.430137 35.068493-35.068493v-36.471233h57.512329v312.810959h-57.512329v-36.471233c0-19.638356-15.430137-35.068493-35.068493-35.068493H74.345205c-19.638356 0-35.068493 15.430137-35.068493 35.068493V967.890411c0 19.638356 15.430137 35.068493 35.068493 35.068493h144.482192c19.638356 0 35.068493-15.430137 35.068493-35.068493v-37.873973h92.580822c19.638356 0 35.068493-15.430137 35.068493-35.068493V548.471233h65.928768v436.252055c0 19.638356 15.430137 35.068493 35.068493 35.068493H953.863014c19.638356 0 35.068493-15.430137 35.068493-35.068493V42.082192c0-19.638356-15.430137-35.068493-35.068493-35.068493zM183.758904 166.926027H109.413699V92.580822h74.345205v74.345205z m0 382.947946H109.413699v-74.345206h74.345205v74.345206z m0 382.947945H109.413699v-74.345206h74.345205v74.345206z m735.035617 16.832877H517.610959V77.150685h401.183562v872.50411z" p-id="13857"></path><path d="M572.317808 256.70137h301.589041c19.638356 0 35.068493-15.430137 35.068493-35.068493V124.843836c0-19.638356-15.430137-35.068493-35.068493-35.068494H572.317808c-19.638356 0-35.068493 15.430137-35.068493 35.068494v96.789041c0 19.638356 15.430137 35.068493 35.068493 35.068493z m35.068493-96.789041h231.452055v26.652055H607.386301v-26.652055zM872.50411 302.991781c-19.638356 0-35.068493 15.430137-35.068494 35.068493v77.150685c0 19.638356 15.430137 35.068493 35.068494 35.068493s35.068493-15.430137 35.068493-35.068493v-77.150685c0-19.638356-15.430137-35.068493-35.068493-35.068493z" p-id="13858"></path></svg>