<?xml version="1.0" encoding="UTF-8"?>
<svg width="498px" height="432px" viewBox="0 0 498 432" version="1.1" xmlns="http://www.w3.org/2000/svg" xmlns:xlink="http://www.w3.org/1999/xlink">
    <!-- Generator: Sketch 60.1 (88133) - https://sketch.com -->
    <title>img_无入库单</title>
    <desc>Created with Sketch.</desc>
    <defs>
        <linearGradient x1="50%" y1="0%" x2="50%" y2="100%" id="linearGradient-1">
            <stop stop-color="#353E76" stop-opacity="0.02" offset="0%"></stop>
            <stop stop-color="#181D41" stop-opacity="0.04" offset="100%"></stop>
        </linearGradient>
        <path d="M16,0 L138.678453,0 C141.304655,1.90574998e-14 143.825452,1.03309737 145.696323,2.87613156 L173.01787,29.7911516 C174.925747,31.6706407 176,34.2368726 176,36.91502 L176,204 C176,212.836556 168.836556,220 160,220 L16,220 C7.163444,220 1.082166e-15,212.836556 0,204 L0,16 C-1.082166e-15,7.163444 7.163444,1.623249e-15 16,0 Z" id="path-2"></path>
        <linearGradient x1="25.9716324%" y1="90.4193186%" x2="25.9716324%" y2="0%" id="linearGradient-4">
            <stop stop-color="#5474E5" stop-opacity="0" offset="0%"></stop>
            <stop stop-color="#5474E5" offset="100%"></stop>
        </linearGradient>
        <linearGradient x1="25.9716324%" y1="90.4193186%" x2="25.9716324%" y2="0%" id="linearGradient-5">
            <stop stop-color="#5474E5" stop-opacity="0" offset="0%"></stop>
            <stop stop-color="#5474E5" offset="100%"></stop>
        </linearGradient>
    </defs>
    <g id="img_无入库单" stroke="none" stroke-width="1" fill="none" fill-rule="evenodd">
        <rect id="矩形" fill="url(#linearGradient-1)" x="108" y="68" width="220" height="220" rx="40"></rect>
        <rect id="矩形备份" fill="url(#linearGradient-1)" x="171" y="10" width="100" height="100" rx="20"></rect>
        <rect id="矩形备份-3" stroke="#181D41" stroke-width="2" fill="#FFFFFF" stroke-linejoin="round" x="212" y="139" width="178" height="222" rx="16"></rect>
        <g id="矩形备份-9" transform="translate(201.000000, 152.000000)">
            <mask id="mask-3" fill="white">
                <use xlink:href="#path-2"></use>
            </mask>
            <path stroke="#181D41" stroke-width="2" d="M16,-1 L138.678453,-1 C141.567275,-1 144.340151,0.136407109 146.39811,2.16374472 L173.719657,29.0787648 C175.818322,31.1462027 177,33.9690578 177,36.91502 L177,204 C177,213.388841 169.388841,221 160,221 L16,221 C6.61115925,221 -1,213.388841 -1,204 L-1,16 C-1,6.61115925 6.61115925,-1 16,-1 Z"></path>
            <path d="M143,-12.4142136 L188.414214,33 L156,33 C148.820298,33 143,27.1797017 143,20 L143,-12.4142136 Z" stroke="#181D41" stroke-width="2" fill="#F2F3F4" stroke-linejoin="round" mask="url(#mask-3)"></path>
        </g>
        <rect id="矩形" stroke="#5474E5" stroke-width="2" fill="#FFFFFF" x="220" y="197" width="20" height="20" rx="4"></rect>
        <rect id="矩形备份-12" fill="url(#linearGradient-4)" opacity="0.159999996" x="221" y="197" width="20" height="20" rx="4"></rect>
        <path d="M260,206 L311,206 C311.552285,206 312,206.447715 312,207 C312,207.552285 311.552285,208 311,208 L260,208 C259.447715,208 259,207.552285 259,207 C259,206.447715 259.447715,206 260,206 Z" id="矩形备份-2" fill="#5474E5"></path>
        <path d="M222,238 L356,238 C356.552285,238 357,238.447715 357,239 C357,239.552285 356.552285,240 356,240 L222,240 C221.447715,240 221,239.552285 221,239 C221,238.447715 221.447715,238 222,238 Z" id="矩形备份-4" fill="#181D41"></path>
        <rect id="矩形备份-8" stroke="#181D41" stroke-width="2" fill="#F2F3F4" x="221" y="261" width="20" height="20" rx="4"></rect>
        <path d="M260,270 L355,270 C355.552285,270 356,270.447715 356,271 C356,271.552285 355.552285,272 355,272 L260,272 C259.447715,272 259,271.552285 259,271 C259,270.447715 259.447715,270 260,270 Z" id="矩形备份-7" fill="#181D41"></path>
        <rect id="矩形备份-11" stroke="#181D41" stroke-width="2" fill="#F2F3F4" x="221" y="325" width="20" height="20" rx="4"></rect>
        <path d="M260,334 L311,334 C311.552285,334 312,334.447715 312,335 C312,335.552285 311.552285,336 311,336 L260,336 C259.447715,336 259,335.552285 259,335 C259,334.447715 259.447715,334 260,334 Z" id="矩形备份-10" fill="#181D41"></path>
        <path d="M222,302 L311,302 C311.552285,302 312,302.447715 312,303 C312,303.552285 311.552285,304 311,304 L222,304 C221.447715,304 221,303.552285 221,303 C221,302.447715 221.447715,302 222,302 Z" id="矩形备份-6" fill="#181D41"></path>
        <g id="编组-3" transform="translate(100.671953, 241.000000)" stroke="#181D41" stroke-width="2">
            <rect id="矩形" fill="#FFFFFF" x="9" y="1" width="64" height="24" rx="2"></rect>
            <rect id="矩形备份-2" fill="#FFFFFF" transform="translate(41.000000, 29.000000) scale(1, -1) translate(-41.000000, -29.000000) " x="15" y="25" width="52" height="8"></rect>
            <path d="M16,33 L66,33 C74.836556,33 82,40.163444 82,49 L82,127 C82,129.209139 80.209139,131 78,131 L4,131 C1.790861,131 2.705415e-16,129.209139 0,127 L0,49 C-1.082166e-15,40.163444 7.163444,33 16,33 Z" id="矩形备份-3" fill="#FFFFFF"></path>
            <path d="M0,61.5460123 L48,61.5460123 C50.209139,61.5460123 52,63.3368733 52,65.5460123 L52,93.5460123 C52,95.7551513 50.209139,97.5460123 48,97.5460123 L0,97.5460123 L0,97.5460123 L0,61.5460123 Z" id="矩形备份-4" stroke-dasharray="18,12"></path>
        </g>
        <g id="编组备份" transform="translate(81.671953, 346.000000) rotate(20.000000) translate(-81.671953, -346.000000) translate(66.671953, 318.000000)" stroke="#181D41" stroke-width="2">
            <rect id="矩形备份-5" fill="#FFFFFF" transform="translate(14.929096, 27.988167) scale(1, -1) translate(-14.929096, -27.988167) " x="0.287586406" y="0.357042742" width="29.2830189" height="55.2622478"></rect>
            <path d="M14.9290958,0.380965811 C23.0153782,0.380965811 29.5706053,6.93619287 29.5706053,15.0224752 L29.5706053,28.0120897 L29.5706053,28.0120897 L0.287586406,28.0120897 L0.287586406,15.0224752 C0.287586406,6.93619287 6.84281346,0.380965811 14.9290958,0.380965811 Z" id="矩形备份" fill="#F2F3F4"></path>
        </g>
        <g id="编组" transform="translate(328.000000, 287.000000)">
            <circle id="椭圆形" stroke="#181D41" stroke-width="2" fill="#FFFFFF" cx="49" cy="49" r="49"></circle>
            <path d="M52.3370787,20 C53.4416482,20 54.3370787,20.8954305 54.3370787,22 L54.337,44.039 L76.3730337,44.0397022 C77.4776032,44.0397022 78.3730337,44.9351327 78.3730337,46.0397022 L78.3730337,52.3424318 C78.3730337,53.4470013 77.4776032,54.3424318 76.3730337,54.3424318 L54.337,54.342 L54.3370787,76.382134 C54.3370787,77.4867035 53.4416482,78.382134 52.3370787,78.382134 L46.0359551,78.382134 C44.9313856,78.382134 44.0359551,77.4867035 44.0359551,76.382134 L44.035,54.342 L22,54.3424318 C20.8954305,54.3424318 20,53.4470013 20,52.3424318 L20,46.0397022 C20,44.9351327 20.8954305,44.0397022 22,44.0397022 L44.035,44.039 L44.0359551,22 C44.0359551,20.8954305 44.9313856,20 46.0359551,20 L52.3370787,20 Z" id="形状结合备份" fill="url(#linearGradient-5)" opacity="0.159999996"></path>
            <path d="M52.3370787,20 C53.4416482,20 54.3370787,20.8954305 54.3370787,22 L54.337,44.039 L76.3730337,44.0397022 C77.4776032,44.0397022 78.3730337,44.9351327 78.3730337,46.0397022 L78.3730337,52.3424318 C78.3730337,53.4470013 77.4776032,54.3424318 76.3730337,54.3424318 L54.337,54.342 L54.3370787,76.382134 C54.3370787,77.4867035 53.4416482,78.382134 52.3370787,78.382134 L46.0359551,78.382134 C44.9313856,78.382134 44.0359551,77.4867035 44.0359551,76.382134 L44.035,54.342 L22,54.3424318 C20.8954305,54.3424318 20,53.4470013 20,52.3424318 L20,46.0397022 C20,44.9351327 20.8954305,44.0397022 22,44.0397022 L44.035,44.039 L44.0359551,22 C44.0359551,20.8954305 44.9313856,20 46.0359551,20 L52.3370787,20 Z" id="形状结合备份-2" stroke="#5474E5" stroke-width="2"></path>
        </g>
    </g>
</svg>