<?xml version="1.0" encoding="UTF-8"?>
<svg width="498px" height="432px" viewBox="0 0 498 432" version="1.1" xmlns="http://www.w3.org/2000/svg" xmlns:xlink="http://www.w3.org/1999/xlink">
    <!-- Generator: Sketch 60.1 (88133) - https://sketch.com -->
    <title>img_设置时段</title>
    <desc>Created with Sketch.</desc>
    <defs>
        <linearGradient x1="50%" y1="0%" x2="50%" y2="100%" id="linearGradient-1">
            <stop stop-color="#353E76" stop-opacity="0.02" offset="0%"></stop>
            <stop stop-color="#181D41" stop-opacity="0.04" offset="100%"></stop>
        </linearGradient>
        <linearGradient x1="25.9716324%" y1="90.4193186%" x2="25.9716324%" y2="0%" id="linearGradient-2">
            <stop stop-color="#5474E5" stop-opacity="0" offset="0%"></stop>
            <stop stop-color="#5474E5" offset="100%"></stop>
        </linearGradient>
        <linearGradient x1="25.9716324%" y1="90.4193186%" x2="25.9716324%" y2="0%" id="linearGradient-3">
            <stop stop-color="#5474E5" stop-opacity="0" offset="0%"></stop>
            <stop stop-color="#5474E5" offset="100%"></stop>
        </linearGradient>
        <linearGradient x1="25.9716324%" y1="90.4193186%" x2="25.9716324%" y2="0%" id="linearGradient-4">
            <stop stop-color="#5474E5" stop-opacity="0" offset="0%"></stop>
            <stop stop-color="#5474E5" offset="100%"></stop>
        </linearGradient>
    </defs>
    <g id="img_设置时段" stroke="none" stroke-width="1" fill="none" fill-rule="evenodd">
        <rect id="矩形" fill="url(#linearGradient-1)" x="45" y="164" width="220" height="220" rx="40"></rect>
        <rect id="矩形备份" fill="url(#linearGradient-1)" x="249" y="77" width="100" height="100" rx="20"></rect>
        <rect id="矩形" stroke="#181D41" stroke-width="2" fill="#FFFFFF" x="257" y="164" width="125" height="196" rx="4"></rect>
        <path d="M261,164 L378,164 C380.209139,164 382,165.790861 382,168 L382,177 L382,177 L257,177 L257,168 C257,165.790861 258.790861,164 261,164 Z" id="矩形备份-8" stroke="#181D41" stroke-width="2" fill="#FFFFFF"></path>
        <path d="M286,360 C288.209139,360 290,361.790861 290,364 L290,370.718149 L290,370.718149 L282,370.718149 L282,364 C282,361.790861 283.790861,360 286,360 Z" id="矩形备份-18" stroke="#181D41" stroke-width="2" transform="translate(286.000000, 365.359074) scale(1, -1) translate(-286.000000, -365.359074) "></path>
        <path d="M354,360 C356.209139,360 358,361.790861 358,364 L358,370.718149 L358,370.718149 L350,370.718149 L350,364 C350,361.790861 351.790861,360 354,360 Z" id="矩形备份-19" stroke="#181D41" stroke-width="2" transform="translate(354.000000, 365.359074) scale(1, -1) translate(-354.000000, -365.359074) "></path>
        <circle id="椭圆形" stroke="#181D41" stroke-width="2" fill="#FFFFFF" cx="233" cy="225" r="116"></circle>
        <path d="M316.927233,125.71788 C294.280728,106.554557 264.989719,95 233,95 C161.202983,95 103,153.202983 103,225 C103,256.392379 114.127071,285.18589 132.65236,307.651681" id="路径" stroke="#181D41" stroke-width="2" stroke-dasharray="18,12"></path>
        <circle id="椭圆形备份" stroke="#181D41" stroke-width="2" fill="#FFFFFF" cx="233" cy="225" r="98"></circle>
        <path d="M234,290.992 L234,311.992 L233,312 C232.666096,312 232.332632,311.998119 231.999616,311.994367 L232.000358,290.992583 C232.332982,290.997522 232.666202,291 233,291 L234,290.992 Z M298.992,224 L319.992,224 L320,225 C320,225.334136 319.998116,225.667832 319.994359,226.001078 L298.99257,226.000556 C298.997517,225.667629 299,225.334104 299,225 L298.992,224 Z M167,225 L167.007,226 L146.008,226 L146,225 C146,224.666096 146.001881,224.332632 146.005633,223.999616 L167.007417,224.000358 C167.002478,224.332982 167,224.666202 167,225 Z M233,138 C233.334136,138 233.667832,138.001884 234.001078,138.005641 L234.000556,159.00743 C233.667629,159.002483 233.334104,159 233,159 L232,159.007 L232,138.008 Z" id="形状结合备份" fill="#181D41"></path>
        <rect id="矩形" stroke="#5474E5" stroke-width="2" fill="#FFFFFF" transform="translate(258.000000, 211.000000) rotate(60.000000) translate(-258.000000, -211.000000) " x="255" y="182" width="6" height="58" rx="2"></rect>
        <rect id="矩形备份-17" stroke="#5474E5" stroke-width="2" fill="#FFFFFF" transform="translate(216.000000, 215.000000) rotate(-60.000000) translate(-216.000000, -215.000000) " x="212" y="195" width="8" height="40" rx="2"></rect>
        <rect id="矩形备份-7" fill="url(#linearGradient-2)" opacity="0.159999996" transform="translate(258.000000, 211.000000) rotate(60.000000) translate(-258.000000, -211.000000) " x="255" y="182" width="6" height="58" rx="2"></rect>
        <rect id="矩形备份-20" fill="url(#linearGradient-3)" opacity="0.159999996" transform="translate(216.000000, 215.000000) rotate(-60.000000) translate(-216.000000, -215.000000) " x="212" y="195" width="8" height="40" rx="2"></rect>
        <circle id="椭圆形备份-3" stroke="#5474E5" stroke-width="2" fill="#FFFFFF" cx="233" cy="225" r="9"></circle>
        <g id="设-置" transform="translate(141.000000, 292.000000)" fill-rule="nonzero">
            <path d="M72.9464199,40 C72.9464199,35.3214214 75.8839216,31.3571344 80,29.7767489 C79.0178559,25.9195961 77.5,22.2856715 75.5178514,18.9464114 C71.4821287,20.7410549 66.6071314,20.0089143 63.3035898,16.6964123 C60.0000178,13.3928399 59.2678671,8.50890223 61.0625206,4.48214918 C57.7143009,2.5 54.0803666,0.982147279 50.2232447,0 C48.6339603,4.11607888 44.6696637,7.05358102 40,7.05358102 C35.3214169,7.05358102 31.3571304,4.11607888 29.7767451,0 C25.9195928,0.982144231 22.2856686,2.5 18.946409,4.48214918 C20.7410523,8.5178724 20.0089118,13.3928703 16.7053397,16.6964123 C13.4017677,19.9999848 8.51783069,20.7321355 4.49107815,18.9464114 C2.5,22.285702 0.982147154,25.9196367 0,29.7767489 C4.11607835,31.3660335 7.05358012,35.3303306 7.05358012,40 C7.05358012,44.6785786 4.11607835,48.6428656 0,50.2232511 C0.982144107,54.0804039 2.5,57.7143285 4.48214861,61.0535886 C8.51787132,59.2589451 13.3928686,59.9910857 16.6964102,63.3035877 C19.9999822,66.6071601 20.7321329,71.4910978 18.9374794,75.5178508 C22.2856991,77.5 25.9196334,79.0178527 29.7767553,80 C31.3660397,75.8839211 35.3303363,72.946419 40,72.946419 C44.6785831,72.946419 48.6428696,75.8839211 50.2232549,80 C54.0804072,79.0178558 57.7143314,77.5 61.053591,75.5178508 C59.2589477,71.4821276 59.9910882,66.6071297 63.2946603,63.3035877 C66.5982323,60.0000152 71.4821693,59.2678645 75.5089219,61.0535886 C77.5,57.714298 79.0178528,54.0803633 80,50.2232511 C75.8839216,48.6428961 72.9464199,44.678599 72.9464199,40 L72.9464199,40 Z" id="路径" stroke="#181D41" stroke-width="2" fill="#FFFFFF"></path>
            <path d="M40,59 C29.5113427,59 21,50.488587 21,40 C21,29.5113427 29.511413,21 40,21 C50.4886573,21 59,29.511413 59,40 C59,50.4886573 50.488587,59 40,59 Z" id="路径备份" stroke="#181D41" stroke-width="2" fill="#FFFFFF"></path>
            <path d="M40,53 C32.8235503,53 27,47.1764016 27,40 C27,32.8235503 32.8235984,27 40,27 C47.1764497,27 53,32.8235984 53,40 C53,47.1764497 47.1764016,53 40,53 Z" id="路径" stroke="#5474E5" stroke-width="2" fill="#FFFFFF"></path>
            <path d="M40,53 C32.8235503,53 27,47.1764016 27,40 C27,32.8235503 32.8235984,27 40,27 C47.1764497,27 53,32.8235984 53,40 C53,47.1764497 47.1764016,53 40,53 Z" id="路径备份-2" fill="url(#linearGradient-4)" opacity="0.159999996"></path>
        </g>
    </g>
</svg>