<?xml version="1.0" encoding="UTF-8"?>
<svg width="32px" height="32px" viewBox="0 0 32 32" version="1.1" xmlns="http://www.w3.org/2000/svg" xmlns:xlink="http://www.w3.org/1999/xlink">
    <!-- Generator: Sketch 60.1 (88133) - https://sketch.com -->
    <title>标识/自动</title>
    <desc>Created with Sketch.</desc>
    <g id="标识/自动" stroke="none" stroke-width="1" fill="none" fill-rule="evenodd">
        <g id="自动" transform="translate(1.000000, -1.500000)" fill="#06B5D4" fill-rule="nonzero">
            <path d="M8.26510372,4.80685825 L7.99869707,4.94929706 C5.82845757,6.23118677 4.01560553,8.07602275 2.7355414,10.3074604 C1.44899224,12.6202879 0.773229043,15.2518855 0.760233597,17.9241781 C0.76673132,20.1488332 1.24756283,22.3463717 2.1702395,24.3539608 L0,25.85289 L4.99674268,27.1415622 L5.17867892,27.1415622 L6.14034193,21.6952398 L3.89862748,23.1670391 C3.13189616,21.5121127 2.73553506,19.6943935 2.75502823,17.8563665 C2.74203278,13.2442765 5.11370169,8.99164501 8.96035374,6.72630157 L9.25275127,6.58386938 L8.26509737,4.80685825 L8.26510372,4.80685825 Z M28.8369012,14.9127679 C28.2196175,11.6029151 26.5367073,8.61863482 24.0675789,6.44823955 C22.7875274,5.37660688 21.3450329,4.5423612 19.8050662,3.96584995 C18.6809601,3.56568332 17.51137,3.3011664 16.3352884,3.17229918 L16.3352884,0.5 L12.4366546,4.2642793 L16.3352884,8.0285586 L16.3352884,5.24773966 C21.5984441,5.86494582 25.8804372,9.95477779 26.9330811,15.3739769 L27.0695333,15.6791887 L28.9733661,15.2790221 L28.8369139,14.9127679 L28.8369012,14.9127679 Z M28.115654,20.8067409 L28.115654,20.6168313 L23.6322251,22.9567887 L23.2748503,23.1195684 L25.6530169,24.1030287 C24.7953175,25.7104777 23.5932387,27.0873222 22.1377424,28.1250292 C18.518498,30.763416 13.8141529,31.1568001 9.83756538,29.155967 L9.57115874,28.9931873 L8.76544108,30.8651533 L9.03184773,31.0279329 C10.9811646,32.0113933 13.1189092,32.5132972 15.28267,32.4997322 L16.244333,32.4997322 C18.7914404,32.2691277 21.2410757,31.3534922 23.3463316,29.8342155 C25.0942191,28.5523258 26.5496964,26.8838344 27.6023402,24.944037 L30,25.9478448 L28.1156603,20.8067343 L28.115654,20.8067409 Z" id="形状"></path>
        </g>
        <text id="自" font-family="SourceHanSansCN-Bold, Source Han Sans CN" font-size="18" font-weight="bold" fill="#06B5D4">
            <tspan x="7" y="23">自</tspan>
        </text>
    </g>
</svg>