<?xml version="1.0" encoding="UTF-8"?>
<svg width="46px" height="46px" viewBox="0 0 46 46" version="1.1" xmlns="http://www.w3.org/2000/svg" xmlns:xlink="http://www.w3.org/1999/xlink">
    <!-- Generator: Sketch 60.1 (88133) - https://sketch.com -->
    <title>6BC08BED-0DE5-43D7-A2BA-E7DBA6AE7A66</title>
    <desc>Created with Sketch.</desc>
    <defs>
        <path d="M40.7717854,36.7492294 C41.0800629,36.4851625 41.2667639,36.3253293 40.0292396,31.1610062 C37.8847757,22.2218672 29.3763419,16.4516898 19.8499792,15.5899206 L19.8499792,11.0427115 C19.8499792,10.4904268 19.4022639,10.0427115 18.8499792,10.0427115 C18.6278585,10.0427115 18.4120597,10.116664 18.2366267,10.2529022 L6.01701733,19.7424439 C5.58081771,20.0811892 5.50181533,20.7094061 5.84056057,21.1456057 C5.89177818,21.2115582 5.95105499,21.2708358 6.01700683,21.3220543 L18.2366162,30.8118565 C18.6728113,31.1506075 19.3010293,31.0716135 19.6397803,30.6354184 C19.7760237,30.4599836 19.8499792,30.2441806 19.8499792,30.0220554 L19.8499792,25.4748015 L19.8499792,25.4748015 C26.0224428,25.0073718 31.4482585,25.5455571 35.0794549,29.4462133 C36.8726287,31.3720065 39.0333054,35.1877006 39.5506302,36.3122309 C39.6238808,36.4701645 39.7590915,36.7634359 40.0851835,36.8741596 L40.4791348,37 L40.7717854,36.7492294 Z" id="path-1"></path>
    </defs>
    <g id="组件" stroke="none" stroke-width="1" fill="none" fill-rule="evenodd">
        <g id="icon/返回">
            <mask id="mask-2" fill="white">
                <use xlink:href="#path-1"></use>
            </mask>
            <use id="路径" fill="#FFFFFF" fill-rule="nonzero" xlink:href="#path-1"></use>
            <g id="icon/颜色/白" mask="url(#mask-2)" fill="#FFFFFF">
                <g transform="translate(0.071902, 0.000000)" id="矩形">
                    <rect x="0" y="0" width="46" height="46"></rect>
                </g>
            </g>
        </g>
    </g>
</svg>