<?xml version="1.0" encoding="UTF-8"?>
<svg width="46px" height="48px" viewBox="0 0 46 48" version="1.1" xmlns="http://www.w3.org/2000/svg" xmlns:xlink="http://www.w3.org/1999/xlink">
    <!-- Generator: Sketch 60 (88103) - https://sketch.com -->
    <title>8D651249-6667-479F-9B6F-A758B5014E2F</title>
    <desc>Created with Sketch.</desc>
    <g id="组件" stroke="none" stroke-width="1" fill="none" fill-rule="evenodd">
        <g id="菜单/其他管理-耗材" transform="translate(-17.000000, -16.000000)">
            <g id="编组-3备份-8">
                <g id="主icon/耗材" transform="translate(18.000000, 18.000000)">
                    <g id="编组-2">
                        <rect id="矩形" fill="#F4B263" x="21" y="9" width="24" height="3" rx="1.5"></rect>
                        <rect id="矩形备份" fill="#F4B263" x="3" y="20" width="18" height="3" rx="1.5"></rect>
                        <path d="M25,15 L41,15 L41,36 C41,40.418278 37.418278,44 33,44 C28.581722,44 25,40.418278 25,36 L25,15 L25,15 Z" id="矩形" stroke="#F4B263" stroke-width="3"></path>
                        <rect id="矩形" fill="#F4B263" x="32" y="22" width="9" height="3" rx="1.5"></rect>
                        <rect id="矩形备份-2" fill="#F4B263" x="32" y="30" width="10" height="3" rx="1.5"></rect>
                        <path d="M20.6907999,38 L6.6383795,38 C4.78257929,38 3.27815598,36.298682 3.27815598,34.2 C3.27815598,22.9571913 3.27815598,14.5250848 3.27815598,8.90368045 C3.27815598,8.00815433 2.5968802,5.96934748 1.23432864,2.78725989 C0.799532796,1.77186088 1.27021233,0.596248742 2.28561418,0.161459525 C2.53440544,0.054928545 2.80222983,4.97157369e-17 3.0728697,0 C4.65951591,0 5.84801918,0 6.6383795,0 L27.6397765,0 C29.4955767,0 31,1.70131795 31,3.8 L31,9.55555556" id="路径" stroke="#F4B263" stroke-width="3" stroke-linecap="round"></path>
                    </g>
                </g>
            </g>
        </g>
    </g>
</svg>