<?xml version="1.0" encoding="UTF-8"?>
<svg width="46px" height="46px" viewBox="0 0 46 46" version="1.1" xmlns="http://www.w3.org/2000/svg" xmlns:xlink="http://www.w3.org/1999/xlink">
    <!-- Generator: Sketch 60.1 (88133) - https://sketch.com -->
    <title>Icon/日期</title>
    <desc>Created with Sketch.</desc>
    <g id="Icon/日期" stroke="none" stroke-width="1" fill="none" fill-rule="evenodd">
        <g id="riqi-(2)-2" transform="translate(9.000000, 11.000000)" fill="#C3C6D5">
            <path d="M25.7538926,21.7498107 L2.24399771,21.7498107 L2.24399771,9.01241302 L25.7560023,9.01241302 L25.7560023,21.7498107 L25.7538926,21.7498107 Z M2.24399771,4.00024888 L5.84971641,4.00024888 L5.84971641,4.50610281 C5.84971641,5.04713215 6.28601483,5.48479223 6.8257309,5.48479223 C7.36333726,5.48479223 7.79963567,5.04713215 7.79963567,4.50610281 L7.79963567,4.00024888 L20.2042528,4.00024888 L20.2042528,4.50610281 C20.2042528,5.04713215 20.6405512,5.48479223 21.1783231,5.48479223 C21.7177082,5.48479223 22.1541721,5.04713215 22.1541721,4.50610281 L22.1541721,4.00024888 L25.7597253,4.00024888 L25.7597253,7.06494799 L2.24399771,7.06494799 L2.24399771,4.00024888 Z M25.7538926,1.75010111 L22.1522278,1.75010111 L22.1522278,0.978357582 C22.1522278,0.437452686 21.7159294,0 21.1762133,0 C20.6366627,0 20.2003643,0.437452686 20.2003643,0.978357582 L20.2003643,1.75010111 L7.79752595,1.75010111 L7.79752595,0.978357582 C7.79752595,0.437452686 7.36122754,0 6.82167693,0 C6.28229179,0 5.84760669,0.437452686 5.84760669,0.978357582 L5.84760669,1.75010111 L2.24399771,1.75010111 C1.00315128,1.75010111 0,2.7560017 0,4.00024888 L0,21.7498107 C0,22.9921498 1.00315128,24 2.24399771,24 L25.7560023,24 C26.9986275,24 28,22.9921498 28,21.7498107 L28,4.00024888 C27.9980557,2.75973494 26.994739,1.75010111 25.7538926,1.75010111 Z M19.8536256,16.2142879 L8.14252726,16.2142879 C7.60475544,16.2142879 7.16845702,16.6517821 7.16845702,17.1926455 C7.16845702,17.7340067 7.60475544,18.1715009 8.14252726,18.1715009 L19.8573073,18.1715009 C20.3971888,18.1715009 20.8334872,17.7340067 20.8334872,17.1926455 C20.8295987,16.6517821 20.3931348,16.2142879 19.8536256,16.2142879 Z M19.8536256,10.9188954 L8.14252726,10.9188954 C7.60475544,10.9188954 7.16845702,11.3563895 7.16845702,11.897253 C7.16845702,12.4364986 7.60475544,12.8739928 8.14252726,12.8739928 L19.8573073,12.8739928 C20.3971888,12.8739928 20.8334872,12.4364986 20.8334872,11.897253 C20.8295987,11.3563895 20.3931348,10.9188954 19.8536256,10.9188954 Z" id="riqi-(2)"></path>
        </g>
    </g>
</svg>