<?xml version="1.0" encoding="UTF-8"?>
<svg width="46px" height="46px" viewBox="0 0 46 46" version="1.1" xmlns="http://www.w3.org/2000/svg" xmlns:xlink="http://www.w3.org/1999/xlink">
    <!-- Generator: Sketch 60.1 (88133) - https://sketch.com -->
    <title>Icon/删除</title>
    <desc>Created with Sketch.</desc>
    <g id="Icon/删除" stroke="none" stroke-width="1" fill="none" fill-rule="evenodd">
        <g id="del" transform="translate(7.000000, 5.000000)" fill="#FFFFFF" fill-rule="nonzero">
            <path d="M20.8009597,4.90949628 L30.3999289,4.90949628 C31.2836807,4.90949628 32,5.64212274 32,6.54599337 L32,8.18249046 C32,9.08487419 31.2836807,9.81750135 30.3999289,9.81750135 L1.60152841,9.81750135 L1.60152845,9.81750135 C0.717833517,9.81832345 0.000803324691,9.08630656 0,8.1824941 C0,8.18249365 0,8.1824932 0,8.18249275 L0,6.54450512 C0,5.64212139 0.717776643,4.90949492 1.60152845,4.90949492 L11.2004976,4.90949492 L11.2004976,1.63649709 C11.2004976,0.732626467 11.9168169,0 12.8020261,0 L19.2008531,0 C20.0846049,0 20.8009242,0.732626467 20.8009242,1.63649709 L20.8009242,4.90949492 L20.8009597,4.90949628 Z M3.20017769,11.4539941 L28.798436,11.4539941 L28.798436,32.7270022 L28.798436,32.7270022 C28.798436,34.5346271 27.3656837,36 25.5982903,36 L6.40031632,36 L6.40031636,36 C4.63349522,35.9991779 3.20162798,34.5340491 3.20162798,32.7270022 L3.20162798,11.4539941 L3.20017769,11.4539941 Z M8.79969784,16.3634832 L8.7996978,16.3634832 C8.3574469,16.3634832 7.99893358,16.7301604 7.99893358,17.1824792 C7.99893358,17.1824792 7.99893358,17.1824792 7.99893358,17.1824792 L7.99893358,28.6364684 L7.99893358,28.6364682 C7.99893358,29.0887871 8.3574469,29.455462 8.7996978,29.455462 C8.7996978,29.455462 8.7996978,29.455462 8.7996978,29.455462 L10.3997689,29.455462 L10.3997689,29.455462 C10.8420198,29.455462 11.2005331,29.0887871 11.2005331,28.6364682 C11.2005331,28.6364682 11.2005331,28.6364682 11.2005331,28.6364682 L11.2005331,17.1809886 L11.2005331,17.1810083 C11.1997407,16.7292711 10.8414688,16.3634832 10.3997867,16.3634832 L8.79825822,16.3634832 L8.79969784,16.3634832 Z M15.1985248,16.3634832 L15.1985248,16.3634832 C14.7568426,16.3643068 14.3992179,16.730742 14.3992179,17.1824792 L14.3992179,28.6364684 L14.3992179,28.6364682 C14.3992179,29.0887871 14.7577313,29.455462 15.1999822,29.455462 C15.1999822,29.455462 15.1999822,29.455462 15.1999822,29.455462 L16.7985995,29.455462 L16.7985994,29.455462 C17.2408503,29.455462 17.5993637,29.0887871 17.5993637,28.6364682 C17.5993637,28.6364682 17.5993637,28.6364682 17.5993637,28.6364682 L17.5993637,17.1809886 L17.5993637,17.1810083 C17.5985713,16.7292711 17.2402994,16.3634832 16.7986172,16.3634832 L15.1985461,16.3634832 L15.1985248,16.3634832 Z M21.5988092,16.3634833 L21.5988092,16.3634833 C21.1565583,16.3634833 20.798045,16.7301604 20.798045,17.1824792 C20.798045,17.1824792 20.798045,17.1824792 20.798045,17.1824792 L20.798045,28.6364684 C20.798045,29.0876602 21.1576602,29.4554622 21.5988092,29.4554622 L23.1988803,29.4554622 L23.1988802,29.4554622 C23.6411311,29.4554622 23.9996445,29.0887872 23.9996445,28.6364684 C23.9996445,28.6364684 23.9996445,28.6364684 23.9996445,28.6364684 L23.9996445,17.1809887 L23.9996445,17.1810084 C23.9988521,16.7292713 23.6405802,16.3634833 23.198898,16.3634833 L21.598827,16.3634833 L21.5988092,16.3634833 Z" id="形状"></path>
        </g>
    </g>
</svg>