<?xml version="1.0" encoding="UTF-8"?>
<svg width="46px" height="46px" viewBox="0 0 46 46" version="1.1" xmlns="http://www.w3.org/2000/svg" xmlns:xlink="http://www.w3.org/1999/xlink">
    <!-- Generator: Sketch 60.1 (88133) - https://sketch.com -->
    <title>Icon/标定</title>
    <desc>Created with Sketch.</desc>
    <g id="Icon/标定" stroke="none" stroke-width="1" fill="none" fill-rule="evenodd">
        <path d="M35,9 C36.1045695,9 37,9.8954305 37,11 L37,35 C37,36.1045695 36.1045695,37 35,37 L11,37 C9.8954305,37 9,36.1045695 9,35 L9,11 C9,9.8954305 9.8954305,9 11,9 L35,9 Z M35,11 L11,11 L11,35 L35,35 L35,11 Z M22.9201033,14.0000154 L23.3637022,14.00646 C26.1811155,14.00646 28.9985045,14.7379901 31.4844378,16.2010564 L31.4844378,16.2010564 L31.5858203,16.2713265 C32.0029359,16.5997507 32.1265986,17.2276582 31.8572889,17.7071499 L31.8572889,17.7071499 L29.2056248,22.440591 C28.9570314,22.9139351 28.3355481,23.0860605 27.8383615,22.8278727 C27.5897681,22.6557473 27.3411748,22.5696849 27.0925815,22.440591 L27.0925815,22.440591 L28.501279,18.0513982 C28.6255739,17.578056 28.3769824,17.0616785 27.9212281,16.8895531 C27.4654757,16.760461 26.9682872,17.018647 26.8025582,17.4919911 L26.8025582,17.4919911 L25.3938606,21.8811838 C24.6895149,21.7090584 24.0265973,21.622996 23.3222516,21.622996 C21.540664,21.5369355 19.8005108,21.9242172 18.2260884,22.8278746 C18.0603599,22.9569687 17.8531984,23 17.6460375,23 C17.3145799,23 16.9416899,22.8278746 16.7759608,22.4836244 L16.7759608,22.4836244 L14.1242967,17.7501833 C13.8757033,17.2338077 14,16.5883363 14.4971867,16.2871169 C17.1903215,14.694963 20.2562856,13.9203976 23.3637022,14.00646 Z" id="形状" fill="#5474E5" fill-rule="nonzero"></path>
    </g>
</svg>