<?xml version="1.0" encoding="UTF-8"?>
<svg width="28px" height="29px" viewBox="0 0 28 29" version="1.1" xmlns="http://www.w3.org/2000/svg" xmlns:xlink="http://www.w3.org/1999/xlink">
    <!-- Generator: Sketch 60.1 (88133) - https://sketch.com -->
    <title>Icon/盘点提醒</title>
    <desc>Created with Sketch.</desc>
    <defs>
        <path d="M15,11 L15,14 C15,14.5522847 15.4477153,15 16,15 L16,15 L20,15 C20.5522847,15 21,14.5522847 21,14 L21,14 L21,11 L25,11 L25,14 C25,14.5128358 25.3860402,14.9355072 25.8833789,14.9932723 L26,15 L30,15 C30.5522847,15 31,14.5522847 31,14 L31,14 L31,11 L32,11 C33.1045695,11 34,11.8954305 34,13 L34,22.713 L21.581,37 L14,37 C12.8954305,37 12,36.1045695 12,35 L12,13 C12,11.8954305 12.8954305,11 14,11 L15,11 Z M18,9 C18.5522847,9 19,9.44771525 19,10 L19,12 C19,12.5522847 18.5522847,13 18,13 C17.4477153,13 17,12.5522847 17,12 L17,10 C17,9.44771525 17.4477153,9 18,9 Z M28,9 C28.5522847,9 29,9.44771525 29,10 L29,12 C29,12.5522847 28.5522847,13 28,13 C27.4477153,13 27,12.5522847 27,12 L27,10 C27,9.44771525 27.4477153,9 28,9 Z M27.4528417,33.330822 L26,37.0666745 L29.7358525,35.8213904 L37,28.5572429 L34.5094317,26.0666745 L27.4528417,33.330822 Z M37.5999941,23.0666745 L36,24.6666687 L38.4000059,27.0666745 L40,25.4666804 L37.5999941,23.0666745 L37.5999941,23.0666745 Z M16,19 L26,19 L26,21 L16,21 L16,19 Z M16,24 L23,24 L23,26 L16,26 L16,24 Z" id="path-1"></path>
    </defs>
    <g id="核对" stroke="none" stroke-width="1" fill="none" fill-rule="evenodd">
        <g id="核对结果-批号" transform="translate(-1680.000000, -138.000000)">
            <g id="按钮/含图标-线框" transform="translate(1630.000000, 120.000000)">
                <g id="编组" transform="translate(38.000000, 9.000000)">
                    <g id="icon/记录">
                        <mask id="mask-2" fill="white">
                            <use xlink:href="#path-1"></use>
                        </mask>
                        <use id="形状结合" fill="#5474E5" fill-rule="evenodd" xlink:href="#path-1"></use>
                    </g>
                </g>
            </g>
        </g>
    </g>
</svg>