<?xml version="1.0" encoding="UTF-8"?>
<svg width="46px" height="46px" viewBox="0 0 46 46" version="1.1" xmlns="http://www.w3.org/2000/svg" xmlns:xlink="http://www.w3.org/1999/xlink">
    <!-- Generator: Sketch 60.1 (88133) - https://sketch.com -->
    <title>Icon/编辑</title>
    <desc>Created with Sketch.</desc>
    <g id="Icon/编辑" stroke="none" stroke-width="1" fill="none" fill-rule="evenodd">
        <g id="编辑" transform="translate(5.000000, 5.000000)" fill="#FFFFFF" fill-rule="nonzero">
            <path d="M35.4843058,5.48162 L31.7488383,9.20700332 L26.7668321,4.23960097 L30.5036116,0.514253115 C31.1912134,-0.171417705 32.3063711,-0.171417705 32.9939729,0.514253115 L35.4842987,2.9982699 C36.1719004,3.68390171 36.1719004,4.79596337 35.4842987,5.48163064 L35.4843058,5.48162 Z M9.32301903,21.6238602 L14.3049544,26.5917945 L7.66529365,28.245094 L9.32304385,21.6238602 L9.32301903,21.6238602 Z M30.5036116,10.4483486 L15.560217,25.3498109 L10.5795583,20.3831178 L25.5217117,5.48162 L30.5036116,10.4483486 Z M5,31 L29,31 L29,16.25 C29,15.0073593 30.0073593,14 31.25,14 C32.4941891,14 33.5042875,15.0058017 33.509591,16.2499796 L33.5882731,34.7081321 L33.5882731,34.7081321 C33.5882731,35.6845802 33.2728137,36 32.2962785,36 L1.76871915,36 C0.7922584,36 0,35.2090214 0,34.2325343 L0,3.70409374 C0,2.72764564 0.314152896,2.41222586 1.29184915,2.41222586 L19.7500202,2.49046317 C20.9941894,2.49573674 22,3.50581961 22,4.75 C22,5.99264069 20.9926407,7 19.75,7 L5,7 L5,7 L5,31 Z" id="形状"></path>
        </g>
    </g>
</svg>