<?xml version="1.0" encoding="UTF-8"?>
<svg width="498px" height="432px" viewBox="0 0 498 432" version="1.1" xmlns="http://www.w3.org/2000/svg" xmlns:xlink="http://www.w3.org/1999/xlink">
    <!-- Generator: Sketch 60.1 (88133) - https://sketch.com -->
    <title>img_药品申领单</title>
    <desc>Created with Sketch.</desc>
    <defs>
        <linearGradient x1="50%" y1="0%" x2="50%" y2="100%" id="linearGradient-1">
            <stop stop-color="#353E76" stop-opacity="0.02" offset="0%"></stop>
            <stop stop-color="#181D41" stop-opacity="0.04" offset="100%"></stop>
        </linearGradient>
        <path d="M16,0 L138.678453,0 C141.304655,1.90574998e-14 143.825452,1.03309737 145.696323,2.87613156 L173.01787,29.7911516 C174.925747,31.6706407 176,34.2368726 176,36.91502 L176,204 C176,212.836556 168.836556,220 160,220 L16,220 C7.163444,220 1.082166e-15,212.836556 0,204 L0,16 C-1.082166e-15,7.163444 7.163444,1.623249e-15 16,0 Z" id="path-2"></path>
        <linearGradient x1="25.9716324%" y1="90.4193186%" x2="25.9716324%" y2="0%" id="linearGradient-4">
            <stop stop-color="#5474E5" stop-opacity="0" offset="0%"></stop>
            <stop stop-color="#5474E5" offset="100%"></stop>
        </linearGradient>
    </defs>
    <g id="img_药品申领单" stroke="none" stroke-width="1" fill="none" fill-rule="evenodd">
        <rect id="矩形" fill="url(#linearGradient-1)" x="121" y="62" width="220" height="220" rx="40"></rect>
        <rect id="矩形备份" fill="url(#linearGradient-1)" x="50" y="122" width="100" height="100" rx="20"></rect>
        <rect id="矩形备份-3" stroke="#181D41" stroke-width="2" fill="#FFFFFF" stroke-linejoin="round" x="213" y="131" width="178" height="222" rx="16"></rect>
        <g id="矩形备份-9" transform="translate(202.000000, 144.000000)">
            <mask id="mask-3" fill="white">
                <use xlink:href="#path-2"></use>
            </mask>
            <path stroke="#181D41" stroke-width="2" d="M16,-1 L138.678453,-1 C141.567275,-1 144.340151,0.136407109 146.39811,2.16374472 L173.719657,29.0787648 C175.818322,31.1462027 177,33.9690578 177,36.91502 L177,204 C177,213.388841 169.388841,221 160,221 L16,221 C6.61115925,221 -1,213.388841 -1,204 L-1,16 C-1,6.61115925 6.61115925,-1 16,-1 Z"></path>
            <path d="M143,-12.4142136 L188.414214,33 L156,33 C148.820298,33 143,27.1797017 143,20 L143,-12.4142136 Z" stroke="#181D41" stroke-width="2" fill="#F2F3F4" stroke-linejoin="round" mask="url(#mask-3)"></path>
            <rect id="矩形" stroke="#5474E5" stroke-width="2" fill="#FFFFFF" mask="url(#mask-3)" x="19" y="45" width="20" height="20" rx="4"></rect>
            <rect id="矩形备份-12" fill="url(#linearGradient-4)" opacity="0.159999996" mask="url(#mask-3)" x="20" y="45" width="20" height="20" rx="4"></rect>
            <path d="M59,54 L110,54 C110.552285,54 111,54.4477153 111,55 C111,55.5522847 110.552285,56 110,56 L59,56 C58.4477153,56 58,55.5522847 58,55 C58,54.4477153 58.4477153,54 59,54 Z" id="矩形备份-2" fill="#5474E5" mask="url(#mask-3)"></path>
            <path d="M21,86 L155,86 C155.552285,86 156,86.4477153 156,87 C156,87.5522847 155.552285,88 155,88 L21,88 C20.4477153,88 20,87.5522847 20,87 C20,86.4477153 20.4477153,86 21,86 Z" id="矩形备份-4" fill="#181D41" mask="url(#mask-3)"></path>
            <rect id="矩形备份-8" stroke="#181D41" stroke-width="2" fill="#F2F3F4" mask="url(#mask-3)" x="20" y="109" width="20" height="20" rx="4"></rect>
            <path d="M59,118 L110,118 C110.552285,118 111,118.447715 111,119 C111,119.552285 110.552285,120 110,120 L59,120 C58.4477153,120 58,119.552285 58,119 C58,118.447715 58.4477153,118 59,118 Z" id="矩形备份-7" fill="#181D41" mask="url(#mask-3)"></path>
            <rect id="矩形备份-11" stroke="#181D41" stroke-width="2" fill="#F2F3F4" mask="url(#mask-3)" x="20" y="173" width="20" height="20" rx="4"></rect>
            <path d="M59,182 L110,182 C110.552285,182 111,182.447715 111,183 C111,183.552285 110.552285,184 110,184 L59,184 C58.4477153,184 58,183.552285 58,183 C58,182.447715 58.4477153,182 59,182 Z" id="矩形备份-10" fill="#181D41" mask="url(#mask-3)"></path>
            <path d="M21,150 L110,150 C110.552285,150 111,150.447715 111,151 C111,151.552285 110.552285,152 110,152 L21,152 C20.4477153,152 20,151.552285 20,151 C20,150.447715 20.4477153,150 21,150 Z" id="矩形备份-6" fill="#181D41" mask="url(#mask-3)"></path>
        </g>
        <g id="编组备份-2" transform="translate(327.000000, 241.000000)" fill="#FFFFFF" stroke="#181D41" stroke-width="2">
            <rect id="矩形" x="0" y="0" width="102" height="124" rx="4"></rect>
            <rect id="矩形备份-10" x="14" y="16" width="32" height="14" rx="7"></rect>
            <rect id="矩形备份-11" x="56" y="16" width="32" height="14" rx="7"></rect>
            <rect id="矩形备份-15" x="14" y="42" width="32" height="14" rx="7"></rect>
            <rect id="矩形备份-14" x="56" y="42" width="32" height="14" rx="7"></rect>
            <rect id="矩形备份-17" x="14" y="68" width="32" height="14" rx="7"></rect>
            <rect id="矩形备份-16" x="56" y="68" width="32" height="14" rx="7"></rect>
            <rect id="矩形备份-19" x="14" y="94" width="32" height="14" rx="7"></rect>
            <rect id="矩形备份-18" x="56" y="94" width="32" height="14" rx="7"></rect>
        </g>
        <g id="编组-3" transform="translate(90.000000, 234.000000)" stroke="#181D41" stroke-width="2">
            <rect id="矩形" fill="#FFFFFF" x="9" y="1" width="64" height="24" rx="2"></rect>
            <rect id="矩形备份-2" fill="#FFFFFF" transform="translate(41.000000, 29.000000) scale(1, -1) translate(-41.000000, -29.000000) " x="15" y="25" width="52" height="8"></rect>
            <path d="M16,33 L66,33 C74.836556,33 82,40.163444 82,49 L82,127 C82,129.209139 80.209139,131 78,131 L4,131 C1.790861,131 2.705415e-16,129.209139 0,127 L0,49 C-1.082166e-15,40.163444 7.163444,33 16,33 Z" id="矩形备份-3" fill="#FFFFFF"></path>
            <path d="M0,61.5460123 L48,61.5460123 C50.209139,61.5460123 52,63.3368733 52,65.5460123 L52,93.5460123 C52,95.7551513 50.209139,97.5460123 48,97.5460123 L0,97.5460123 L0,97.5460123 L0,61.5460123 Z" id="矩形备份-4" stroke-dasharray="18,12"></path>
        </g>
        <g id="编组备份" transform="translate(82.671953, 338.000000) rotate(20.000000) translate(-82.671953, -338.000000) translate(67.671953, 310.000000)" stroke="#181D41" stroke-width="2">
            <rect id="矩形备份-5" fill="#FFFFFF" transform="translate(14.929096, 27.988167) scale(1, -1) translate(-14.929096, -27.988167) " x="0.287586406" y="0.357042742" width="29.2830189" height="55.2622478"></rect>
            <path d="M14.9290958,0.380965811 C23.0153782,0.380965811 29.5706053,6.93619287 29.5706053,15.0224752 L29.5706053,28.0120897 L29.5706053,28.0120897 L0.287586406,28.0120897 L0.287586406,15.0224752 C0.287586406,6.93619287 6.84281346,0.380965811 14.9290958,0.380965811 Z" id="矩形备份" fill="#F2F3F4"></path>
        </g>
    </g>
</svg>