<?xml version="1.0" encoding="UTF-8"?>
<svg width="498px" height="432px" viewBox="0 0 498 432" version="1.1" xmlns="http://www.w3.org/2000/svg" xmlns:xlink="http://www.w3.org/1999/xlink">
    <!-- Generator: Sketch 60.1 (88133) - https://sketch.com -->
    <title>img_空瓶</title>
    <desc>Created with Sketch.</desc>
    <defs>
        <linearGradient x1="50%" y1="0%" x2="50%" y2="100%" id="linearGradient-1">
            <stop stop-color="#353E76" stop-opacity="0.02" offset="0%"></stop>
            <stop stop-color="#181D41" stop-opacity="0.04" offset="100%"></stop>
        </linearGradient>
        <path d="M5.87922522,44.1054342 L24.375,29 L24.375,29 L53.625,29 L72.1207748,44.1054342 C75.8415102,47.1441458 78,51.6938479 78,56.4977672 L78,133 C78,135.209139 76.209139,137 74,137 L4,137 C1.790861,137 2.705415e-16,135.209139 0,133 L0,56.4977672 C2.96440324e-15,51.6938479 2.15848975,47.1441458 5.87922522,44.1054342 Z" id="path-2"></path>
        <path d="M28,0 C17.8952991,0 14.5420697,11.6070519 14.5420697,32.1826083 C14.5420697,52.7581647 0,91.06296 16.7820697,100.192439 C13.5052439,103.701125 10.0786428,107.090906 6.50226634,110.361782 C2.35954793,114.15062 -6.87521227e-16,119.506171 0,125.120208 L0,250 C2.705415e-16,252.209139 1.790861,254 4,254 L52,254 C54.209139,254 56,252.209139 56,250 L56,123.769286 C55.9999983,118.703068 54.0773422,113.825635 50.6203704,110.122136 C45.8195135,104.978915 42.3180618,101.669016 40.1160154,100.192439 C56,91.06296 42.3560154,52.7581647 42.3560154,32.1826083 C42.3560154,11.6070519 38.1047009,0 28,0 Z" id="path-4"></path>
        <linearGradient x1="25.9716324%" y1="90.4193186%" x2="25.9716324%" y2="0%" id="linearGradient-6">
            <stop stop-color="#5474E5" stop-opacity="0" offset="0%"></stop>
            <stop stop-color="#5474E5" offset="100%"></stop>
        </linearGradient>
    </defs>
    <g id="img_空瓶" stroke="none" stroke-width="1" fill="none" fill-rule="evenodd">
        <rect id="矩形" fill="url(#linearGradient-1)" x="104" y="59" width="220" height="220" rx="40"></rect>
        <rect id="矩形备份" fill="url(#linearGradient-1)" x="294" y="117" width="100" height="100" rx="20"></rect>
        <g id="编组-4" transform="translate(316.000000, 236.000000)">
            <rect id="矩形" stroke="#181D41" stroke-width="2" fill="#FFFFFF" x="9" y="0" width="60" height="28" rx="4"></rect>
            <mask id="mask-3" fill="white">
                <use xlink:href="#path-2"></use>
            </mask>
            <path stroke="#181D41" stroke-width="2" d="M5.24667679,43.3309134 L24.0185385,28 L53.9814615,28 L72.7533232,43.3309134 C76.7066046,46.5595444 79,51.393603 79,56.4977672 L79,133 C79,135.761424 76.7614237,138 74,138 L4,138 C1.23857625,138 -1,135.761424 -1,133 L-1,56.4977672 C-1,51.393603 1.29339536,46.5595444 5.24667679,43.3309134 Z"></path>
        </g>
        <g id="编组-5备份" transform="translate(154.000000, 304.500000) rotate(12.000000) translate(-154.000000, -304.500000) translate(123.000000, 241.000000)">
            <rect id="矩形备份-28" stroke="#181D41" stroke-width="2" fill="#F2F3F4" x="2" y="0" width="58" height="26" rx="4"></rect>
            <path d="M4,35.0624367 L6,35.0624367 C8.209139,35.0624367 10,33.2715757 10,31.0624367 L10,26 L10,26 L52,26 L52,31.0624367 C52,33.2715757 53.790861,35.0624367 56,35.0624367 L58,35.0624367 C60.209139,35.0624367 62,36.8532977 62,39.0624367 L62,123 C62,125.209139 60.209139,127 58,127 L4,127 C1.790861,127 8.11897984e-15,125.209139 0,123 L0,39.0624367 C-1.01812301e-12,36.8532977 1.790861,35.0624367 4,35.0624367 Z" id="矩形备份-32" stroke="#181D41" stroke-width="2" fill="#FFFFFF"></path>
            <rect id="矩形备份-13" fill="#181D41" x="14" y="17" width="34" height="2"></rect>
            <rect id="矩形备份-12" stroke="#181D41" stroke-width="2" x="7" y="54" width="34" height="23" rx="2"></rect>
        </g>
        <path d="M255.697685,222.690212 C257.802957,224.383277 260.71781,227.265096 264.470569,231.35342 C268.026817,235.227663 269.999999,240.295216 270,245.554177 L270,367 C270,369.761424 267.761424,372 265,372 L220,372 C217.238576,372 215,369.761424 215,367 L215,246.886008 C215,241.070971 217.411203,235.516255 221.659176,231.545187 C224.66039,228.739609 227.549071,225.843169 230.325256,222.855843 C226.076541,219.955849 223.899312,214.85739 223.36335,207.695744 C222.911389,201.656535 223.552112,194.722808 225.220712,184.276172 C225.443779,182.879609 225.670714,181.50076 226.009666,179.470101 C228.174067,166.503174 228.76303,162.160441 228.76303,157.04228 C228.76303,135.291801 232.639826,125 242.5,125 C252.532698,125 257.086943,135.923164 257.086943,157.04228 C257.086943,162.148233 257.63476,166.465488 259.654487,179.4008 C259.977014,181.466418 260.19253,182.867016 260.404229,184.286379 C261.959609,194.714621 262.551271,201.657204 262.110288,207.69397 C261.596736,214.724163 259.59165,219.762338 255.697685,222.690212 Z" id="蒙版" stroke="#181D41" stroke-width="2" fill="#F2F3F4" stroke-linejoin="round"></path>
        <g id="矩形备份-7" transform="translate(196.000000, 117.000000)">
            <mask id="mask-5" fill="white">
                <use xlink:href="#path-4"></use>
            </mask>
            <path stroke="#181D41" stroke-width="2" d="M41.8719489,100.24126 C44.1299169,102.017838 47.2799329,105.077974 51.3513889,109.439778 C54.9812089,113.328452 56.9999982,118.449756 57,123.769286 L57,250 C57,252.761424 54.7614237,255 52,255 L4,255 C1.23857625,255 -1,252.761424 -1,250 L-1,125.120208 C-1,119.225469 1.47752568,113.60214 5.82737958,109.623861 C9.07809338,106.650829 12.2042668,103.579153 15.20594,100.408811 C10.710037,97.4145823 8.40371171,92.1296035 7.83669697,84.6954924 C7.3592878,78.4361969 8.03617582,71.2488447 9.79900946,60.4197774 C10.0346945,58.9719666 10.2744683,57.542504 10.632599,55.4372899 C12.9197177,41.992827 13.5420697,37.4901929 13.5420697,32.1826083 C13.5420697,9.6561563 17.6330433,-1 28,-1 C38.5505963,-1 43.3560154,10.308859 43.3560154,32.1826083 C43.3560154,37.4774445 43.9348855,41.9536374 46.0691147,55.3652448 C46.4098915,57.5067038 46.6376007,58.9587157 46.8612748,60.4301667 C48.5045055,71.2402368 49.1295683,78.436827 48.6637483,84.6936853 C48.1202605,91.9937718 45.9949837,97.2178664 41.8719489,100.24126 Z"></path>
        </g>
        <rect id="矩形" fill="#181D41" x="205" y="246" width="18" height="2"></rect>
        <rect id="矩形备份-9" stroke="#181D41" stroke-width="2" x="205" y="259" width="38" height="13" rx="2"></rect>
        <g id="编组" transform="translate(249.000000, 287.000000)">
            <path d="M42,84 C65.1959595,84 84,65.1959595 84,42 C84,18.8040405 65.1959595,0 42,0 C18.8040405,0 0,18.8040405 0,42 C0,65.1959595 18.8040405,84 42,84 Z" id="椭圆形备份-2" stroke="#181D41" stroke-width="2" fill="#FFFFFF" stroke-dasharray="18,12"></path>
            <circle id="椭圆形" stroke="#181D41" stroke-width="2" fill="#FFFFFF" cx="42" cy="42" r="33"></circle>
            <circle id="椭圆形备份" fill="url(#linearGradient-6)" opacity="0.159999996" cx="42" cy="42" r="33"></circle>
            <text id="空" font-family="SourceHanSansCN-Regular, Source Han Sans CN" font-size="28" font-weight="normal" fill="#5474E5">
                <tspan x="28" y="53">空</tspan>
            </text>
        </g>
    </g>
</svg>