<?xml version="1.0" encoding="UTF-8"?>
<svg width="46px" height="46px" viewBox="0 0 46 46" version="1.1" xmlns="http://www.w3.org/2000/svg" xmlns:xlink="http://www.w3.org/1999/xlink">
    <!-- Generator: Sketch 60.1 (88133) - https://sketch.com -->
    <title>E78E59F1-721F-4DD1-824B-A675CDD9A5A2</title>
    <desc>Created with Sketch.</desc>
    <g id="组件" stroke="none" stroke-width="1" fill="none" fill-rule="evenodd">
        <g id="Icon/Password备份-3" fill-rule="nonzero">
            <g id="任务进行失败" transform="translate(1.000000, 1.000000)">
                <path d="M21.9971459,0.487930358 L21.9971467,0.487930358 C10.1163554,0.488725421 0.485680497,10.1206759 0.486490766,22.0014673 C0.487285829,33.8822587 10.1192364,43.5129335 22.0000277,43.5121233 L22.0000279,43.5121233 C33.8808193,43.5113278 43.5114942,33.8793777 43.5106839,21.9985863 C43.5098885,10.117795 33.8779383,0.487120089 21.997147,0.487930358 L21.9971459,0.487930358 Z" id="路径" fill="#F66B6E"></path>
                <path d="M29.144797,31.2190852 L29.144797,31.2190852 C28.7880379,31.2190678 28.4459582,31.0770522 28.1940816,30.8243942 L21.9971458,24.6303394 L15.80021,30.8243942 L15.8002101,30.8243942 C15.2716447,31.3518792 14.4158208,31.3518792 13.8872554,30.8243942 L13.1756594,30.1041553 L13.1756593,30.1041553 C12.6485074,29.5765802 12.6485074,28.7216566 13.1756594,28.1940816 L19.3725952,22.0000268 L13.1785404,15.803091 L13.1785403,15.8030909 C12.6513885,15.2755159 12.6513885,14.4205923 13.1785404,13.8930173 L13.8930175,13.1756593 L13.8930174,13.1756594 C14.4212496,12.6500875 15.2748588,12.6500875 15.8030911,13.1756593 L22.0000268,19.3697141 L28.1940817,13.1756593 L28.1940816,13.1756593 C28.722647,12.6481743 29.5784709,12.6481743 30.1070362,13.1756592 L30.8243942,13.8930172 L30.8243942,13.8930172 C31.3515461,14.4205922 31.3515461,15.2755159 30.8243942,15.8030909 L24.6274584,21.9971457 L30.8215132,28.1912005 L30.8215132,28.1912005 C31.349759,28.7182804 31.3507088,29.5737937 30.8236285,30.1020394 C30.8229242,30.1027453 30.8222191,30.1034504 30.8215132,30.1041548 L30.1070362,30.8186318 L30.1070362,30.8186318 C29.8540055,31.0755365 29.5082656,31.220008 29.147678,31.2190846 L29.144797,31.2190852 Z" id="路径" fill="#FFFFFF"></path>
            </g>
        </g>
    </g>
</svg>