<?xml version="1.0" encoding="UTF-8"?>
<svg width="46px" height="46px" viewBox="0 0 46 46" version="1.1" xmlns="http://www.w3.org/2000/svg" xmlns:xlink="http://www.w3.org/1999/xlink">
    <!-- Generator: Sketch 60.1 (88133) - https://sketch.com -->
    <title>AD009A54-14FF-4D2B-8D53-C98F6C41B6D2</title>
    <desc>Created with Sketch.</desc>
    <g id="组件" stroke="none" stroke-width="1" fill="none" fill-rule="evenodd">
        <g id="Icon/湿度">
            <rect id="矩形" x="0" y="0" width="46" height="46"></rect>
            <g id="湿度-(1)" transform="translate(7.000000, 6.000000)" fill="#FFFFFF" fill-rule="nonzero">
                <path d="M29.2558328,11.4131312 C26.6356054,11.4131312 24.5115552,9.36903271 24.5115552,6.84782917 C24.5115552,4.3265194 29.2558696,0 29.2558696,0 C29.2558696,0 34,4.3265194 34,6.84782917 C34,9.36906812 31.8758394,11.4131312 29.255796,11.4131312 L29.2558328,11.4131312 Z M29.2558328,2.28263333 C29.2558328,2.28263333 26.0929565,5.1670032 26.0929565,6.84782917 C26.0929565,8.52872595 27.5090391,9.89131666 29.2558328,9.89131666 C31.0025529,9.89131666 32.4185619,8.52872595 32.4185619,6.84782917 C32.4185619,5.1670032 29.2558328,2.28263333 29.2558328,2.28263333 Z M13.4418194,35 C6.01811167,35 0,29.1237302 0,21.8749911 C0,14.6262521 13.4417826,3.54066811e-05 13.4417826,3.54066811e-05 C13.4417826,3.54066811e-05 26.8836388,14.6262875 26.8836388,21.8749911 C26.8836388,29.1236948 20.8656007,35 13.4417826,35 L13.4418194,35 Z M2.37197323,21.8610763 C2.37197323,27.8568791 7.32815177,32.7174729 13.4417458,32.7174729 C19.5554502,32.7174729 24.5115184,27.8568791 24.5115184,21.8610763 C24.5115184,15.8653798 13.4417458,3.04341668 13.4417458,3.04341668 C13.4417458,3.04341668 2.37197323,15.8653798 2.37197323,21.8610763 L2.37197323,21.8610763 Z M13.4417554,30.788185 C8.74734109,30.788185 4.94180099,27.1847969 4.94180099,22.7396715 C4.94180099,18.2947202 9.3591533,20.5455139 13.4417554,22.7396715 C17.5409702,24.9428526 21.941801,18.2947202 21.941801,22.7396715 C21.941801,27.1847969 18.1361696,30.788185 13.4417554,30.788185 Z" id="形状"></path>
            </g>
        </g>
    </g>
</svg>