<?xml version="1.0" encoding="UTF-8"?>
<svg width="498px" height="432px" viewBox="0 0 498 432" version="1.1" xmlns="http://www.w3.org/2000/svg" xmlns:xlink="http://www.w3.org/1999/xlink">
    <!-- Generator: Sketch 60.1 (88133) - https://sketch.com -->
    <title>img_医嘱患者</title>
    <desc>Created with Sketch.</desc>
    <defs>
        <linearGradient x1="50%" y1="0%" x2="50%" y2="100%" id="linearGradient-1">
            <stop stop-color="#353E76" stop-opacity="0.02" offset="0%"></stop>
            <stop stop-color="#181D41" stop-opacity="0.04" offset="100%"></stop>
        </linearGradient>
        <path d="M16,0 L133.84557,0 C136.451293,-3.60058003e-14 138.954105,1.01709049 140.821173,2.83473944 L166.975603,28.2968879 C168.90927,30.1793722 170,32.7634796 170,35.4621484 L170,194 C170,202.836556 162.836556,210 154,210 L16,210 C7.163444,210 1.082166e-15,202.836556 0,194 L0,16 C-1.082166e-15,7.163444 7.163444,1.623249e-15 16,0 Z" id="path-2"></path>
        <linearGradient x1="25.9716324%" y1="90.4193186%" x2="25.9716324%" y2="0%" id="linearGradient-4">
            <stop stop-color="#5474E5" stop-opacity="0" offset="0%"></stop>
            <stop stop-color="#5474E5" offset="100%"></stop>
        </linearGradient>
        <circle id="path-5" cx="66" cy="66" r="55"></circle>
    </defs>
    <g id="img_医嘱患者" stroke="none" stroke-width="1" fill="none" fill-rule="evenodd">
        <rect id="矩形" fill="url(#linearGradient-1)" x="44" y="56" width="220" height="220" rx="40"></rect>
        <rect id="矩形备份" fill="url(#linearGradient-1)" x="314" y="259" width="100" height="100" rx="20"></rect>
        <rect id="矩形备份-3" stroke="#181D41" stroke-width="2" fill="#F2F3F4" stroke-linejoin="round" x="123" y="149" width="172" height="212" rx="16"></rect>
        <g id="矩形备份-9" transform="translate(108.000000, 166.000000)">
            <mask id="mask-3" fill="white">
                <use xlink:href="#path-2"></use>
            </mask>
            <path stroke="#181D41" stroke-width="2" d="M16,-1 L133.84557,-1 C136.711865,-1 139.464958,0.118799538 141.518734,2.11821338 L167.673164,27.5803618 C169.800197,29.6510946 171,32.4936127 171,35.4621484 L171,194 C171,203.388841 163.388841,211 154,211 L16,211 C6.61115925,211 -1,203.388841 -1,194 L-1,16 C-1,6.61115925 6.61115925,-1 16,-1 Z"></path>
            <path d="M143,-18.4142136 L188.414214,27 L156,27 C148.820298,27 143,21.1797017 143,14 L143,-18.4142136 Z" stroke="#181D41" stroke-width="2" fill="#F2F3F4" stroke-linejoin="round" mask="url(#mask-3)"></path>
            <rect id="矩形" stroke="#5474E5" stroke-width="2" fill="#FFFFFF" mask="url(#mask-3)" x="22" y="38" width="20" height="20" rx="4"></rect>
            <rect id="矩形备份-12" fill="url(#linearGradient-4)" opacity="0.159999996" mask="url(#mask-3)" x="23" y="38" width="20" height="20" rx="4"></rect>
            <path d="M62,47 L113,47 C113.552285,47 114,47.4477153 114,48 C114,48.5522847 113.552285,49 113,49 L62,49 C61.4477153,49 61,48.5522847 61,48 C61,47.4477153 61.4477153,47 62,47 Z" id="矩形备份-2" fill="#5474E5" mask="url(#mask-3)"></path>
            <path d="M23,79 L113,79 C113.552285,79 114,79.4477153 114,80 C114,80.5522847 113.552285,81 113,81 L23,81 C22.4477153,81 22,80.5522847 22,80 C22,79.4477153 22.4477153,79 23,79 Z" id="矩形备份-4" fill="#181D41" mask="url(#mask-3)"></path>
            <rect id="矩形备份-8" stroke="#181D41" stroke-width="2" fill="#F2F3F4" mask="url(#mask-3)" x="23" y="102" width="20" height="20" rx="4"></rect>
            <path d="M62,111 L146,111 C146.552285,111 147,111.447715 147,112 C147,112.552285 146.552285,113 146,113 L62,113 C61.4477153,113 61,112.552285 61,112 C61,111.447715 61.4477153,111 62,111 Z" id="矩形备份-7" fill="#181D41" mask="url(#mask-3)"></path>
            <rect id="矩形备份-11" stroke="#181D41" stroke-width="2" fill="#F2F3F4" mask="url(#mask-3)" x="23" y="166" width="20" height="20" rx="4"></rect>
            <path d="M62,175 L113,175 C113.552285,175 114,175.447715 114,176 C114,176.552285 113.552285,177 113,177 L62,177 C61.4477153,177 61,176.552285 61,176 C61,175.447715 61.4477153,175 62,175 Z" id="矩形备份-10" fill="#181D41" mask="url(#mask-3)"></path>
            <path d="M24,143 L113,143 C113.552285,143 114,143.447715 114,144 C114,144.552285 113.552285,145 113,145 L24,145 C23.4477153,145 23,144.552285 23,144 C23,143.447715 23.4477153,143 24,143 Z" id="矩形备份-6" fill="#181D41" mask="url(#mask-3)"></path>
        </g>
        <g id="编组-3" transform="translate(323.000000, 265.000000)" stroke="#181D41" stroke-width="2">
            <rect id="矩形" fill="#FFFFFF" x="8" y="2" width="54" height="20" rx="2"></rect>
            <rect id="矩形备份-2" fill="#FFFFFF" transform="translate(35.000000, 25.000000) scale(1, -1) translate(-35.000000, -25.000000) " x="13" y="22" width="44" height="6"></rect>
            <path d="M16,28 L54,28 C62.836556,28 70,35.163444 70,44 L70,108 C70,110.209139 68.209139,112 66,112 L4,112 C1.790861,112 2.705415e-16,110.209139 0,108 L0,44 C-1.082166e-15,35.163444 7.163444,28 16,28 Z" id="矩形备份-3" fill="#FFFFFF"></path>
            <path d="M30,53 L66,53 C68.209139,53 70,54.790861 70,57 L70,79 C70,81.209139 68.209139,83 66,83 L30,83 L30,83 L30,53 Z" id="矩形备份-4" transform="translate(50.000000, 68.000000) scale(-1, 1) translate(-50.000000, -68.000000) "></path>
        </g>
        <g id="编组备份-2" transform="translate(290.000000, 344.000000) rotate(-270.000000) translate(-290.000000, -344.000000) translate(257.000000, 294.000000)" stroke="#181D41" stroke-width="2">
            <path d="M4,0 L62,0 C64.209139,-4.05812251e-16 66,1.790861 66,4 L66,96 C66,98.209139 64.209139,100 62,100 L4,100 C1.790861,100 2.705415e-16,98.209139 0,96 L0,4 C-2.705415e-16,1.790861 1.790861,4.05812251e-16 4,0 Z" id="矩形" fill="#FFFFFF"></path>
            <path d="M24,75 C26.7614237,75 29,77.2385763 29,80 C29,82.7614237 26.7614237,85 24,85 L14,85 C11.2385763,85 9,82.7614237 9,80 C9,77.2385763 11.2385763,75 14,75 L24,75 Z M52,75 C54.7614237,75 57,77.2385763 57,80 C57,82.7614237 54.7614237,85 52,85 L42,85 C39.2385763,85 37,82.7614237 37,80 C37,77.2385763 39.2385763,75 42,75 L52,75 Z M24,55 C26.7614237,55 29,57.2385763 29,60 C29,62.7614237 26.7614237,65 24,65 L14,65 C11.2385763,65 9,62.7614237 9,60 C9,57.2385763 11.2385763,55 14,55 L24,55 Z M52,55 C54.7614237,55 57,57.2385763 57,60 C57,62.7614237 54.7614237,65 52,65 L42,65 C39.2385763,65 37,62.7614237 37,60 C37,57.2385763 39.2385763,55 42,55 L52,55 Z M24,35 C26.7614237,35 29,37.2385763 29,40 C29,42.7614237 26.7614237,45 24,45 L14,45 C11.2385763,45 9,42.7614237 9,40 C9,37.2385763 11.2385763,35 14,35 L24,35 Z M52,35 C54.7614237,35 57,37.2385763 57,40 C57,42.7614237 54.7614237,45 52,45 L42,45 C39.2385763,45 37,42.7614237 37,40 C37,37.2385763 39.2385763,35 42,35 L52,35 Z M24,15 C26.7614237,15 29,17.2385763 29,20 C29,22.7614237 26.7614237,25 24,25 L14,25 C11.2385763,25 9,22.7614237 9,20 C9,17.2385763 11.2385763,15 14,15 L24,15 Z M52,15 C54.7614237,15 57,17.2385763 57,20 C57,22.7614237 54.7614237,25 52,25 L42,25 C39.2385763,25 37,22.7614237 37,20 C37,17.2385763 39.2385763,15 42,15 L52,15 Z" id="形状结合" fill="#F2F3F4"></path>
        </g>
        <g id="椭圆形备份-3-+-椭圆形备份-5-蒙版备份备份" transform="translate(254.000000, 64.000000)">
            <mask id="mask-6" fill="white">
                <use xlink:href="#path-5"></use>
            </mask>
            <circle stroke="#181D41" stroke-width="2" cx="66" cy="66" r="56"></circle>
            <circle id="椭圆形备份-3" stroke="#5474E5" stroke-width="2" fill="#FFFFFF" mask="url(#mask-6)" cx="66" cy="57" r="21"></circle>
            <circle id="椭圆形备份-4" stroke="#181D41" stroke-width="2" fill="url(#linearGradient-4)" opacity="0.159999996" mask="url(#mask-6)" cx="66" cy="57" r="21"></circle>
            <path d="M66.5,169 C89.9721019,169 109,149.972102 109,126.5 C109,103.027898 100.563647,84 66.5,84 C32.4363531,84 24,103.027898 24,126.5 C24,149.972102 43.0278981,169 66.5,169 Z" id="椭圆形备份-5" stroke="#5474E5" stroke-width="2" fill="#FFFFFF" mask="url(#mask-6)"></path>
        </g>
        <path d="M254,259.560898 C263.468116,262.144747 314.130435,264.101166 334.130435,249.336066 C350.115474,237.53503 365.557654,217.080873 349.782609,211.500495 C328.913043,204.117945 313.192363,230.504063 328.913043,235.574354 C358.478261,245.109835 380,208 373,180.753191" id="路径" stroke="#181D41" stroke-width="2" stroke-dasharray="18,12"></path>
    </g>
</svg>