<?xml version="1.0" encoding="UTF-8"?>
<svg width="32px" height="28px" viewBox="0 0 32 28" version="1.1" xmlns="http://www.w3.org/2000/svg" xmlns:xlink="http://www.w3.org/1999/xlink">
    <!-- Generator: Sketch 60 (88103) - https://sketch.com -->
    <title>353C798E-B478-493D-B5E2-D208259FB1D0</title>
    <desc>Created with Sketch.</desc>
    <g id="组件" stroke="none" stroke-width="1" fill="none" fill-rule="evenodd">
        <g id="跑马灯-信息栏备份-2" transform="translate(-38.000000, -18.000000)">
            <g id="通知" transform="translate(38.000000, 16.000000)">
                <rect id="矩形" x="0" y="0" width="32" height="32"></rect>
                <path d="M15.8048051,2.32253933 L7.80321325,8.99255049 L1.42560681,8.96690895 L1.42560686,8.96690895 C0.657718445,8.96336806 0.0323546986,9.58400373 0.0288213229,10.3531377 C0.0288139329,10.3547455 0.0288093228,10.3563533 0.0288074925,10.3579611 L3.71399568e-06,21.5056273 L3.71399568e-06,21.5056397 C-0.0017531865,22.2756639 0.620038308,22.9013243 1.38881554,22.9030883 C1.38961686,22.9030902 1.39041817,22.9030913 1.39121949,22.9030918 L7.84403323,22.9030918 L15.8056422,29.5490523 L15.8056421,29.5490523 C16.3969411,30.0411635 17.274572,29.9599749 17.7658862,29.3677166 C17.9733287,29.1176527 18.0869995,28.8028374 18.0872429,28.4777162 L18.0872429,3.39309105 L18.0872429,3.39308058 C18.0865927,2.62305365 17.4628473,1.99935181 16.6940646,2.00000051 C16.3691499,2.00000051 16.0545673,2.1143873 15.8048217,2.32256376 L15.8048051,2.32253933 Z M22.787215,9.09992897 C22.1200141,8.77460232 21.3280156,9.070281 21.0040143,9.75458978 C20.6808144,10.4404999 20.9608144,11.2698452 21.621614,11.6136015 C21.7072141,11.6592755 23.7320156,12.7434313 23.7320156,15.8324251 C23.7320156,19.1329709 21.8384161,20.2267522 21.7760159,20.2620063 C21.1080165,20.6065652 20.8368162,21.4439201 21.1712152,22.1322353 C21.4096152,22.6210265 21.8848149,22.903084 22.3824165,22.903084 C22.5856165,22.903084 22.7920173,22.8558073 22.984816,22.7564463 C23.126416,22.6827269 26.4344245,20.9182693 26.4344245,15.8332466 C26.4344245,10.9261051 22.9352339,9.1720558 22.7864328,9.09993143 L22.787215,9.09992897 Z M27.1288094,5.00530286 C26.5032104,4.59343519 25.6720084,4.78093937 25.2624076,5.42197791 C24.8544066,6.06301644 25.0336076,6.92601341 25.6568083,7.34829843 C25.8032085,7.4476594 29.2832223,9.88040064 29.2832223,15.9350154 C29.2832223,22.0032414 25.9448113,24.4375826 25.8120089,24.5305253 L25.8120089,24.5305252 C25.1859752,24.9672378 25.0194826,25.8230607 25.436008,26.4632556 C25.696808,26.8655057 26.1280081,27.0834594 26.5672078,27.0834594 C26.8256078,27.0834594 27.0872075,27.0065348 27.319207,26.8494803 C27.5112071,26.7196702 32,23.5617541 32,15.9342119 C32,8.2914394 27.3279857,5.13590927 27.1288095,5.00530198 L27.1288094,5.00530286 Z" id="形状" fill="#F4B263" fill-rule="nonzero"></path>
            </g>
        </g>
    </g>
</svg>