<?xml version="1.0" encoding="UTF-8"?>
<svg width="46px" height="46px" viewBox="0 0 46 46" version="1.1" xmlns="http://www.w3.org/2000/svg" xmlns:xlink="http://www.w3.org/1999/xlink">
    <!-- Generator: Sketch 60.1 (88133) - https://sketch.com -->
    <title>Icon/刷新</title>
    <desc>Created with Sketch.</desc>
    <g id="Icon/刷新" stroke="none" stroke-width="1" fill="none" fill-rule="evenodd">
        <g id="刷新-2" transform="translate(1.000000, 5.000000)" fill="#FFFFFF" fill-rule="nonzero">
            <g id="刷新">
                <path d="M4.70976976,18.4146275 C3.1555135,18.4146275 0.764456184,18.0902311 0.764456184,19.7863222 C0.764456184,20.8308218 1.87287419,21.6278307 2.53134183,22.1899279 C3.57666016,23.0806172 6.47116786,26.6419869 7.40126664,26.6419869 C8.29293842,26.6419869 8.85812252,25.8407818 9.48504032,25.2017795 L12.8020654,21.8193878 C13.5634162,21.1020784 14.2163963,20.9161098 14.2163963,19.6031479 C14.2163963,18.1587443 11.4480927,18.4146275 10.269712,18.4146275 C10.269712,16.3689732 10.6908563,14.8910142 11.3479509,13.3892701 C11.9460603,12.0189774 12.7554236,10.8989697 13.7444958,9.89222162 C17.3166799,6.25255436 22.266167,5.38563083 26.8863872,7.42009843 C28.7081436,8.22130353 29.3172281,9.11338999 30.3570541,9.82370409 C31.3968849,9.11338999 32.5053029,7.62004801 33.3160417,6.98943335 C33.654878,6.72656057 34.0650467,6.34623481 34.3023724,5.98408244 L32.6246535,4.49493669 C32.3914465,4.31875579 32.2501505,4.19850565 32.0073401,4.0279181 C31.5656187,3.71750461 31.1527057,3.41408354 30.7137257,3.15400407 C23.8299993,-0.916328274 15.3645742,0.335111464 9.75390168,6.00645205 C7.07613548,8.71348215 5.35177476,12.5167252 4.87301124,16.3871321 C4.81402367,16.8653369 4.70976645,17.9000484 4.70976645,18.4146092 L4.70976976,18.4146275 Z M30.1773689,17.1352209 C30.1773689,18.3377223 30.7096277,18.688688 32.420272,18.688688 L34.1240532,18.688688 C34.1240532,21.6907501 32.7165805,25.027017 30.6492695,27.1216145 C27.7671076,30.04258 23.7696552,31.2772396 19.7393107,30.3348129 C18.8462635,30.1250742 18.2413006,29.8789805 17.5210992,29.5797518 C15.5251216,28.7491876 14.7994374,27.6809173 13.9475444,27.097839 L10.0913975,30.9374607 C10.475503,31.5233333 11.7540246,32.5398661 12.3864299,32.9859093 C20.3086305,38.5663637 30.754913,36.7402381 36.3272058,28.8876101 C36.9843027,27.9633606 37.3985864,27.1817347 37.9198702,26.1232492 C38.9158006,24.1027626 39.5934723,21.4992074 39.5934723,18.6886976 C40.2327359,18.6886976 43.4496191,18.9180121 43.4496191,17.866521 C43.4496191,16.1983972 43.6101206,16.7045655 42.0380296,15.1021601 C41.1052036,14.1527429 37.7525071,10.4627353 36.9925128,10.4627353 C36.0583114,10.4627353 35.5027316,11.2974958 34.9979058,11.8106594 C34.412147,12.4077139 33.8743959,12.8649486 33.2941246,13.4564098 L31.6356097,15.146907 C31.2089778,15.5817659 30.1773784,16.402543 30.1773784,17.1352306 L30.1773689,17.1352209 Z" id="形状"></path>
            </g>
        </g>
    </g>
</svg>