<?xml version="1.0" encoding="UTF-8"?>
<svg width="36px" height="36px" viewBox="0 0 36 36" version="1.1" xmlns="http://www.w3.org/2000/svg" xmlns:xlink="http://www.w3.org/1999/xlink">
    <!-- Generator: Sketch 60.1 (88133) - https://sketch.com -->
    <title>736D4AF8-68D4-488E-899F-C2EF695898ED</title>
    <desc>Created with Sketch.</desc>
    <defs>
        <path d="M27,30 C27,31.1428562 26.1562211,32 25.0312225,32 L10.9687485,32 C9.84374989,32 9,31.1428562 9,30 L9,9 L27,9 L27,30 L27,30 Z M13,5.54545327 C13,5.18181635 13.1369866,5 13.4109581,5 L22.5890423,5 C22.8630151,5 23,5.18181822 23,5.54545327 L23,7 L13.1369863,7 C13,7 13,5.54545327 13,5.54545327 L13,5.54545327 Z M32.7368859,6.78733241 L25.2982695,6.78733241 L25.2982695,5.66516051 C25.2982695,4.1221719 24.035112,3 22.6316004,3 L13.2280925,3 C11.6842305,3 10.5614234,4.26244293 10.5614234,5.66516051 L10.5614234,6.78733241 L3.12280708,6.78733241 C2.4210513,6.78733241 2,7.34842016 2,7.90950431 C2,8.47059206 2.56140535,9.0316762 3.12280708,9.0316762 L6.63158237,9.0316762 L6.63158237,29.6515834 C6.63158237,32.0362019 8.59649567,34 10.9824603,34 L25.0175397,34 C27.4035079,34 29.3684176,32.0361983 29.3684176,29.6515834 L29.3684176,9.0316762 L32.8771929,9.0316762 C33.5789487,9.0316762 34,8.47058845 34,7.90950431 C34,7.34841655 33.4385947,6.78733241 32.7368425,6.78733241 L32.7368859,6.78733241 Z M18,28 C18.6250012,28 19,27.4285703 19,26.8571442 L19,14.1428558 C19,13.4285695 18.5,13 18,13 C17.5,13 17,13.5714297 17,14.1428558 L17,26.8571442 C17,27.428574 17.3749988,28 18,28 M13,28 C13.6250012,28 14,27.4285703 14,26.8571442 L14,14.1428558 C14,13.4285695 13.5,13 13,13 C12.5,13 12,13.5714297 12,14.1428558 L12,26.8571442 C12,27.428574 12.5,28 13,28 M23,28 C23.6250012,28 24,27.4285703 24,26.8571442 L24,14.1428558 C24,13.4285695 23.5,13 23,13 C22.5,13 22,13.5714297 22,14.1428558 L22,26.8571442 C22,27.428574 22.3749988,28 23,28" id="path-1"></path>
    </defs>
    <g id="组件" stroke="none" stroke-width="1" fill="none" fill-rule="evenodd">
        <g id="icon/列表-删除">
            <mask id="mask-2" fill="white">
                <use xlink:href="#path-1"></use>
            </mask>
            <use id="形状" fill="#C3C6D5" xlink:href="#path-1"></use>
        </g>
    </g>
</svg>