<?xml version="1.0" encoding="UTF-8"?>
<svg width="46px" height="46px" viewBox="0 0 46 46" version="1.1" xmlns="http://www.w3.org/2000/svg" xmlns:xlink="http://www.w3.org/1999/xlink">
    <!-- Generator: Sketch 60.1 (88133) - https://sketch.com -->
    <title>682F9413-4582-4CA6-AF5D-381E0FC58E5E</title>
    <desc>Created with Sketch.</desc>
    <defs>
        <path d="M30.2,0 C32.298682,-2.24952574e-15 34,1.70131795 34,3.8 L34,20.2 C34,22.298682 32.298682,24 30.2,24 L3.8,24 C1.70131795,24 1.23284011e-15,22.298682 0,20.2 L0,3.8 C-2.57014425e-16,1.70131795 1.70131795,1.27370006e-15 3.8,0 L30.2,0 Z M30,2 L4,2 C2.8954305,2 2,2.8954305 2,4 L2,4 L2,20 C2,21.1045695 2.8954305,22 4,22 L4,22 L30,22 C31.1045695,22 32,21.1045695 32,20 L32,20 L32,4 C32,2.8954305 31.1045695,2 30,2 L30,2 Z M14,6 C14.5522847,6 15,6.44771525 15,7 L15,17 C15,17.5522847 14.5522847,18 14,18 L6,18 C5.44771525,18 5,17.5522847 5,17 L5,7 C5,6.44771525 5.44771525,6 6,6 L14,6 Z M13,8 L7,8 L7,16 L13,16 L13,8 Z M19,6 L29,6 C29.5522847,6 30,6.44771525 30,7 C30,7.55228475 29.5522847,8 29,8 L19,8 C18.4477153,8 18,7.55228475 18,7 C18,6.44771525 18.4477153,6 19,6 Z M19,11 L24,11 C24.5522847,11 25,11.4477153 25,12 C25,12.5522847 24.5522847,13 24,13 L19,13 C18.4477153,13 18,12.5522847 18,12 C18,11.4477153 18.4477153,11 19,11 Z M19,16 L27,16 C27.5522847,16 28,16.4477153 28,17 C28,17.5522847 27.5522847,18 27,18 L19,18 C18.4477153,18 18,17.5522847 18,17 C18,16.4477153 18.4477153,16 19,16 Z" id="path-1"></path>
    </defs>
    <g id="组件" stroke="none" stroke-width="1" fill="none" fill-rule="evenodd">
        <g id="Icon/工卡登录">
            <g id="工卡" transform="translate(6.000000, 11.000000)">
                <mask id="mask-2" fill="white">
                    <use xlink:href="#path-1"></use>
                </mask>
                <use id="形状" fill="#999999" fill-rule="nonzero" xlink:href="#path-1"></use>
                <g id="icon/颜色/绿" mask="url(#mask-2)" fill="#06B5D4">
                    <g transform="translate(-6.000000, -11.000000)" id="矩形">
                        <rect x="0" y="0" width="46" height="46"></rect>
                    </g>
                </g>
            </g>
        </g>
    </g>
</svg>