<?xml version="1.0" encoding="UTF-8"?>
<svg width="498px" height="432px" viewBox="0 0 498 432" version="1.1" xmlns="http://www.w3.org/2000/svg" xmlns:xlink="http://www.w3.org/1999/xlink">
    <!-- Generator: Sketch 60.1 (88133) - https://sketch.com -->
    <title>img_搜索前</title>
    <desc>Created with Sketch.</desc>
    <defs>
        <linearGradient x1="50%" y1="0%" x2="50%" y2="100%" id="linearGradient-1">
            <stop stop-color="#353E76" stop-opacity="0.02" offset="0%"></stop>
            <stop stop-color="#181D41" stop-opacity="0.04" offset="100%"></stop>
        </linearGradient>
        <linearGradient x1="50%" y1="0%" x2="50%" y2="100%" id="linearGradient-2">
            <stop stop-color="#353E76" stop-opacity="0.02" offset="0%"></stop>
            <stop stop-color="#181D41" stop-opacity="0.04" offset="100%"></stop>
        </linearGradient>
        <linearGradient x1="25.9716324%" y1="90.4193186%" x2="25.9716324%" y2="0%" id="linearGradient-3">
            <stop stop-color="#5474E5" stop-opacity="0" offset="0%"></stop>
            <stop stop-color="#5474E5" offset="100%"></stop>
        </linearGradient>
    </defs>
    <g id="img_搜索前" stroke="none" stroke-width="1" fill="none" fill-rule="evenodd">
        <g id="编组" transform="translate(12.000000, 125.000000)">
            <rect id="矩形" fill="url(#linearGradient-1)" x="64" y="35" width="220" height="221.22905" rx="40"></rect>
            <rect id="矩形备份" fill="url(#linearGradient-2)" x="359" y="41" width="100" height="100" rx="20"></rect>
            <path d="M0,183 C15.2450184,160.261819 40.4798821,139.448224 87.5006407,131.834176 C134.521399,124.220128 186.130403,128.53708 205,139.576091" id="路径-7备份" stroke="#181D41" stroke-width="2" stroke-dasharray="8" transform="translate(102.500000, 155.500000) scale(1, -1) translate(-102.500000, -155.500000) "></path>
            <g id="编组-2" transform="translate(184.000000, 0.000000)">
                <g id="编组-3" transform="translate(135.000000, 183.500000) rotate(-30.000000) translate(-135.000000, -183.500000) translate(121.000000, 139.000000)" stroke="#181D41" stroke-linejoin="round" stroke-width="2">
                    <polygon id="矩形" fill="#FFFFFF" points="6.05117303 0.0354623438 22 0 21.948827 15.9645377 6 16"></polygon>
                    <path d="M3.07036292,12.0177312 L25,12 L24.9470974,18.0015002 C24.9374273,19.0985184 24.0458526,19.9829834 22.9487922,19.9838704 L5.01933899,19.9983673 C3.91476985,19.9992604 3.01861564,19.1045542 3.01772254,17.999985 C3.01771736,17.9935695 3.01774304,17.987154 3.01779959,17.9807388 L3.07036292,12.0177312 L3.07036292,12.0177312 Z" id="矩形备份-2" fill="#FFFFFF" transform="translate(14.000000, 16.000000) scale(1, -1) translate(-14.000000, -16.000000) "></path>
                    <path d="M4.16871002,19.0625028 L23.9785957,19.010547 C26.1877271,19.0047531 27.9832789,20.790911 27.9890728,23.0000424 C27.9890915,23.0071627 27.9890911,23.014283 27.9890718,23.0214033 L27.8207844,84.948381 C27.8148037,87.1491745 26.0320841,88.9317252 23.83129,88.9374972 L4.02140429,88.989453 C1.81227289,88.9952469 0.0167211364,87.209089 0.0109272058,84.9999576 C0.0109085313,84.9928373 0.0109088688,84.985717 0.0109282183,84.9785967 L0.179215625,23.051619 C0.185196312,20.8508255 1.96791592,19.0682748 4.16871002,19.0625028 Z" id="矩形备份-13" fill="#F2F3F4"></path>
                </g>
                <circle id="椭圆形" stroke="#181D41" stroke-width="2" fill="#FFFFFF" cx="77" cy="77" r="77"></circle>
                <circle id="椭圆形备份" stroke="#5474E5" stroke-width="2" cx="77" cy="77" r="63"></circle>
                <path d="M77,14 C111.793939,14 140,42.2060608 140,77 C140,111.793939 111.793939,140 77,140 C42.2060608,140 14,111.793939 14,77 C14,42.2060608 42.2060608,14 77,14 Z M101.387097,41.216 C93.5304008,41.216 87.1612903,47.5341576 87.1612903,55.328 C87.1612903,63.1218424 93.5304008,69.44 101.387097,69.44 C109.243793,69.44 115.612903,63.1218424 115.612903,55.328 C115.612903,47.5341576 109.243793,41.216 101.387097,41.216 Z M71.4112903,32.144 C67.2023461,32.144 63.7903226,35.5287273 63.7903226,39.704 C63.7903226,43.8792727 67.2023461,47.264 71.4112903,47.264 C75.6202346,47.264 79.0322581,43.8792727 79.0322581,39.704 C79.0322581,35.5287273 75.6202346,32.144 71.4112903,32.144 Z" id="形状结合" fill="url(#linearGradient-3)" opacity="0.159999996"></path>
            </g>
        </g>
    </g>
</svg>