<?xml version="1.0" encoding="UTF-8"?>
<svg width="36px" height="36px" viewBox="0 0 36 36" version="1.1" xmlns="http://www.w3.org/2000/svg" xmlns:xlink="http://www.w3.org/1999/xlink">
    <!-- Generator: Sketch 60.1 (88133) - https://sketch.com -->
    <title>icon/搜索-小</title>
    <desc>Created with Sketch.</desc>
    <defs>
        <path d="M29.6480228,27.9408482 L22.7608423,21.0569196 C24.6056826,18.8303571 25.713926,15.9743304 25.713926,12.8571429 C25.713926,5.75558036 19.9584262,0 12.856963,0 C5.75549985,0 0,5.75558036 0,12.8571429 C0,19.9587054 5.75549985,25.7142857 12.856963,25.7142857 C15.9741069,25.7142857 18.8300937,24.6060268 21.0566251,22.7611607 L27.9438055,29.6484375 C28.1781773,29.8828125 28.4862087,30 28.7975882,30 C29.1089678,30 29.4136511,29.8828125 29.6513709,29.6484375 C30.1167662,29.1763393 30.1167662,28.4129464 29.6480228,27.9408482 Z M16.9216383,22.4832589 C15.635942,23.0290179 14.2698897,23.3035714 12.856963,23.3035714 C11.4440363,23.3035714 10.077984,23.0290179 8.79228772,22.4832589 C7.5501176,21.9575893 6.43182967,21.2042411 5.47090561,20.2433036 C4.50998156,19.2823661 3.75664388,18.1640625 3.23098159,16.921875 C2.6852303,15.6361607 2.41068056,14.2700893 2.41068056,12.8571429 C2.41068056,11.4441964 2.6852303,10.078125 3.23098159,8.79241071 C3.75664388,7.55022321 4.50998156,6.43191964 5.47090561,5.47098214 C6.43182967,4.51004464 7.5501176,3.75669643 8.79228772,3.23102679 C10.077984,2.68526786 11.4440363,2.41071429 12.856963,2.41071429 C14.2698897,2.41071429 15.635942,2.68526786 16.9216383,3.23102679 C18.1638084,3.75669643 19.2820963,4.51004464 20.2430204,5.47098214 C21.2039445,6.43191964 21.9572821,7.55022321 22.4829444,8.79241071 C23.0286957,10.078125 23.3032455,11.4441964 23.3032455,12.8571429 C23.3032455,14.2700893 23.0286957,15.6361607 22.4829444,16.921875 C21.9572821,18.1640625 21.2039445,19.2823661 20.2430204,20.2433036 C19.2820963,21.2042411 18.1671566,21.9575893 16.9216383,22.4832589 Z" id="path-1"></path>
    </defs>
    <g id="icon/搜索-小" stroke="none" stroke-width="1" fill="none" fill-rule="evenodd">
        <g id="Mask-2" transform="translate(3.000000, 3.000000)">
            <mask id="mask-2" fill="white">
                <use xlink:href="#path-1"></use>
            </mask>
            <use id="Mask" fill="#C3C6D5" fill-rule="nonzero" xlink:href="#path-1"></use>
            <g id="icon/颜色/灰" mask="url(#mask-2)" fill="#C3C6D5">
                <g transform="translate(-3.000000, -3.000000)" id="矩形">
                    <rect x="0" y="0" width="36" height="36"></rect>
                </g>
            </g>
        </g>
    </g>
</svg>