<?xml version="1.0" encoding="UTF-8"?>
<svg width="36px" height="36px" viewBox="0 0 36 36" version="1.1" xmlns="http://www.w3.org/2000/svg" xmlns:xlink="http://www.w3.org/1999/xlink">
    <!-- Generator: Sketch 60.1 (88133) - https://sketch.com -->
    <title>icon/搜索-大</title>
    <desc>Created with Sketch.</desc>
    <defs>
        <polygon id="path-1" points="9.99808529e-17 0 36 0 36 36 9.99808529e-17 36"></polygon>
    </defs>
    <g id="icon/搜索-大" stroke="none" stroke-width="1" fill="none" fill-rule="evenodd">
        <g id="sousuo备份">
            <mask id="mask-2" fill="white">
                <use xlink:href="#path-1"></use>
            </mask>
            <g id="Clip-2"></g>
            <path d="M33.5698667,36 C32.9531914,35.9989453 32.3603678,35.7605415 31.914608,35.3339634 L26.9667535,30.6233674 C25.81919,31.540552 24.554608,32.3006757 23.206479,32.8841389 C19.0621605,34.6786935 14.3605545,34.6786935 10.2162361,32.8841389 C8.22327519,32.0231165 6.41959092,30.7770006 4.90858474,29.217466 C-1.63619491,22.4776908 -1.63619491,11.7525947 4.90858474,5.01281955 C6.41941521,3.45310918 8.22309949,2.20699324 10.2162361,1.34627851 C14.3605545,-0.448759504 19.0623362,-0.448759504 23.206479,1.34627851 C25.1971996,2.21165145 27.0000493,3.45706427 28.5141303,5.01281955 C30.0424433,6.58180239 31.2576087,8.4280368 32.0945723,10.4524259 C33.8442277,14.7199643 33.8442277,19.5050038 32.0945723,23.7725422 C31.6136279,24.9108162 31.0166752,25.9965753 30.3133781,27.0124613 L35.2251694,31.6708501 C36.207308,32.6201588 36.2629182,34.1766172 35.3511049,35.1935139 C34.895901,35.6990619 34.2500589,35.9915625 33.5698667,36 Z M16.8042439,5.25388374 C11.9248151,5.13010931 7.45655048,7.97418327 5.50307537,12.4475338 C3.54981756,16.9207105 4.5004798,22.1314924 7.90774021,25.6264687 C11.3152179,29.1216187 16.4998582,30.2043843 21.0211426,28.3651518 C25.5425575,26.5260498 28.4991062,22.1313186 28.49928,17.2500513 C28.5705525,10.7125187 23.3412366,5.34858335 16.8042439,5.25388374 Z" id="Fill-1" fill="#5474E5"></path>
        </g>
    </g>
</svg>