<?xml version="1.0" encoding="UTF-8"?>
<svg width="46px" height="46px" viewBox="0 0 46 46" version="1.1" xmlns="http://www.w3.org/2000/svg" xmlns:xlink="http://www.w3.org/1999/xlink">
    <!-- Generator: Sketch 60.1 (88133) - https://sketch.com -->
    <title>Icon/库存预警</title>
    <desc>Created with Sketch.</desc>
    <defs>
        <path d="M8.00007437,36.9403231 L8.00007437,17.4512761 C7.99971806,17.2867678 8.03850657,17.1245431 8.11394037,16.9783531 L12.2830387,8.60252704 C12.4510255,8.23840266 12.8139309,8.00376853 13.2149548,8 L32.6586021,8 C33.0527396,8 33.415346,8.23820835 33.5870148,8.59727241 L37.8857405,16.9695954 C37.9647035,17.1169781 38.0039437,17.2823725 37.9996024,17.4495152 L37.9996024,36.9385622 C38.0054503,37.5150249 37.5443217,37.9878427 36.9678355,37.9964882 L9.03183999,38 C8.45572736,37.9923097 7.99325908,37.5181344 8.00007437,36.9403231 Z M10.0653546,35.8771432 L35.9308147,35.8771432 L35.9308147,18.5127045 L10.0653546,18.5127045 L10.0653546,35.8771432 Z M32.0139644,10.1263692 L24.0333524,10.1263692 L24.0333524,16.3933507 L35.2966914,16.3933507 L32.0139644,10.1263692 Z M21.962817,16.3933507 L21.962817,10.1228662 L13.856081,10.1228662 L10.6889676,16.3933507 L21.962817,16.3933507 Z M17.8902967,24.1351222 C17.3124336,24.1274319 16.8499654,23.6532566 16.8567806,23.0754453 C16.8567806,22.4904337 17.320987,22.0157685 17.8902966,22.0157685 L28.1461623,22.0157685 C28.7154719,22.0157685 29.1796782,22.4904337 29.1796782,23.0754453 C29.1855193,23.6525811 28.7233328,24.1256808 28.1461596,24.1333711 L17.8920456,24.1333711 L17.8902967,24.1351222 Z" id="path-1"></path>
    </defs>
    <g id="Icon/库存预警" stroke="none" stroke-width="1" fill="none" fill-rule="evenodd">
        <mask id="mask-2" fill="white">
            <use xlink:href="#path-1"></use>
        </mask>
        <use id="形状" fill="#F66B6E" fill-rule="nonzero" xlink:href="#path-1"></use>
        <g id="icon/颜色/红" mask="url(#mask-2)" fill="#F66B6E">
            <g transform="translate(0.000000, 0.000000)" id="矩形">
                <rect x="0" y="0" width="46" height="46"></rect>
            </g>
        </g>
    </g>
</svg>