<?xml version="1.0" encoding="UTF-8"?>
<svg width="46px" height="46px" viewBox="0 0 46 46" version="1.1" xmlns="http://www.w3.org/2000/svg" xmlns:xlink="http://www.w3.org/1999/xlink">
    <!-- Generator: Sketch 60.1 (88133) - https://sketch.com -->
    <title>Icon/切换</title>
    <desc>Created with Sketch.</desc>
    <g id="Icon/切换" stroke="none" stroke-width="1" fill="none" fill-rule="evenodd">
        <path d="M25.8679352,17.4423121 L7.20707521,17.4423121 C6.65479046,17.4423121 6.20707521,17.8900274 6.20707521,18.4423121 L6.20707521,19.6219174 C6.20707521,20.1742021 6.65479046,20.6219174 7.20707521,20.6219174 L36.9194558,20.6219174 C37.4717405,20.6219174 37.9194558,20.1742021 37.9194558,19.6219174 C37.9194558,19.3336444 37.7950524,19.0593945 37.5781535,18.8695097 L28.526633,10.9453256 C28.1110897,10.5815368 27.4793163,10.6234922 27.1155276,11.0390354 C26.9559175,11.2213525 26.8679352,11.4554216 26.8679352,11.6977332 L26.8679352,16.4423121 C26.8679352,16.9945969 26.4202199,17.4423121 25.8679352,17.4423121 Z M19.918965,28.5610477 L38.5830906,28.5610477 C39.1353754,28.5610477 39.5830906,28.1133324 39.5830906,27.5610477 L39.5830906,26.384794 C39.5830906,25.8325093 39.1353754,25.384794 38.5830906,25.384794 L8.86807691,25.384794 C8.31579216,25.384794 7.86807691,25.8325093 7.86807691,26.384794 C7.86807691,26.6731179 7.99252409,26.9474111 8.20948893,27.1372977 L17.260346,35.0585683 C17.6759423,35.4222964 18.3077096,35.3802488 18.6714377,34.9646525 C18.8309868,34.7823514 18.9189326,34.5483294 18.9189339,34.3060699 L18.9189596,29.5610477 C18.918968,29.0087651 19.3666824,28.5610531 19.918965,28.5610477 Z" id="形状" fill="#5474E5" fill-rule="nonzero"></path>
    </g>
</svg>