<?xml version="1.0" encoding="UTF-8"?>
<svg width="46px" height="46px" viewBox="0 0 46 46" version="1.1" xmlns="http://www.w3.org/2000/svg" xmlns:xlink="http://www.w3.org/1999/xlink">
    <!-- Generator: Sketch 60.1 (88133) - https://sketch.com -->
    <title>0D270868-83F5-43D4-9EF6-DD89C9E888C4</title>
    <desc>Created with Sketch.</desc>
    <g id="组件" stroke="none" stroke-width="1" fill="none" fill-rule="evenodd">
        <g id="Icon/温度">
            <rect id="矩形" x="0" y="0" width="46" height="46"></rect>
            <g id="温度-2" transform="translate(11.000000, 6.000000)" fill="#FFFFFF" fill-rule="nonzero">
                <g id="温度">
                    <path d="M16.1897345,17.19127 L16.1897345,6.46000752 C16.1897345,2.89282563 13.1957671,3.55271368e-15 9.50345225,3.55271368e-15 C5.81112697,3.55271368e-15 2.81716996,2.89283559 2.81716996,6.46000752 L2.81716996,17.8216985 L2.81717023,17.8216982 C1.00577278,19.607444 -0.00472645947,21.9957675 1.53210744e-14,24.4800282 C1.53210744e-14,27.0045312 1.03861914,29.4256062 2.88700357,31.2120361 L2.88700377,31.2120362 C4.72433494,32.9930772 7.23395787,33.9973434 9.85410992,34.0000395 C13.99365,33.9972062 17.6904328,31.4953688 19.1064272,27.7383545 C20.523919,23.9785278 19.3575343,19.7653452 16.1882376,17.1912699 L16.1897345,17.19127 Z M17.33086,26.4137807 C16.4661009,29.5375344 13.6236996,31.7716092 10.2820211,31.9529649 C6.93887992,32.1328819 3.8572351,30.2175451 2.63886909,27.2057094 L2.63886867,27.2057083 C1.41901566,24.1985543 2.3384944,20.7846481 4.92706421,18.7099485 L4.92706421,6.46000646 C4.92706421,4.01908585 6.97752411,2.04000132 9.50344137,2.04000132 C12.0293691,2.04000132 14.0783559,4.01908585 14.0783559,6.46000646 L14.0783559,18.2169479 C16.8821369,19.9835322 18.1941457,23.2886315 17.3308596,26.4137797 L17.33086,26.4137807 Z M11.9909018,20.2073458 L11.9909018,12.9412651 C11.9909018,11.8079315 11.0310477,10.8800127 9.85723598,10.8800127 L9.85723603,10.8800127 C8.672587,10.8909118 7.7194296,11.81172 7.72357022,12.9412651 L7.72357022,20.2937736 L7.72356958,20.2937739 C6.04623558,21.1166513 4.99421522,22.7665065 5,24.5650289 C5,27.204282 7.21392513,29.3448567 9.94787283,29.3448567 C12.6788465,29.3448567 14.8942536,27.2056865 14.8942536,24.5650289 L14.8942536,24.564985 C14.900889,22.6963408 13.7658272,20.9950472 11.9878786,20.2087631 L11.9909018,20.2073458 Z M21.2221264,4.99511345 C21.6304246,4.99511345 24.0387229,5.00610819 24.4470211,4.99511345 C25.0098106,4.97678888 25.4291439,4.56998355 25.4438573,4.03124134 C25.4622492,3.49616405 25.0465942,3.03438501 24.4690913,3.01606045 C23.6304246,2.99407097 20.7991147,2.99407097 19.9641264,3.01972536 C19.3829451,3.03438501 18.985682,3.4815044 19.0003954,4.03857117 C19.0114305,4.57731337 19.4160504,4.9804538 19.9935533,4.99511345 C20.4018515,5.00610819 20.8138281,4.99511345 21.2221264,4.99511345 Z M22.3334982,9.99651627 C22.3555853,9.99651627 22.3776723,9.99651627 22.3923971,9.9928612 C22.8819937,9.97093082 23.2501114,9.72238651 23.386315,9.3239846 C23.6108668,8.66607319 23.1617632,8.03009216 22.4365712,8.01181685 C21.6377556,7.98988647 20.8389401,8.00450672 20.0438057,8.00816178 C19.9112834,8.01181685 19.7750798,8.03374723 19.6536009,8.07760799 C19.2008161,8.23112065 18.9468148,8.66607319 19.0093948,9.14854156 C19.0682937,9.62004474 19.4658609,9.97093082 20.0033128,9.98920614 C20.4119235,10.0111365 20.8242154,9.9928612 21.2328261,9.9928612 L21.2328261,9.99651627 C21.5935815,9.99651627 21.9690616,9.99651627 22.3334982,9.99651627 L22.3334982,9.99651627 Z M21.2295936,13.0032716 C20.8205449,13.0032716 20.4078111,12.9959104 19.9987623,13.0032716 C19.4238831,13.0143135 19.0000939,13.4339025 19.0000939,13.9896739 C18.9927236,14.5564871 19.4201979,14.9871179 20.0098177,14.9944791 C20.8205449,15.0018403 24.6239019,15.0018403 25.4383142,14.9944791 C26.0095083,14.9871179 26.4406678,14.5564871 26.4443529,14.0080769 C26.4517232,13.4523055 26.0131934,13.0143135 25.4272588,13.0032716 C25.0292654,12.9959104 21.6239019,13.0032716 21.2295936,13.0032716 Z" id="形状"></path>
                </g>
            </g>
        </g>
    </g>
</svg>