<?xml version="1.0" encoding="UTF-8"?>
<svg width="46px" height="46px" viewBox="0 0 46 46" version="1.1" xmlns="http://www.w3.org/2000/svg" xmlns:xlink="http://www.w3.org/1999/xlink">
    <!-- Generator: Sketch 60.1 (88133) - https://sketch.com -->
    <title>C9F835E4-B151-4C87-B2EE-F78EBCD7A081</title>
    <desc>Created with Sketch.</desc>
    <defs>
        <path d="M17.2021974,17.6679265 L10.7959187,17.6679265 C4.84212667,17.6679265 0,22.4372603 0,28.3025514 L0,28.9334441 C0,32 4.76492594,32 10.7959187,32 L17.2022392,32 C22.9966477,32 28,32 28,28.9334441 L28,28.3025514 C28,22.4395186 23.1556963,17.6679265 17.2021974,17.6679265 Z M13.6789429,16.8564388 C18.3937554,16.8564388 22.2300119,13.0761807 22.2300119,8.42778029 C22.2300119,3.78027062 18.3937554,0 13.6789429,0 C8.96459101,0 5.12846014,3.78115722 5.12846014,8.42778029 C5.12846014,13.0740771 8.96462869,16.8564388 13.6789429,16.8564388 Z" id="path-1"></path>
    </defs>
    <g id="组件" stroke="none" stroke-width="1" fill="none" fill-rule="evenodd">
        <g id="Icon/User">
            <g id="↳Color/Disable" transform="translate(9.000000, 7.000000)">
                <mask id="mask-2" fill="white">
                    <use xlink:href="#path-1"></use>
                </mask>
                <use id="形状" fill="#C3C6D5" fill-rule="nonzero" xlink:href="#path-1"></use>
            </g>
        </g>
    </g>
</svg>