<?xml version="1.0" encoding="UTF-8"?>
<svg width="505px" height="314px" viewBox="0 0 505 314" version="1.1" xmlns="http://www.w3.org/2000/svg" xmlns:xlink="http://www.w3.org/1999/xlink">
    <!-- Generator: Sketch 60.1 (88133) - https://sketch.com -->
    <title>编组</title>
    <desc>Created with Sketch.</desc>
    <defs>
        <linearGradient x1="25.9716324%" y1="90.4193186%" x2="25.9716324%" y2="0%" id="linearGradient-1">
            <stop stop-color="#F66B6E" offset="0%"></stop>
            <stop stop-color="#F66B6E" stop-opacity="0" offset="100%"></stop>
        </linearGradient>
        <linearGradient x1="50%" y1="0%" x2="50%" y2="100%" id="linearGradient-2">
            <stop stop-color="#FD797C" offset="0%"></stop>
            <stop stop-color="#EF595C" offset="100%"></stop>
        </linearGradient>
        <rect id="path-3" x="176" y="24" width="286" height="224" rx="24"></rect>
        <filter x="-12.9%" y="-15.6%" width="125.9%" height="133.0%" filterUnits="objectBoundingBox" id="filter-4">
            <feOffset dx="0" dy="2" in="SourceAlpha" result="shadowOffsetOuter1"></feOffset>
            <feGaussianBlur stdDeviation="12" in="shadowOffsetOuter1" result="shadowBlurOuter1"></feGaussianBlur>
            <feColorMatrix values="0 0 0 0 0.745414402   0 0 0 0 0.103730209   0 0 0 0 0.117579508  0 0 0 0.26 0" type="matrix" in="shadowBlurOuter1"></feColorMatrix>
        </filter>
        <linearGradient x1="25.9716324%" y1="90.4193186%" x2="25.9716324%" y2="0%" id="linearGradient-5">
            <stop stop-color="#FFFFFF" offset="0%"></stop>
            <stop stop-color="#FFFFFF" stop-opacity="0" offset="100%"></stop>
        </linearGradient>
        <linearGradient x1="25.9716324%" y1="90.4193186%" x2="25.9716324%" y2="0%" id="linearGradient-6">
            <stop stop-color="#FFFFFF" stop-opacity="0" offset="0%"></stop>
            <stop stop-color="#FFFFFF" offset="100%"></stop>
        </linearGradient>
        <filter x="-244.7%" y="-148.9%" width="589.3%" height="397.8%" filterUnits="objectBoundingBox" id="filter-7">
            <feGaussianBlur stdDeviation="22" in="SourceGraphic"></feGaussianBlur>
        </filter>
    </defs>
    <g id="联系帮助+缺省页" stroke="none" stroke-width="1" fill="none" fill-rule="evenodd">
        <g id="防盗报警-报警弹窗1" transform="translate(-725.000000, -146.000000)">
            <g id="编组" transform="translate(640.000000, 146.000000)">
                <rect id="矩形备份-8" fill="url(#linearGradient-1)" opacity="0.0799999982" x="85" y="162" width="152" height="152" rx="10"></rect>
                <rect id="矩形备份-9" fill="url(#linearGradient-1)" opacity="0.0799999982" x="318" y="0" width="272" height="272" rx="10"></rect>
                <g id="Label备份">
                    <use fill="black" fill-opacity="1" filter="url(#filter-4)" xlink:href="#path-3"></use>
                    <use fill="url(#linearGradient-2)" fill-rule="evenodd" xlink:href="#path-3"></use>
                </g>
                <rect id="矩形备份-6" fill="url(#linearGradient-5)" opacity="0.0799999982" x="371" y="45" width="51" height="51" rx="10"></rect>
                <rect id="矩形备份-7" fill="url(#linearGradient-5)" opacity="0.0799999982" x="396" y="75" width="96" height="96" rx="10"></rect>
                <path d="M318.5,96 C341.419817,96 360,114.580183 360,137.5 L360,187 L360,187 L277,187 L277,137.5 C277,114.580183 295.580183,96 318.5,96 Z" id="矩形" stroke="#FFFFFF" stroke-width="6"></path>
                <path d="M318.5,96 C341.419817,96 360,114.580183 360,137.5 L360,187 L360,187 L277,187 L277,137.5 C277,114.580183 295.580183,96 318.5,96 Z" id="矩形备份" fill="url(#linearGradient-6)" opacity="0.159999996"></path>
                <path d="M264,187 L372,187 C373.104569,187 374,187.895431 374,189 L374,199 C374,200.104569 373.104569,201 372,201 L264,201 C262.895431,201 262,200.104569 262,199 L262,189 C262,187.895431 262.895431,187 264,187 Z" id="矩形" stroke="#FFFFFF" stroke-width="6" stroke-linejoin="round"></path>
                <polyline id="路径-18备份" stroke="#FFFFFF" stroke-width="5" opacity="0.6" stroke-linecap="round" stroke-linejoin="round" filter="url(#filter-7)" points="323.386146 124 304 147.045286 332 147.045286 311.52444 170"></polyline>
                <polyline id="路径-18" stroke="#FFFFFF" stroke-width="6" stroke-linecap="square" stroke-linejoin="round" points="323.386146 124 304 147.045286 332 147.045286 311.52444 170"></polyline>
                <rect id="矩形" x="0" y="24" width="640" height="290"></rect>
            </g>
        </g>
    </g>
</svg>