<?xml version="1.0" encoding="UTF-8"?>
<svg width="46px" height="46px" viewBox="0 0 46 46" version="1.1" xmlns="http://www.w3.org/2000/svg" xmlns:xlink="http://www.w3.org/1999/xlink">
    <!-- Generator: Sketch 60.1 (88133) - https://sketch.com -->
    <title>Icon/退药</title>
    <desc>Created with Sketch.</desc>
    <g id="Icon/退药" stroke="none" stroke-width="1" fill="none" fill-rule="evenodd">
        <g id="退药申请" transform="translate(9.000000, 8.000000)" fill="#5474E5" fill-rule="nonzero">
            <path d="M18.2500184,22.0833317 L18.2500184,19.4412484 L18.2500184,19.4412904 C18.2497483,18.6588883 17.6152674,18.0248412 16.832862,18.0251133 C16.5017511,18.0252278 16.1811409,18.1413188 15.9267152,18.3532222 L11.0562133,22.4119738 L11.0562134,22.4119737 C10.4553263,22.9130655 10.3744268,23.8063926 10.8755173,24.4072798 C10.9301829,24.4728324 10.9906608,24.5333102 11.0562134,24.5879759 L15.9267153,28.6467275 L15.9267154,28.6467276 C16.5278947,29.1474674 17.4211754,29.0660434 17.9219152,28.464863 C18.1338263,28.2104456 18.2499267,27.8898378 18.2500509,27.5587261 L18.2500509,24.9166694 L26.7500541,24.9166694 L26.7500541,24.9166694 C27.5324561,24.9166695 28.1667224,24.2824065 28.1667224,23.5000011 C28.1667224,22.7175991 27.5324595,22.0833328 26.7500541,22.0833328 L18.2500508,22.0833328 L18.2500184,22.0833317 Z M1.73591653,10.5063272 L1.7359165,10.5063272 C-0.47711248,12.7193562 -0.47711248,16.3073802 1.73591655,18.5204026 C3.94894553,20.7334316 7.53696958,20.7334316 9.74999192,18.5204025 L17.7640673,10.5063271 L17.7640672,10.5063272 C19.9519382,8.26853528 19.9114669,4.68083661 17.6736744,2.49294904 C15.4712173,0.339625934 11.9520432,0.339938043 9.74997794,2.49364941 L1.73590257,10.5063303 L1.73591653,10.5063272 Z M3.73908508,12.5109102 L7.74683663,8.50315859 L11.7531604,12.5109102 L7.74683663,16.517234 L7.74683662,16.517234 C6.64051802,17.6239444 4.84650268,17.6242598 3.73978233,16.5179423 C2.63307194,15.4116237 2.63275651,13.6176084 3.73907403,12.510888 L3.73908508,12.5109102 Z" id="形状"></path>
        </g>
    </g>
</svg>