<?xml version="1.0" encoding="UTF-8"?>
<svg width="12px" height="13px" viewBox="0 0 12 13" version="1.1" xmlns="http://www.w3.org/2000/svg" xmlns:xlink="http://www.w3.org/1999/xlink">
    <!-- Generator: Sketch 60.1 (88133) - https://sketch.com -->
    <title>icon/二级/角色与权限</title>
    <desc>Created with Sketch.</desc>
    <g id="页面-1" stroke="none" stroke-width="1">
        <g id="icon" transform="translate(-144.000000, -349.000000)">
            <g id="icon/二级/角色与权限" transform="translate(143.000000, 349.000000)">
                <g id="用户" stroke-width="1" transform="translate(1.000000, 0.000000)">
                    <path d="M7.36363668,7 C7.880497,7 8.37740271,7.08199534 8.84139101,7.23284585 C8.06396939,7.55777575 7.45297614,8.20130294 7.17067428,9.00008893 L7,9 C6.44771525,9 6,9.44771525 6,10 L6,10 L6,12.9996154 L4.13749157,12.9996528 C1.76617177,12.9946177 0,12.9165741 0,11.7068978 L0,11.4482774 C0,8.96552218 2.07273495,7 4.63636332,7 L7.36363668,7 Z M6,0.384615385 C7.65685425,0.384615385 9,1.72776114 9,3.38461538 C9,5.04146963 7.65685425,6.38461538 6,6.38461538 C4.34314575,6.38461538 3,5.04146963 3,3.38461538 C3,1.72776114 4.34314575,0.384615385 6,0.384615385 Z" id="形状" fill-rule="nonzero"></path>
                </g>
                <path d="M8.5,10 L12.5,10 C12.7761424,10 13,10.2238576 13,10.5 L13,12.5 C13,12.7761424 12.7761424,13 12.5,13 L8.5,13 C8.22385763,13 8,12.7761424 8,12.5 L8,10.5 C8,10.2238576 8.22385763,10 8.5,10 Z" id="矩形"></path>
                <path d="M10.5,8 C11.3284271,8 12,8.67157288 12,9.5 L12,11 L11,11 L11,9.5 C11,9.22385763 10.7761424,9 10.5,9 C10.2238576,9 10,9.22385763 10,9.5 L10,9.5 L10,11 L9,11 L9,9.5 C9,8.67157288 9.67157288,8 10.5,8 Z" id="形状结合"></path>
            </g>
        </g>
    </g>
</svg>