<?xml version="1.0" encoding="UTF-8"?>
<svg width="46px" height="46px" viewBox="0 0 46 46" version="1.1" xmlns="http://www.w3.org/2000/svg" xmlns:xlink="http://www.w3.org/1999/xlink">
    <!-- Generator: Sketch 60.1 (88133) - https://sketch.com -->
    <title>33295F76-1D4D-4791-B322-7F0BC50EDD09</title>
    <desc>Created with Sketch.</desc>
    <g id="组件" stroke="none" stroke-width="1" fill="none" fill-rule="evenodd">
        <g id="Icon/Password备份" fill="#8B92AC" fill-rule="nonzero">
            <g id="关-闭-" transform="translate(7.000000, 7.000000)">
                <path d="M15.9524747,0 C9.5334709,0 3.59586959,3.83218843 1.18876278,9.89981491 C-1.21834402,15.9674414 0.0654378979,22.6737868 4.71919447,27.3043191 C9.37295105,31.9348515 16.2734202,33.2122893 22.2110215,30.8171638 C28.1486228,28.4220382 32,22.3544117 32,15.9674726 C32,7.18531425 24.7786482,0 15.9524747,0 Z M22.8529125,20.7576926 C23.3343778,21.0770364 23.4948034,21.715724 23.3343778,22.1947554 C23.1738894,22.6737868 22.8529439,23.1527869 22.2110529,23.3124744 C21.729619,23.472162 21.087728,23.3124744 20.7667826,22.9930993 L15.9524747,18.2029107 L11.1382297,22.9931306 C10.8172528,23.3124744 10.1753619,23.4721307 9.69392794,23.3124744 C9.21252542,23.1527869 8.7310915,22.8334431 8.57060305,22.1947554 C8.41013816,21.715724 8.57060305,21.0770364 8.89157994,20.7576926 L13.705825,15.9674414 L8.89157994,11.1772215 C8.24965757,10.5385026 8.24965757,9.58047108 8.89157994,8.94178343 C9.53350231,8.30309577 10.4963073,8.30306452 11.1382297,8.94178343 L15.9524747,13.8916909 L20.7667512,9.10143972 C21.4086421,8.62240835 22.3714786,8.62240835 22.8529125,9.26112725 C23.3343464,9.89981491 23.3343464,10.6981901 22.8529125,11.3368778 L18.0386675,16.1271289 L22.8529125,20.7576926 Z" id="形状"></path>
            </g>
        </g>
    </g>
</svg>