<?xml version="1.0" encoding="UTF-8"?>
<svg width="46px" height="46px" viewBox="0 0 46 46" version="1.1" xmlns="http://www.w3.org/2000/svg" xmlns:xlink="http://www.w3.org/1999/xlink">
    <!-- Generator: Sketch 60.1 (88133) - https://sketch.com -->
    <title>EF69941D-29F5-4762-88F2-57825AAC50D8</title>
    <desc>Created with Sketch.</desc>
    <defs>
        <path d="M25.4213631,23.0010875 L36.4979041,11.925503 C37.1673653,11.2555737 37.1673653,10.1723763 36.4979041,9.50679717 C35.8284428,8.83686786 34.7460022,8.83686786 34.0808881,9.50679717 L23,20.5780315 L11.9191119,9.50244698 C11.2496507,8.83251767 10.1672101,8.83251767 9.50209595,9.50244698 C8.83263468,10.1723763 8.83263468,11.2555737 9.50209595,11.9211528 L20.5786369,22.9967374 L9.50209595,34.0766721 C8.83263468,34.7466014 8.83263468,35.8297988 9.50209595,36.4953779 C9.83682658,36.8303426 10.2758888,36.9956498 10.7106039,36.9956498 C11.1496662,36.9956498 11.5843813,36.8303426 11.9191119,36.4953779 L23,25.4197934 L34.0808881,36.4997281 C34.4156187,36.8346928 34.8503338,37 35.2893961,37 C35.7284583,37 36.1631734,36.8346928 36.4979041,36.4997281 C37.1673653,35.8297988 37.1673653,34.7466014 36.4979041,34.0810223 L25.4213631,23.0010875 Z" id="path-1"></path>
    </defs>
    <g id="组件" stroke="none" stroke-width="1" fill="none" fill-rule="evenodd">
        <g id="Icon/Close">
            <mask id="mask-2" fill="white">
                <use xlink:href="#path-1"></use>
            </mask>
            <use id="Mask" fill="#C3C6D5" fill-rule="nonzero" xlink:href="#path-1"></use>
        </g>
    </g>
</svg>