<?xml version="1.0" encoding="UTF-8"?>
<svg width="32px" height="32px" viewBox="0 0 32 32" version="1.1" xmlns="http://www.w3.org/2000/svg" xmlns:xlink="http://www.w3.org/1999/xlink">
    <!-- Generator: Sketch 60.1 (88133) - https://sketch.com -->
    <title>ABA0D438-9B49-4FEE-972D-CD3970809C47</title>
    <desc>Created with Sketch.</desc>
    <g id="组件" stroke="none" stroke-width="1" fill="none" fill-rule="evenodd">
        <g id="标识/冷藏" fill="#06B5D4">
            <path d="M26.2153457,17.6578445 L23.9178643,17.0389215 L24.7169875,16.5797202 L24.7169876,16.5797202 C25.2190163,16.3007489 25.3996956,15.6678837 25.1205442,15.1661765 C24.8413942,14.6644694 24.2081233,14.4839059 23.7060946,14.7628784 L21.0629923,16.2902239 L19.1970369,15.7711253 L19.1970369,15.7711253 C18.8193902,15.671471 18.594085,15.284738 18.6938042,14.9073332 C18.7263153,14.7842888 18.7914671,14.6722993 18.8823815,14.5831883 L20.2988277,13.1656506 L23.2665729,13.1656506 L23.266573,13.1656506 C23.8103088,13.1754438 24.2748823,12.7760217 24.3463898,12.2372645 L24.3463899,12.2372644 C24.4021269,11.6616129 23.9803515,11.1497964 23.4043311,11.0940953 C23.3734825,11.0911123 23.3425166,11.0894985 23.3115249,11.0892586 L22.3795455,11.0892586 L24.0097582,9.46208549 L24.0097581,9.46208552 C24.4196462,9.0704878 24.4542027,8.42787907 24.0886718,7.99463732 L24.0886719,7.99463737 C23.7045576,7.56575094 23.0452654,7.52926104 22.6161075,7.91312922 C22.6046139,7.92340984 22.59335,7.93394398 22.5823241,7.94472396 L20.8731978,9.65175791 L20.8731978,8.73335527 L20.8731978,8.73335447 C20.8804221,8.18966522 20.4796112,7.7264997 19.9402201,7.65523021 L19.9402202,7.65523021 C19.3610688,7.60338035 18.8495146,8.03054354 18.7976319,8.60932394 C18.7951248,8.6372918 18.793739,8.66534882 18.7934778,8.69342738 L18.7934778,11.7281514 L17.4119927,13.1157388 L17.4119927,13.1157388 C17.1290132,13.3927303 16.6749245,13.3880233 16.3977532,13.105225 C16.3131683,13.0189224 16.2517829,12.9126546 16.2192994,12.7962939 L15.7018681,10.8796245 L17.1752517,8.3240653 L17.1752517,8.3240653 C17.4708906,7.84099921 17.3396527,7.21145976 16.8755804,6.88656408 L16.8755804,6.88656409 C16.391077,6.57229752 15.7433866,6.71004897 15.4289192,7.19424035 C15.4200198,7.207943 15.411443,7.22185229 15.403196,7.23595663 L14.9307156,8.04455148 L14.3573452,5.80843884 L14.3573452,5.80843894 C14.2193161,5.27940002 13.7078007,4.93660907 13.1656502,5.00982752 L13.1656501,5.00982754 C12.6029992,5.10027834 12.2202515,5.62942996 12.3107602,6.19172378 C12.3165008,6.2273877 12.3241126,6.26272513 12.333564,6.2975909 L12.9638717,8.62354778 L12.1427722,8.15436303 L12.1427722,8.15436303 C11.7144533,7.89920221 11.1658983,7.97828973 10.8272159,8.34403329 L10.8272159,8.34403329 C10.443891,8.77362572 10.4816216,9.43242271 10.9114893,9.81550204 C10.9651442,9.8633171 11.0236029,9.9054593 11.0859322,9.94125679 L13.7280362,11.4586188 L14.2334811,13.3353578 L14.2334811,13.3353578 C14.3376761,13.710406 14.1179102,14.0988582 13.7426196,14.2029882 C13.6202426,14.2369431 13.4909612,14.2372407 13.3684289,14.2038498 L11.4355497,13.6847512 L9.93719149,11.129192 L9.93719147,11.129192 C9.67590372,10.6479688 9.08851375,10.448098 8.58767243,10.6699906 L8.58767247,10.6699906 C8.06685482,10.9038826 7.83437572,11.5154267 8.06841698,12.0359108 C8.08247869,12.0671826 8.09808919,12.0977355 8.1151904,12.1274564 L8.58767082,12.9360512 L6.3051741,12.3271084 L6.30517411,12.3271084 C5.74885476,12.1802502 5.17873803,12.511896 5.03178606,13.067861 C5.0241262,13.0968406 5.01772206,13.1261371 5.0125916,13.1556691 L5.01259157,13.1556693 C4.92894998,13.6953015 5.26993811,14.2099155 5.79972837,14.3436046 L8.08122676,14.9625276 L7.2821035,15.4217289 L7.28210338,15.421729 C6.78519896,15.6997794 6.58873565,16.3149708 6.83259758,16.8292832 L6.83259755,16.8292832 C7.10619978,17.343284 7.7449455,17.5383056 8.25927242,17.2648782 C8.26320152,17.2627895 8.26711736,17.2606759 8.27101969,17.2585375 L10.9121254,15.7311921 L12.7900672,16.2303238 L12.7900672,16.2303238 C13.17116,16.3341628 13.3958614,16.727079 13.2919566,17.1079276 C13.2588412,17.2293065 13.1942543,17.3397998 13.1047216,17.4282429 L11.6882754,18.8357972 L8.72053017,18.8357972 L8.72053022,18.8357972 C8.17826363,18.830047 7.71600189,19.2274811 7.64071334,19.7641832 L7.64071332,19.7641835 C7.58497658,20.3398349 8.00675165,20.8516515 8.58277206,20.9073525 C8.61362069,20.9103356 8.64458661,20.9119494 8.67557829,20.9121892 L9.60855597,20.9121892 L7.97834332,22.5393624 L7.97834331,22.5393624 C7.55355006,22.945796 7.53887709,23.619419 7.94557395,24.0439435 C7.95625806,24.0550959 7.96718379,24.0660146 7.97834334,24.0766919 L7.97834331,24.0766919 C8.17025216,24.2495278 8.41923901,24.3455037 8.67757823,24.3462233 L8.67757818,24.3462233 C8.95148389,24.3476451 9.21465086,24.239859 9.40877592,24.0467439 L11.1169039,22.3397099 L11.1169039,23.2581126 L11.1169039,23.2581127 C11.1101303,23.8016362 11.5107194,24.2645465 12.0498816,24.3362403 L12.0498816,24.3362403 C12.624184,24.3925074 13.1353932,23.9728527 13.1916971,23.3989182 C13.1946608,23.3687072 13.1963049,23.3383815 13.1966246,23.3080275 L13.1966246,20.26332 L14.5801064,18.8857128 L14.5801063,18.8857128 C14.8542793,18.6061556 15.3033109,18.6016484 15.5830493,18.8756458 C15.6728791,18.9636325 15.737678,19.073911 15.7708023,19.1951749 L16.2882337,21.1318078 L14.8038619,23.6973504 L14.8038618,23.6973506 C14.524669,24.1606089 14.6411374,24.7598202 15.0735663,25.084938 L15.0735663,25.084938 C15.2478795,25.2188359 15.4610536,25.2924183 15.6808994,25.2945738 L15.6808994,25.2945738 C16.0517569,25.2941309 16.3943065,25.0963387 16.5799143,24.7754752 L17.0523948,23.9668803 L17.6597279,26.2429234 L17.6597279,26.2429233 C17.813024,26.7931687 18.3836422,27.1150415 18.9342403,26.9618429 C19.4848384,26.808645 19.8069175,26.2383923 19.6536207,25.6881468 C19.6522964,25.6833933 19.650938,25.6786493 19.6495458,25.6739151 L19.0432109,23.3978721 L19.8633122,23.8670568 L19.8633121,23.8670568 C20.2913225,24.1220668 20.839516,24.042971 21.1778701,23.6773865 L21.17787,23.6773865 C21.5613342,23.2486592 21.5244163,22.5904456 21.0954155,22.207227 C21.0412548,22.1588465 20.9821795,22.1162595 20.9191537,22.080161 L18.278048,20.5528156 L17.7716048,18.6760766 L17.7716048,18.6760765 C17.6684575,18.3041706 17.886524,17.9191158 18.2586687,17.8160332 C18.3827299,17.7816693 18.513876,17.7822006 18.6376553,17.8175684 L20.5715362,18.336667 L22.0778843,20.9321566 L22.0778842,20.9321566 C22.2604009,21.25609 22.604924,21.4550205 22.9768991,21.4512551 L22.9768991,21.4512551 C23.1952455,21.4497581 23.4076359,21.3799373 23.5842323,21.2516021 L23.5842323,21.2516021 C24.0160337,20.9216703 24.1319946,20.3207765 23.8539365,19.8540313 L23.403429,19.0853668 L25.6859257,19.6943097 L25.6859256,19.6943096 C25.7744596,19.7141255 25.8649027,19.7241683 25.9556297,19.7242576 L25.9556297,19.7242576 C26.4855914,19.7206066 26.9293892,19.3220865 26.9894973,18.7958715 L26.9894973,18.7958716 C27.0647322,18.2732231 26.7284845,17.779567 26.214347,17.65785 L26.2153457,17.6578445 Z" id="形状" transform="translate(16.000000, 16.000000) rotate(-15.000000) translate(-16.000000, -16.000000) "></path>
        </g>
    </g>
</svg>