<?xml version="1.0" encoding="UTF-8"?>
<svg width="46px" height="46px" viewBox="0 0 46 46" version="1.1" xmlns="http://www.w3.org/2000/svg" xmlns:xlink="http://www.w3.org/1999/xlink">
    <!-- Generator: Sketch 60.1 (88133) - https://sketch.com -->
    <title>Icon/退药备份</title>
    <desc>Created with Sketch.</desc>
    <g id="Icon/退药备份" stroke="none" stroke-width="1" fill="none" fill-rule="evenodd">
        <g id="退药申请" transform="translate(5.000000, 7.000000)" fill="#5474E5">
            <path d="M22.2500184,23.0833317 L22.2500184,20.4412484 L22.2500184,20.4412904 C22.2497483,19.6588883 21.6152674,19.0248412 20.832862,19.0251133 C20.5017511,19.0252278 20.1811409,19.1413188 19.9267152,19.3532222 L15.0562133,23.4119738 L15.0562134,23.4119737 C14.4553263,23.9130655 14.3744268,24.8063926 14.8755173,25.4072798 C14.9301829,25.4728324 14.9906608,25.5333102 15.0562134,25.5879759 L19.9267153,29.6467275 L19.9267154,29.6467276 C20.5278947,30.1474674 21.4211754,30.0660434 21.9219152,29.464863 C22.1338263,29.2104456 22.2499267,28.8898378 22.2500509,28.5587261 L22.2500509,25.9166694 L30.7500541,25.9166694 L30.7500541,25.9166694 C31.5324561,25.9166695 32.1667224,25.2824065 32.1667224,24.5000011 C32.1667224,23.7175991 31.5324595,23.0833328 30.7500541,23.0833328 L22.2500508,23.0833328 L22.2500184,23.0833317 Z" id="形状" fill-rule="nonzero"></path>
            <path d="M16.3846411,0.828291959 L23.1723515,7.6160023 L21.5502171,9.23813668 L20.6367567,8.32467624 L18.8082244,10.1532085 C19.7813083,11.1262924 19.7813083,12.7039731 18.8082244,13.6770569 L9.17157288,23.3137085 C8.78104858,23.7042328 8.1478836,23.7042328 7.75735931,23.3137085 L0.686934948,16.2432841 C0.296462919,15.8527369 0.296446093,15.2196009 0.686897362,14.829033 L8.63406992,6.88029196 L8.74015933,9.23332194 L6.7041724,10.9728167 L7.47962307,15.8666942 L7.99597485,12.2489619 L10.7517114,10.4151277 L10.8439294,4.76931789 C11.7177503,4.24083021 12.8558311,4.31948353 13.6510007,5.00531011 L13.7824383,5.12742237 L15.6109706,3.29889013 L14.7618633,2.44978289 L16.3846411,0.828291959 Z" id="形状结合"></path>
        </g>
    </g>
</svg>