<?xml version="1.0" encoding="UTF-8"?>
<svg width="46px" height="46px" viewBox="0 0 46 46" version="1.1" xmlns="http://www.w3.org/2000/svg" xmlns:xlink="http://www.w3.org/1999/xlink">
    <!-- Generator: Sketch 60.1 (88133) - https://sketch.com -->
    <title>icon/小刷新</title>
    <desc>Created with Sketch.</desc>
    <defs>
        <path d="M12.9520167,31.0539706 C14.9502818,33.4598691 17.6658901,34.9701099 20.5386959,35.5137657 C23.8527907,36.1441695 27.405401,35.4909851 30.3533485,33.4884959 L32.4348438,36 L34.0100984,28.1429264 L25.8947323,28.1075403 L28.0725899,30.735249 C25.9872862,32.0567492 23.5347316,32.4705267 21.2175314,32.0328376 C19.1317689,31.6349695 17.1824679,30.553947 15.727087,28.8058948 C13.8788005,26.5814313 13.2538379,23.7787256 13.7621127,21.1554471 L13.7621127,21.1554472 C13.8363474,20.7760725 13.9344204,20.4016252 14.0557636,20.0342712 L10.3347423,20.0298642 C10.2997761,20.182167 10.2654336,20.3333031 10.2365085,20.4860911 C9.52867832,24.0940172 10.4027378,27.9905864 12.9520237,31.0540018 M17.8696652,15.1313603 C19.9665577,13.7809546 22.4443243,13.3551215 24.7827964,13.7965727 C26.8685268,14.1945358 28.8184695,15.2770847 30.2723424,17.0230405 C32.1214503,19.2479885 32.7465412,22.0507797 32.2381349,24.6740899 C32.1533294,25.1087358 32.0356588,25.5363834 31.8889988,25.9554429 L35.623656,25.9714833 C35.6753995,25.7637684 35.724221,25.5545961 35.7647029,25.3438979 C36.4701011,21.7360983 35.5966021,17.8385792 33.0477759,14.7740237 C31.0494114,12.370817 28.332908,10.8600062 25.4612892,10.3170154 L25.4518008,10.3149739 C22.114926,9.68116907 18.5376107,10.3504895 15.5786262,12.3859357 L13.587256,10 L12.0404988,17.861887 L20.1549344,17.8701502 L17.8696519,15.1313576" id="path-1"></path>
    </defs>
    <g id="icon/小刷新" stroke="none" stroke-width="1" fill="none" fill-rule="evenodd">
        <g id="刷新">
            <mask id="mask-2" fill="white">
                <use xlink:href="#path-1"></use>
            </mask>
            <use id="形状" fill="#000000" fill-rule="nonzero" xlink:href="#path-1"></use>
            <g id="icon/颜色/蓝" mask="url(#mask-2)" fill="#5474E5">
                <rect id="矩形" x="0" y="0" width="46" height="46"></rect>
            </g>
        </g>
    </g>
</svg>