<?xml version="1.0" encoding="UTF-8"?>
<svg width="32px" height="32px" viewBox="0 0 32 32" version="1.1" xmlns="http://www.w3.org/2000/svg" xmlns:xlink="http://www.w3.org/1999/xlink">
    <!-- Generator: Sketch 60.1 (88133) - https://sketch.com -->
    <title>3BBEB65A-0A22-48A3-BDD9-0846F7BDD566</title>
    <desc>Created with Sketch.</desc>
    <defs>
        <rect id="path-1" x="0" y="0" width="32" height="32"></rect>
    </defs>
    <g id="组件" stroke="none" stroke-width="1" fill="none" fill-rule="evenodd">
        <g id="标识/双">
            <mask id="mask-2" fill="white">
                <use xlink:href="#path-1"></use>
            </mask>
            <use id="蒙版" fill="#17876C" xlink:href="#path-1"></use>
            <g id="用户" mask="url(#mask-2)" fill="#FFFFFF" fill-rule="nonzero">
                <g transform="translate(3.000000, 8.000000)">
                    <path d="M10,18 C7.0928612,18 3.5,18 0,18 C0,17.5 0,15.5 2.17006937,14.6877296 C3.96472564,14.0159786 5.2857046,14.2007394 6.6326572,13.0854977 C8.12925712,11.8215559 7.75510628,11.8215559 7.38095545,11.3754592 C6.85714702,10.7806624 6.78231479,9.29367568 6.78231479,9.29367568 C5.21088608,8.84757897 5.58503691,6.31969878 5.95918432,6.31969878 C6.33333516,6.31969878 6.33333516,6.17099977 6.10884432,4.83270863 C5.80952467,3.12267013 5.95918432,2.23047672 6.78231377,1.18959008 C7.60544424,0.148696633 10,0 10,0 C10,0 12.3945592,0.148699015 13.2176862,1.18959008 C14.0408167,2.23048352 14.1904743,3.12267693 13.8911557,4.83270863 C13.6666659,6.17099875 13.6666659,6.31969878 14.0408157,6.31969878 C14.4149665,6.31969878 14.7142851,8.84757897 13.2176852,9.29367568 C13.2176852,9.29367568 13.1428554,10.7806658 12.6190446,11.3754592 C12.2448937,11.8215559 12,12.5 13,13 C14.6087938,13.8043969 15.7055236,13.9018412 17.5,14.5 C19,15 20.5,17 20.5,18 C18.5,18 12.8480465,18 10,18 Z" id="路径"></path>
                    <path d="M25.797266,16.1618751 C25.4533972,14.9811126 25.0209752,14.2604876 24.5,14 C23.5,13.5 21.7399979,12.9522598 20.5,12.5 C19.2600021,12.0477402 19.4063131,11.4070352 19.7094731,11.0854249 C20.0884214,10.603013 20.1642096,9.39698332 20.1642096,9.39698332 C21.301051,9.07537552 21.0736827,7.06532469 20.7705262,7.06532469 C20.4673686,7.06532469 20.4673686,6.98492283 20.6947369,5.859295 C20.9221051,4.49246013 20.8463158,3.76884232 20.1642121,2.96482375 C19.5578955,2.08040075 17.7389493,2 17.7389493,2 C17.7389493,2 15.9200031,2.08040186 15.3136865,2.96482375 C15.1621075,3.12562783 15.0863182,3.36683487 14.9347382,3.52763638 C14.9347382,3.52763638 15.8568434,5.76470588 15.8568434,7.64705882 C15.8568434,9.52941176 15,11.809039 15,11.809039 C15,11.809039 16.8004872,12.4002436 19,13.5 C20.3333333,14.1666667 21.1666667,15 21.5,16 L25.797266,16.1618751 Z" id="形状"></path>
                </g>
            </g>
        </g>
    </g>
</svg>