<?xml version="1.0" encoding="UTF-8"?>
<svg width="498px" height="432px" viewBox="0 0 498 432" version="1.1" xmlns="http://www.w3.org/2000/svg" xmlns:xlink="http://www.w3.org/1999/xlink">
    <!-- Generator: Sketch 60.1 (88133) - https://sketch.com -->
    <title>img_未管控</title>
    <desc>Created with Sketch.</desc>
    <defs>
        <linearGradient x1="50%" y1="0%" x2="50%" y2="100%" id="linearGradient-1">
            <stop stop-color="#353E76" stop-opacity="0.02" offset="0%"></stop>
            <stop stop-color="#181D41" stop-opacity="0.04" offset="100%"></stop>
        </linearGradient>
        <linearGradient x1="25.9716324%" y1="90.4193186%" x2="25.9716324%" y2="0%" id="linearGradient-2">
            <stop stop-color="#5474E5" stop-opacity="0" offset="0%"></stop>
            <stop stop-color="#5474E5" offset="100%"></stop>
        </linearGradient>
    </defs>
    <g id="img_未管控" stroke="none" stroke-width="1" fill="none" fill-rule="evenodd">
        <rect id="矩形" fill="url(#linearGradient-1)" x="71" y="75" width="220" height="220" rx="40"></rect>
        <rect id="矩形备份" fill="url(#linearGradient-1)" x="294" y="222" width="100" height="100" rx="20"></rect>
        <g id="编组" transform="translate(164.000000, 133.000000)">
            <path d="M5,15 L165,15 L165,231 C165,233.209139 163.209139,235 161,235 L9,235 C6.790861,235 5,233.209139 5,231 L5,15 L5,15 Z" id="矩形" stroke="#181D41" stroke-width="2" fill="#FFFFFF"></path>
            <polygon id="矩形备份-2" stroke="#181D41" stroke-width="2" fill="#FFFFFF" points="5 15 165 15 165 70 5 70"></polygon>
            <polygon id="矩形备份-3" stroke="#181D41" stroke-width="2" fill="#F2F3F4" points="5 54 165 54 165 70 5 70"></polygon>
            <polygon id="矩形备份-6" stroke="#181D41" stroke-width="2" fill="#FFFFFF" points="5 70 165 70 165 125 5 125"></polygon>
            <polygon id="矩形备份-4" stroke="#181D41" stroke-width="2" fill="#F2F3F4" points="5 109 165 109 165 125 5 125"></polygon>
            <polygon id="矩形备份-8" stroke="#181D41" stroke-width="2" fill="#FFFFFF" points="5 125 165 125 165 180 5 180"></polygon>
            <polygon id="矩形备份-7" stroke="#181D41" stroke-width="2" fill="#F2F3F4" points="5 164 165 164 165 180 5 180"></polygon>
            <polygon id="矩形备份-9" stroke="#181D41" stroke-width="2" fill="#F2F3F4" points="5 164 165 164 165 180 5 180"></polygon>
            <path d="M5,219 L165,219 L165,231 C165,233.209139 163.209139,235 161,235 L9,235 C6.790861,235 5,233.209139 5,231 L5,219 L5,219 Z" id="矩形备份-10" stroke="#181D41" stroke-width="2" fill="#F2F3F4"></path>
            <polygon id="矩形备份-11" stroke="#181D41" stroke-width="2" fill="#FFFFFF" points="0 0 170 0 170 15 0 15"></polygon>
            <path d="M25,235 L37,235 L37,245 C37,248.313708 34.3137085,251 31,251 C27.6862915,251 25,248.313708 25,245 L25,235 L25,235 Z" id="矩形备份-12" stroke="#181D41" stroke-width="2" fill="#FFFFFF"></path>
            <path d="M133,235 L145,235 L145,245 C145,248.313708 142.313708,251 139,251 C135.686292,251 133,248.313708 133,245 L133,235 L133,235 Z" id="矩形备份-13" stroke="#181D41" stroke-width="2" fill="#FFFFFF"></path>
            <path d="M88.5,79.5 L88.5,87 L96,87 L96,94 L88.5,94 L88.5,101.5 L81.5,101.5 L81.5,94 L74,94 L74,87 L81.5,87 L81.5,79.5 L88.5,79.5 Z" id="形状结合备份" fill="url(#linearGradient-2)" opacity="0.16"></path>
            <path d="M89.5,86 L97,86 L97,95 L89.5,95 L89.5,102.5 L80.5,102.5 L80.5,95 L73,95 L73,86 L80.5,86 L80.5,78.5 L89.5,78.5 L89.5,86 Z" id="形状结合" stroke="#5474E5" stroke-width="2" stroke-linejoin="round"></path>
        </g>
        <path d="M297.287993,79.7691049 C344,71 378.670151,97.4964792 378.670151,140.5 M371.332738,207 C355.26167,247.664 323,272 281.287993,288.327999" id="形状" stroke="#181D41" stroke-width="2" stroke-dasharray="8"></path>
        <g id="编组-3" transform="translate(210.712007, 56.000000)">
            <rect id="矩形" stroke="#181D41" stroke-width="2" fill="#FFFFFF" x="7" y="1" width="34" height="14" rx="2"></rect>
            <rect id="矩形备份-2" stroke="#181D41" stroke-width="2" fill="#FFFFFF" transform="translate(24.000000, 17.000000) scale(1, -1) translate(-24.000000, -17.000000) " x="11" y="15" width="26" height="4"></rect>
            <path d="M12,19 L36,19 C42.627417,19 48,24.372583 48,31 L48,73 C48,75.209139 46.209139,77 44,77 L4,77 C1.790861,77 2.705415e-16,75.209139 0,73 L0,31 C-8.11624501e-16,24.372583 5.372583,19 12,19 Z" id="矩形备份-3" stroke="#181D41" stroke-width="2" fill="#FFFFFF"></path>
            <path d="M1.2879929,36 L27.2879929,36 C29.4971319,36 31.2879929,37.790861 31.2879929,40 L31.2879929,53 C31.2879929,55.209139 29.4971319,57 27.2879929,57 L1.2879929,57 L1.2879929,57 L1.2879929,36 Z" id="矩形备份-4" fill="#F2F3F4"></path>
        </g>
        <g id="编组" transform="translate(233.000000, 113.000000)">
            <g id="编组-2" transform="translate(0.287993, 0.000000)">
                <path d="M16,0 L64,0 C66.209139,-4.05812251e-16 68,1.790861 68,4 L68,16 C68,18.209139 66.209139,20 64,20 L16,20 L16,20 L16,0 Z" id="矩形" stroke="#181D41" stroke-width="2" fill="#FFFFFF"></path>
                <rect id="矩形备份-7" stroke="#181D41" stroke-width="2" fill="#F2F3F4" transform="translate(11.000000, 10.000000) scale(-1, 1) translate(-11.000000, -10.000000) " x="6" y="4" width="10" height="12"></rect>
                <rect id="矩形备份-16" stroke="#181D41" stroke-width="2" stroke-linejoin="round" x="68" y="5" width="6" height="10"></rect>
                <rect id="矩形备份-8" stroke="#181D41" stroke-width="2" fill="#FFFFFF" x="0" y="0" width="6" height="20" rx="1"></rect>
                <path d="M74,9 L88,9 C88.5522847,9 89,9.44771525 89,10 C89,10.5522847 88.5522847,11 88,11 L74,11 L74,11 L74,9 Z" id="矩形备份-6" fill="#181D41"></path>
                <path d="M34,5.32907052e-15 L34,10 L32,10 L32,5.32907052e-15 L34,5.32907052e-15 Z M42,-3.99680289e-15 L42,6.25 L40,6.25 L40,-3.99680289e-15 L42,-3.99680289e-15 Z M50,-3.99680289e-15 L50,6.25 L48,6.25 L48,-3.99680289e-15 L50,-3.99680289e-15 Z M58,-3.99680289e-15 L58,6.25 L56,6.25 L56,-3.99680289e-15 L58,-3.99680289e-15 Z M26,-3.99680289e-15 L26,6.25 L24,6.25 L24,-3.99680289e-15 L26,-3.99680289e-15 Z" id="形状结合" fill="#181D41"></path>
            </g>
        </g>
        <g id="编组备份" transform="translate(197.500000, 116.500000) rotate(30.000000) translate(-197.500000, -116.500000) translate(188.000000, 99.000000)" stroke="#181D41" stroke-width="2">
            <rect id="矩形备份-5" fill="#FFFFFF" transform="translate(10.000000, 17.464102) scale(1, -1) translate(-10.000000, -17.464102) " x="1" y="0.464101615" width="18" height="34"></rect>
            <path d="M9.96410162,0.401923789 C14.9346644,0.401923789 18.9641016,4.43136104 18.9641016,9.40192379 L18.9641016,18.4019238 L18.9641016,18.4019238 L0.964101615,18.4019238 L0.964101615,9.40192379 C0.964101615,4.43136104 4.99353887,0.401923789 9.96410162,0.401923789 Z" id="矩形备份" fill="#F2F3F4"></path>
        </g>
        <circle id="椭圆形" stroke="#5474E5" stroke-width="2" fill="#FFFFFF" cx="374" cy="175" r="21"></circle>
        <circle id="椭圆形备份" fill="url(#linearGradient-2)" opacity="0.159999996" cx="374" cy="175" r="21"></circle>
        <path d="M374.646447,161.853553 L374.646447,173.852553 L386.646447,173.853553 L386.646447,175.853553 L374.646447,175.852553 L374.646447,187.853553 L372.646447,187.853553 L372.646447,175.852553 L360.646447,175.853553 L360.646447,173.853553 L372.646447,173.852553 L372.646447,161.853553 L374.646447,161.853553 Z" id="形状结合" fill="#5474E5" transform="translate(373.646447, 174.853553) rotate(45.000000) translate(-373.646447, -174.853553) "></path>
    </g>
</svg>