<?xml version="1.0" encoding="UTF-8"?>
<svg width="22px" height="24px" viewBox="0 0 22 24" version="1.1" xmlns="http://www.w3.org/2000/svg" xmlns:xlink="http://www.w3.org/1999/xlink">
    <!-- Generator: Sketch 60.1 (88133) - https://sketch.com -->
    <title>关机</title>
    <desc>Created with Sketch.</desc>
    <g id="登录" stroke="none" stroke-width="1" fill="none" fill-rule="evenodd">
        <g id="登录-人脸识别按钮" transform="translate(-891.000000, -806.000000)" fill="#FFFFFF" fill-rule="nonzero">
            <g id="左图" transform="translate(204.000000, 139.000000)">
                <g id="btn" transform="translate(467.000000, 645.000000)">
                    <g id="关机" transform="translate(220.000000, 22.000000)">
                        <path d="M10.9972684,11.7243304 C10.2160417,11.7243304 9.57958778,11.0742188 9.57958778,10.2762277 L9.57958778,1.44810268 C9.57958778,0.650111607 10.2160417,0 10.9972684,0 C11.7784952,0 12.4149491,0.650111607 12.4149491,1.44810268 L12.4149491,10.2762277 C12.4122175,11.0742188 11.7784952,11.7243304 10.9972684,11.7243304 Z M10.9972684,24 C4.93320089,24 0,18.9609375 0,12.7639509 C0,9.11997768 1.74546809,5.69084821 4.67370251,3.58426339 C4.91407996,3.41127232 5.1981624,3.31919643 5.49043953,3.31919643 C5.9520735,3.31919643 6.38366029,3.54799107 6.6486218,3.93303571 C6.86714676,4.24832589 6.95182518,4.63337054 6.88626769,5.01283482 C6.82071021,5.39508929 6.61584306,5.72712054 6.30717656,5.95033482 C4.13285324,7.515625 2.83536131,10.063058 2.83536131,12.7667411 C2.83536131,17.3649554 6.4983859,21.1065848 11,21.1065848 C15.5016141,21.1065848 19.1646387,17.3649554 19.1646387,12.7667411 C19.1646387,10.063058 17.8671468,7.515625 15.6928234,5.95033482 C15.3841569,5.72991071 15.1792898,5.39787946 15.1137323,5.015625 C15.0481748,4.63337054 15.1328532,4.24832589 15.3513782,3.93303571 C15.6163397,3.54799107 16.0506581,3.31919643 16.5095605,3.31919643 C16.8045692,3.31919643 17.08592,3.41127232 17.3262975,3.58705357 C20.2518003,5.69363839 22,9.12276786 22,12.7667411 C21.9972684,18.9609375 17.061336,24 10.9972684,24 L10.9972684,24 Z" id="形状"></path>
                    </g>
                </g>
            </g>
        </g>
    </g>
</svg>