<?xml version="1.0" encoding="UTF-8"?>
<svg width="46px" height="46px" viewBox="0 0 46 46" version="1.1" xmlns="http://www.w3.org/2000/svg" xmlns:xlink="http://www.w3.org/1999/xlink">
    <!-- Generator: Sketch 60.1 (88133) - https://sketch.com -->
    <title>Icon/人脸</title>
    <desc>Created with Sketch.</desc>
    <defs>
        <path d="M24.2,0 L21.3571429,0 L21.3571429,0 C21.1183673,0 20.8829082,0.0873786408 20.7005102,0.265372168 C20.5181122,0.443365696 20.4285714,0.673139159 20.4285714,0.906148867 C20.4285714,1.13915858 20.5181122,1.36893204 20.7005102,1.54692557 C20.8829082,1.72491909 21.1183673,1.81229773 21.3571429,1.81229773 L24.1428571,1.81229773 L24.1428571,4.53074434 C24.1428571,4.76375405 24.232398,4.99352751 24.4147959,5.17152104 C24.5971939,5.34951456 24.8326531,5.4368932 25.0714286,5.4368932 C25.3102041,5.4368932 25.5456633,5.34951456 25.7280612,5.17152104 C25.9104592,4.99352751 26,4.76375405 26,4.53074434 L26,1.8 C26,0.80588745 25.1941125,-1.82615513e-16 24.2,0 Z M24.4147959,14.763754 C24.232398,14.9417476 24.1428571,15.171521 24.1428571,15.4045307 L24.1428571,18.1229773 L21.3571429,18.1229773 C21.1183673,18.1229773 20.8829082,18.210356 20.7005102,18.3883495 C20.6507653,18.4368932 20.6242347,18.4983819 20.5877551,18.5566343 C19.5397959,17.5728155 18.3625,16.763754 17.0591837,16.2265372 C19.7056122,14.6828479 21.3803571,11.7152104 20.8663265,8.38187702 C20.3821429,5.25242718 17.894898,2.63754045 14.7211735,1.99029126 C14.1375,1.87055016 13.5604592,1.81553398 13,1.81553398 C8.60255102,1.81553398 5.04081633,5.29126214 5.04081633,9.58252427 C5.04081633,12.4174757 6.61607143,14.8737864 8.94081633,16.2297735 C7.64081633,16.7669903 6.46020408,17.5760518 5.4122449,18.5598706 C5.37576531,18.5016181 5.34923469,18.4401294 5.2994898,18.3915858 C5.11709184,18.2135922 4.88163265,18.1262136 4.64285714,18.1262136 L1.85714286,18.1262136 L1.85714286,15.407767 C1.85714286,15.1747573 1.76760204,14.9449838 1.58520408,14.7669903 C1.40280612,14.5889968 1.16734694,14.5016181 0.928571429,14.5016181 C0.689795918,14.5016181 0.454336735,14.5889968 0.271938776,14.7669903 C0.0895408163,14.9449838 7.10542736e-15,15.1747573 7.10542736e-15,15.407767 L7.10542736e-15,18.1352751 C0.0014057763,19.1288389 0.806437033,19.9344989 1.79999945,19.9366803 L4.14540816,19.9385113 L4.14540816,19.9385113 C2.59336735,21.8996764 1.51556122,24.3559871 1.17729592,27.1003236 C1.05127551,28.1100324 1.87704082,29 2.91836735,29 L23.0816327,29 C24.1229592,29 24.9454082,28.1067961 24.8227041,27.1003236 C24.4844388,24.3527508 23.4066327,21.8964401 21.8545918,19.9352751 L24.2000005,19.9371061 C25.1941117,19.9392869 26.000628,19.1340288 26.0014041,18.1399166 C26.0014045,18.1394481 26.0014047,18.1389797 26,18.1385113 L26,15.4045307 L26,15.4045307 C26,15.171521 25.9104592,14.9417476 25.7280612,14.763754 C25.5456633,14.5857605 25.3102041,14.4983819 25.0714286,14.4983819 C24.8326531,14.4983819 24.5971939,14.5857605 24.4147959,14.763754 Z M3.03443878,27.2168285 C3.59489796,22.9190939 6.12857143,19.3559871 9.66377551,17.8964401 C10.3071429,17.631068 10.744898,17.0323625 10.7946429,16.3527508 C10.8443878,15.6699029 10.4961735,15.0226537 9.89260204,14.6699029 C8.01887755,13.579288 6.89795918,11.6731392 6.89795918,9.57928803 C6.89795918,6.29449838 9.63392857,3.62459547 13,3.62459547 C13.4443878,3.62459547 13.8954082,3.66990291 14.3397959,3.76375405 C16.7308673,4.25242718 18.6609694,6.26213592 19.0290816,8.65372168 C19.4071429,11.0970874 18.2862245,13.4045307 16.1040816,14.6731392 C15.5038265,15.0226537 15.1556122,15.6731392 15.2020408,16.3559871 C15.2517857,17.038835 15.6862245,17.6343042 16.3329082,17.8996764 C19.8647959,19.3495146 22.3951531,22.9029126 22.9622449,27.184466 L3.03443878,27.2168285 Z M0.928571429,5.4368932 C1.16734694,5.4368932 1.40280612,5.34951456 1.58520408,5.17152104 C1.76760204,4.99352751 1.85714286,4.76375405 1.85714286,4.53074434 L1.85714286,1.81229773 L4.64285714,1.81229773 C4.88163265,1.81229773 5.11709184,1.72491909 5.2994898,1.54692557 C5.48188776,1.36893204 5.57142857,1.13915858 5.57142857,0.906148867 C5.57142857,0.673139159 5.48188776,0.443365696 5.2994898,0.265372168 C5.11709184,0.0873786408 4.88163265,0 4.64285714,0 L1.8,0 C0.80588745,-3.94290921e-17 3.22345535e-16,0.80588745 0,1.8 L0,4.53074434 L0,4.53074434 C0,4.76375405 0.0895408163,4.99352751 0.271938776,5.17152104 C0.454336735,5.34951456 0.689795918,5.4368932 0.928571429,5.4368932 Z" id="path-1"></path>
    </defs>
    <g id="Icon/人脸" stroke="none" stroke-width="1">
        <g id="工卡" transform="translate(10.000000, 9.000000)">
            <mask id="mask-2">
                <use xlink:href="#path-1"></use>
            </mask>
            <use id="形状" xlink:href="#path-1"></use>
            <g id="icon/颜色/黄" mask="url(#mask-2)">
                <g transform="translate(-10.000000, -9.000000)" id="矩形">
                    <rect x="0" y="0" width="46" height="46"></rect>
                </g>
            </g>
        </g>
    </g>
</svg>