<?xml version="1.0" encoding="UTF-8"?>
<svg width="46px" height="46px" viewBox="0 0 46 46" version="1.1" xmlns="http://www.w3.org/2000/svg" xmlns:xlink="http://www.w3.org/1999/xlink">
    <!-- Generator: Sketch 60.1 (88133) - https://sketch.com -->
    <title>Icon/指纹</title>
    <desc>Created with Sketch.</desc>
    <defs>
        <path d="M0.893233175,17.5190018 L0.893233192,17.5190018 C0.491566642,17.5118279 0.156351694,17.2102815 0.106886774,16.81162 C-0.875257978,8.56635431 5.02077472,1.08686714 13.2758208,0.106339054 C21.5277211,-0.872608846 29.0138145,5.01686189 29.994379,13.2637189 L29.994379,13.2637189 C30.0467028,13.709327 29.7278699,14.112977 29.2822448,14.1653007 C28.8366201,14.2176226 28.4329551,13.8988014 28.3806295,13.4531929 C28.3806295,13.4531929 28.3806295,13.4531929 28.3806295,13.4531929 L28.3806295,13.4531929 C27.9692076,9.91465442 26.1587568,6.68793397 23.3530529,4.49266274 L23.3530529,4.49266274 C19.0843628,1.13413942 13.2141136,0.673798952 8.47405232,3.3258173 L8.47405204,3.32581746 C3.73558211,5.97641106 1.06116051,11.2209263 1.69851263,16.6126835 L1.69851266,16.6126837 C1.75716482,17.0535365 1.44731813,17.4584595 1.00645157,17.5171113 C1.00134635,17.5177905 0.996234731,17.5184207 0.99111741,17.5190018 L0.893218984,17.5190018 L0.893233175,17.5190018 Z M12.2462946,29.7795517 L12.2462947,29.7795517 C11.8454682,29.5868377 11.6767634,29.1056903 11.8694827,28.704875 C11.870338,28.7030962 11.8711998,28.7013206 11.8720681,28.6995482 L11.8720679,28.6995486 C13.966263,24.5042902 14.7842512,19.7870161 14.2247899,15.1316171 L14.2247899,15.1316168 C14.1724664,14.685572 14.4916528,14.2815704 14.9377124,14.2292467 C15.3837737,14.1769252 15.7877903,14.4960998 15.8401159,14.9421427 L15.8401156,14.9421402 C16.4365887,19.9090982 15.5637175,24.941928 13.3294915,29.4179558 L13.3294915,29.4179558 C13.1313787,29.8171058 12.6471895,29.980083 12.2480247,29.7819776 C12.2474462,29.7816905 12.246868,29.7814027 12.2462903,29.7811142 L12.2462946,29.7795517 Z M25.0394122,25.7958603 L25.0394121,25.7958603 C24.6110702,25.7048073 24.3340059,25.2881698 24.4157048,24.8579638 C25.1420502,21.2469035 25.288898,17.5458577 24.8515113,13.889009 L24.8515113,13.8890092 C24.6488335,12.1884909 24.0066737,10.5700904 22.9882796,9.19319889 L22.9882796,9.19319884 C22.7209925,8.83653841 22.7934545,8.33073676 23.1501282,8.06345996 C23.5068019,7.79618279 24.0126223,7.86864217 24.2799091,8.2253026 L24.2799091,8.2253026 C25.4600541,9.82223187 26.2054401,11.6981469 26.44315,13.6695353 C26.9010613,17.4969106 26.7478988,21.3716544 25.9883954,25.1516612 L25.9883954,25.1516611 C25.9079755,25.5890649 25.4881839,25.8784605 25.0507602,25.7980451 C25.0469715,25.7973486 25.0431878,25.7966249 25.0394096,25.795874 L25.0394122,25.7958603 Z M3.17015163,24.0953309 L3.17015165,24.0953309 C2.75579135,23.9313693 2.55280605,23.462558 2.71677379,23.0482131 C2.71736313,23.0467238 2.7179569,23.0452363 2.71855509,23.0437506 L2.71855523,23.0437502 C3.57855872,20.9382053 3.88935207,18.648656 3.62174708,16.3900664 L3.6217467,16.3900632 C3.11688328,12.1482874 5.01023581,7.9772314 8.53563464,5.56476816 L8.53563593,5.56476728 C12.0614937,3.15078308 16.6354703,2.89171805 20.4113617,4.89213449 L20.4113617,4.89213452 C20.8050975,5.10054966 20.9553241,5.58867731 20.7469009,5.98239841 C20.538478,6.37611952 20.0503322,6.52634059 19.6565965,6.31792509 L19.6565974,6.31792558 C16.4113789,4.60277488 12.4828147,4.82774198 9.45463342,6.9021347 L9.45463275,6.90213516 C6.4279059,8.97478856 4.80194742,12.5562325 5.23394204,16.1989817 L5.2339419,16.1989805 C5.53439744,18.7297244 5.18665601,21.2953138 4.22337869,23.6547835 L4.22337868,23.6547835 C4.0552172,24.0674446 3.58435379,24.2656559 3.17167736,24.0975014 C3.17117802,24.0972979 3.17067888,24.097094 3.17017995,24.0968895 L3.17015163,24.0953309 Z M16.1496046,29.9342765 L16.1496046,29.9342765 C15.7397222,29.7594175 15.5492049,29.2854056 15.7240715,28.8755385 C15.7248512,28.8737111 15.7256376,28.8718865 15.7264308,28.8700648 L15.7264306,28.8700653 C17.6395935,24.4142431 18.3459249,19.5332886 17.7744063,14.7179468 L17.7744063,14.7179467 C17.6218974,13.2056664 16.272273,12.1033531 14.7599402,12.2558575 C14.2572343,12.3065503 13.778184,12.4946436 13.3752888,12.7995222 C12.5810486,13.399522 12.1720841,14.3784736 12.3047208,15.3637385 C12.4357784,16.4721616 12.4831487,17.5900583 12.4468316,18.7063749 L12.4468316,18.7063746 C12.4324428,19.1524194 12.0591763,19.5023431 11.6131149,19.4879549 C11.1670536,19.4735666 10.8171168,19.100314 10.8315055,18.6542692 L10.8315054,18.6542724 C10.8651389,17.619289 10.821331,16.5832436 10.7004482,15.5547919 L10.7004482,15.5547916 C10.4995979,13.9977629 11.1508543,12.4528946 12.4057777,11.5095212 L12.4057778,11.5095211 C14.3372856,10.060352 17.0779293,10.451305 18.5271264,12.3827411 C18.9964436,13.0082163 19.2894139,13.7481086 19.3755131,14.5253148 L19.3755133,14.525317 C19.9829556,19.625721 19.2357392,24.7961045 17.2091119,29.515858 L17.2091119,29.515858 C17.0315226,29.9225018 16.5588884,30.1094335 16.1511747,29.9342811 L16.1496046,29.9342765 Z M8.76931709,28.705852 L8.76931709,28.705852 C8.38065886,28.4984453 8.23080229,28.0172397 8.4329882,27.62585 C9.18301865,26.2205856 9.76567293,24.7332145 10.1698967,23.1921578 L10.1698967,23.1921579 C10.2957466,22.76378 10.7450495,22.5185296 11.1734432,22.6443744 C11.5844247,22.7651052 11.8299026,23.1854264 11.7331155,23.6026837 L11.733115,23.6026855 C11.2966202,25.2636658 10.6681537,26.868163 9.86041298,28.383759 L9.860413,28.383759 C9.64715724,28.7728654 9.15971794,28.9167657 8.76931664,28.7058648 L8.76931709,28.705852 Z M21.3098179,14.3152997 L21.3161339,14.305826 L21.316134,14.3058273 C20.9025694,10.837916 17.755907,8.36185684 14.2878669,8.77540611 C13.8670561,8.82558601 13.4523553,8.9179372 13.0500226,9.05106676 L13.0500227,9.05106674 C12.6173767,9.16487883 12.1743796,8.90642442 12.0605614,8.47379268 C11.9575281,8.08214765 12.1595849,7.67459346 12.5336868,7.5194838 L12.5336871,7.5194837 C14.7951991,6.77021015 17.2736373,7.0756556 19.2855413,8.35158923 L19.2855411,8.3515891 C21.296235,9.62681221 22.6273247,11.7381561 22.9109467,14.1021258 L22.9109467,14.1021258 C22.964903,14.542231 22.6529117,14.9431462 22.2130236,14.9989707 L22.1072299,14.9989707 L22.1072299,14.9989707 C21.7091679,14.9989707 21.3705926,14.7086673 21.3098292,14.3152841 L21.3098179,14.3152997 Z M20.438205,28.8700504 L20.438205,28.8700504 C20.013723,28.7344259 19.7795621,28.2803829 19.9151928,27.8559166 C19.9153132,27.8555399 19.9154339,27.8551632 19.9155548,27.8547867 L19.9155552,27.8547856 C20.8756246,24.9792175 21.4081701,21.9782412 21.4961418,18.9479151 L21.4961418,18.9479146 C21.5096591,18.5018698 21.8822206,18.1512392 22.3282783,18.1647541 C22.7743396,18.1782708 23.1249832,18.5508185 23.1114679,18.9968596 L23.1114689,18.9968257 C23.0164216,22.1799042 22.4551724,25.3318454 21.4456269,28.3521057 L21.4456269,28.3521057 C21.3071466,28.7704066 20.858676,29.0002586 20.4382205,28.8684224 L20.438205,28.8700504 Z M5.7502768,26.8268876 L5.75027675,26.8268876 C5.35392826,26.6251259 5.19618897,26.1402737 5.39795633,25.7439362 C5.39906621,25.7417561 5.40018602,25.739581 5.40131572,25.7374111 L5.40131622,25.7374101 C6.95518308,22.7314861 7.56968275,19.3279331 7.16507036,15.9684328 L7.16507053,15.9684342 C6.94988036,14.1314428 7.38389451,12.2770361 8.39196042,10.7263318 L8.39196046,10.7263318 C8.65308239,10.3652413 9.15749727,10.2841912 9.51859933,10.5453053 C9.85441122,10.7881292 9.95166348,11.2458522 9.74359107,11.6042282 L9.74359081,11.6042286 C8.94314804,12.8411906 8.60072023,14.3192101 8.77565714,15.7821309 C9.21778086,19.4610837 8.54196371,23.1874197 6.83821326,26.4779396 L6.83821324,26.4779397 C6.63457661,26.8742993 6.1481728,27.0305377 5.75179839,26.8269094 C5.75076404,26.826378 5.74973083,26.8258444 5.74869878,26.8253085 L5.7502768,26.8268876 Z" id="path-1"></path>
    </defs>
    <g id="Icon/指纹" stroke="none" stroke-width="1">
        <g id="工卡" transform="translate(8.000000, 8.000000)">
            <mask id="mask-2">
                <use xlink:href="#path-1"></use>
            </mask>
            <use id="形状" xlink:href="#path-1"></use>
            <g id="icon/颜色/红" mask="url(#mask-2)">
                <g transform="translate(-8.000000, -8.000000)" id="矩形">
                    <rect x="0" y="0" width="46" height="46"></rect>
                </g>
            </g>
        </g>
    </g>
</svg>