<?xml version="1.0" encoding="UTF-8"?>
<svg width="36px" height="36px" viewBox="0 0 36 36" version="1.1" xmlns="http://www.w3.org/2000/svg" xmlns:xlink="http://www.w3.org/1999/xlink">
    <!-- Generator: Sketch 60.1 (88133) - https://sketch.com -->
    <title>881E3D45-77CC-4CD4-A103-67763AA52117</title>
    <desc>Created with Sketch.</desc>
    <defs>
        <path d="M27.4741568,11.4017364 L18.0015195,21.1452145 L8.63192541,11.5092694 C8.07124177,10.8747412 7.11525756,10.8265961 6.49667607,11.4017353 C6.19806013,11.6793798 6.0198917,12.0678466 6.00174854,12.4808438 C5.98245078,12.8925403 6.12351382,13.2952172 6.39385699,13.6001507 L16.9818376,24.5958676 C17.2782836,24.8740764 17.6703921,25.0185722 18.0719617,24.9980843 C18.4689969,24.9797199 18.8429551,24.8014824 19.1126776,24.5020527 L29.6060516,13.6001358 C29.8768412,13.2959096 30.0179937,12.8933635 29.9981599,12.4819092 C29.9646163,11.6760763 29.3356121,11.0406873 28.5651073,11.0032689 L28.4160591,11.0035192 C28.065605,11.0205029 27.7328581,11.1621517 27.4741568,11.4017364 Z" id="path-1"></path>
    </defs>
    <g id="组件" stroke="none" stroke-width="1" fill="none" fill-rule="evenodd">
        <g id="icon/Down">
            <mask id="mask-2" fill="white">
                <use xlink:href="#path-1"></use>
            </mask>
            <use id="路径" fill-opacity="0.8" fill="#181D41" fill-rule="nonzero" xlink:href="#path-1"></use>
            <g id="icon/颜色/灰" mask="url(#mask-2)" fill="#C3C6D5">
                <rect id="矩形" x="0" y="0" width="36" height="36"></rect>
            </g>
        </g>
    </g>
</svg>