<?xml version="1.0" encoding="UTF-8"?>
<svg width="18px" height="12px" viewBox="0 0 18 12" version="1.1" xmlns="http://www.w3.org/2000/svg" xmlns:xlink="http://www.w3.org/1999/xlink">
    <!-- Generator: Sketch 60.1 (88133) - https://sketch.com -->
    <title>Icon/Right</title>
    <desc>Created with Sketch.</desc>
    <defs>
        <path d="M26.6086957,13.4587875 C26.6086957,13.664535 26.5368931,13.8724256 26.3932881,14.0460251 L18.7440747,23.1289188 C18.5578369,23.3496687 18.2773582,23.4782609 17.978929,23.4782609 C17.6827435,23.4782609 17.4000211,23.3496687 17.2160271,23.1289188 L9.60720264,14.0846027 C9.26838445,13.6816806 9.33569932,13.0922998 9.75753919,12.7686762 C10.1793791,12.4450525 10.7964321,12.5093486 11.1352502,12.9122707 L17.9811728,21.0478688 L24.8652404,12.8715499 C25.2040586,12.4686278 25.8211116,12.4043317 26.2429515,12.7279553 C26.4830412,12.9144139 26.6086957,13.1844575 26.6086957,13.4587875 Z" id="path-1"></path>
    </defs>
    <g id="盘点" stroke="none" stroke-width="1" fill="none" fill-rule="evenodd">
        <g id="账实不符-展开" transform="translate(-1553.000000, -543.000000)">
            <g id="列表-称重" transform="translate(0.000000, 436.000000)">
                <g id="icon/Down" transform="translate(1562.000000, 113.000000) scale(1, -1) translate(-1562.000000, -113.000000) translate(1544.000000, 95.000000)">
                    <mask id="mask-2" fill="white">
                        <use xlink:href="#path-1"></use>
                    </mask>
                    <g id="Mask" fill-rule="nonzero"></g>
                    <g id="icon/颜色/蓝" mask="url(#mask-2)" fill="#5474E5" fill-rule="evenodd">
                        <rect id="矩形" x="0" y="0" width="36" height="36"></rect>
                    </g>
                </g>
            </g>
        </g>
    </g>
</svg>