<?xml version="1.0" encoding="UTF-8"?>
<svg width="46px" height="46px" viewBox="0 0 46 46" version="1.1" xmlns="http://www.w3.org/2000/svg" xmlns:xlink="http://www.w3.org/1999/xlink">
    <!-- Generator: Sketch 60.1 (88133) - https://sketch.com -->
    <title>Icon/Password备份 5</title>
    <desc>Created with Sketch.</desc>
    <g id="Icon/Password备份-5" stroke="none" stroke-width="1" fill="none" fill-rule="evenodd">
        <g id="眼睛" transform="translate(1.000000, 13.000000)" fill="#8B92AC" fill-rule="nonzero">
            <path d="M22.009092,10.4740273 C14.0890828,10.4740273 6.19107361,8.07602452 0.559067057,3.28001894 C-0.122933737,2.68601825 -0.188933814,1.67401708 0.405066878,0.992016282 C0.999067569,0.310015488 2.03306877,0.244015411 2.69306954,0.838016102 C12.6150811,9.37402604 31.4031029,9.37402604 41.3031145,0.838016102 C41.9851153,0.244015411 42.9971164,0.310015488 43.5911171,0.992016282 C44.1851178,1.67401708 44.1191177,2.68601825 43.437117,3.28001894 C37.8271104,8.07602452 29.9291012,10.4740273 22.009092,10.4740273 Z M16.1350852,17.5580356 L15.8490848,17.5580356 C15.4090843,17.4920355 15.0130839,17.2500352 14.7490836,16.8760348 C14.4850833,16.5020343 14.3970832,16.0400338 14.5070833,15.6220333 L15.5850845,9.33002598 C15.7390847,8.45002496 16.5750857,7.85602427 17.4770867,8.01002445 C18.3570878,8.16402463 18.9510885,9.0000256 18.7970883,9.88002662 L17.719087,16.1720339 C17.6090869,16.9640349 16.9270861,17.5580356 16.1350852,17.5580356 L16.1350852,17.5580356 Z M40.2471132,14.3460318 C39.8291128,14.3460318 39.4111123,14.1700316 39.1031119,13.8620313 L33.8231058,8.51602504 C33.163105,7.94402437 33.0751049,6.93202319 33.6471056,6.27202243 C33.8671058,6.00802212 34.1751062,5.83202191 34.5051066,5.76602184 C35.0991072,5.63402168 35.715108,5.83202191 36.0891084,6.29402245 L41.3691145,11.6400287 C41.9851153,12.2560294 41.9851153,13.2680306 41.3691145,13.9060313 C41.0831142,14.1700316 40.6651137,14.3460318 40.2471132,14.3460318 Z M3.77107079,14.3460318 C3.37507033,14.3240318 3.0010699,14.1700316 2.69306954,13.8840313 C2.07706882,13.2680306 2.0550688,12.2560294 2.69306954,11.6180286 L7.97307568,6.27202243 C8.47907627,5.54602158 9.49107745,5.37002138 10.2170783,5.87602196 C10.5470787,6.11802225 10.789079,6.47002266 10.8770791,6.86602312 C11.0090792,7.50402386 10.7230789,8.1420246 10.1950783,8.49402501 L4.91507213,13.8400312 C4.62907179,14.1700316 4.21107131,14.3460318 3.77107079,14.3460318 Z M27.971099,17.5580356 C27.2010981,17.5580356 26.5410973,17.0080349 26.3870971,16.238034 L25.3090959,9.9460267 C25.1110956,9.35202601 25.2650958,8.71402527 25.7270963,8.27402476 C26.1890969,7.85602427 26.8490976,7.72402412 27.4210983,7.94402437 C27.993099,8.16402463 28.3890994,8.71402527 28.4330995,9.33002598 L29.5111007,15.6220333 C29.5991008,16.0400338 29.4891007,16.4800343 29.2471004,16.8320347 C29.0051002,17.1840351 28.6310997,17.4260354 28.2130992,17.4920355 C28.1250991,17.5140355 28.0590991,17.5360355 27.971099,17.5580356 L27.971099,17.5580356 Z" id="形状"></path>
        </g>
    </g>
</svg>