<?xml version="1.0" encoding="UTF-8"?>
<svg width="16px" height="18px" viewBox="0 0 16 18" version="1.1" xmlns="http://www.w3.org/2000/svg" xmlns:xlink="http://www.w3.org/1999/xlink">
    <!-- Generator: Sketch 60.1 (88133) - https://sketch.com -->
    <title>Icon/Password</title>
    <desc>Created with Sketch.</desc>
    <defs>
        <path d="M16.7934957,9.83298708 L16.7934957,8.18335034 C16.7923798,5.51053557 14.6252354,3.65217391 11.999442,3.65217391 C9.37476461,3.65217391 7.2065043,5.51053557 7.2065043,8.18335034 L7.2065043,9.71598754 L5.83725294,9.71598754 C5.15206929,9.71598754 4.69565217,10.2975775 4.69565217,10.8791675 L4.69565217,19.7086571 C4.69565217,20.4049748 5.26589459,20.8695652 5.83725294,20.8695652 L18.1627471,20.8695652 C18.8479307,20.8695652 19.3043478,20.2902471 19.3043478,19.7086571 L19.3043478,10.996167 C19.3043478,10.2987134 18.8468148,9.834123 18.1627471,9.834123 L16.7934957,9.83298708 Z M12.6857416,17.6162964 C12.6857416,17.73216 12.5719163,17.73216 12.5719163,17.73216 L11.5452568,17.73216 C11.4303156,17.73216 11.4303156,17.6162964 11.4303156,17.6162964 L11.4303156,15.6409352 C10.8600731,15.409208 10.5174813,14.9446175 10.5174813,14.3630276 C10.5174813,13.5497104 11.202665,12.8522568 12.0016739,12.8522568 C12.7995669,12.8522568 13.4847506,13.5497104 13.4847506,14.3630276 C13.4847506,14.9446175 13.1421587,15.408072 12.6857416,15.6409352 L12.6857416,17.6162964 Z M9.03217278,9.834123 L9.03217278,8.0663508 C9.03217278,6.67257956 10.4025401,5.51053557 12.000558,5.51053557 C13.5974599,5.51053557 14.9667113,6.67257956 14.9667113,8.0663508 L14.9667113,9.834123 L9.03217278,9.834123 Z" id="path-1"></path>
    </defs>
    <g id="设置+联系帮助" stroke="none" stroke-width="1" fill="none" fill-rule="evenodd">
        <g id="单元管控-抽屉柜12B-3x4" transform="translate(-376.000000, -555.000000)">
            <g id="抽屉/层" transform="translate(240.000000, 109.000000)">
                <g id="抽屉/层备份">
                    <g id="抽屉/层-已开锁备份" transform="translate(0.000000, 314.000000)">
                        <g id="Icon/Password" transform="translate(132.000000, 129.000000)">
                            <mask id="mask-2" fill="white">
                                <use xlink:href="#path-1"></use>
                            </mask>
                            <use id="形状" fill="#C3C6D5" fill-rule="nonzero" xlink:href="#path-1"></use>
                            <g id="icon/颜色/白" mask="url(#mask-2)" fill="#FFFFFF" fill-rule="evenodd">
                                <rect id="矩形" x="0" y="0" width="24" height="24"></rect>
                            </g>
                        </g>
                    </g>
                </g>
            </g>
        </g>
    </g>
</svg>