<?xml version="1.0" encoding="UTF-8"?>
<svg width="240px" height="37px" viewBox="0 0 240 37" version="1.1" xmlns="http://www.w3.org/2000/svg" xmlns:xlink="http://www.w3.org/1999/xlink">
    <!-- Generator: Sketch 60 (88103) - https://sketch.com -->
    <title>ECED39CE-2144-4F09-BA49-8AF800A861CA</title>
    <desc>Created with Sketch.</desc>
    <g id="登录" stroke="none" stroke-width="1" fill="none" fill-rule="evenodd">
        <g id="登录-无人脸识别" transform="translate(-60.000000, -60.000000)" fill="#FFFFFF">
            <g id="logo备份" transform="translate(60.000000, 60.000000)">
                <path d="M235.312736,27.0922326 C235.312736,29.5940751 233.215023,31.6197711 230.630188,31.6197711 L221.24794,31.6197711 C218.66139,31.6197711 216.565393,29.5940751 216.565393,27.0922326 L216.565393,18.0172472 C216.565393,15.5154047 218.66139,13.4880497 221.24794,13.4880497 L230.630188,13.4880497 C233.215023,13.4880497 235.312736,15.5154047 235.312736,18.0172472 L235.312736,27.0922326 Z M239.086217,0 L236.273258,0 C235.751832,0 235.329888,0.408125488 235.329888,0.912475686 L235.329888,10.1865467 C233.904541,9.378591 232.280228,8.95553409 230.630188,8.95885219 L221.24794,8.95885219 C216.079986,8.96714742 211.893137,13.0185395 211.882845,18.0172472 L211.882845,27.0922326 C211.882845,32.0959175 216.07484,36.1506276 221.24794,36.1506276 L230.630188,36.1506276 C235.801573,36.1506276 239.993568,32.0959175 239.993568,27.0922326 L239.993568,23.8570916 C240.002144,23.7857526 240.002144,23.7127545 239.993568,23.6414155 L239.993568,0.912475686 C240.003859,0.418079769 239.597352,0.00829523351 239.086217,0 L239.086217,0 Z" id="Fill-1"></path>
                <path d="M91.7869606,27.0839107 C91.7783831,29.5830699 89.6854649,31.6089663 87.1036273,31.6156086 L77.6683405,31.6156086 C75.0813564,31.6538017 72.9541281,29.6544744 72.9163869,27.1503336 C72.9163869,27.1270856 72.9163869,27.1071587 72.9163869,27.0839107 L72.9163869,18.0005881 C72.9163869,15.4964473 75.0127361,13.4672297 77.5997202,13.4672297 L86.9835419,13.4672297 C89.5688105,13.4024674 91.7183403,15.3802073 91.7852451,17.8826876 C91.7869606,17.9208807 91.7869606,17.9607344 91.7869606,18.0005881 L91.7869606,27.0839107 Z M87.0521621,8.93387123 L77.6683405,8.93387123 C76.000868,8.9239078 74.3608436,9.34237166 72.9163869,10.146088 L72.9163869,0.913313973 C72.9163869,0.408500431 72.4943723,0 71.9728582,0 L69.2280475,0 C68.7065335,0 68.2845188,0.408500431 68.2845188,0.913313973 L68.2845188,27.0839107 C68.2845188,32.0921924 72.4789327,36.1506276 77.6511854,36.1506276 L87.0350071,36.1506276 C92.2038287,36.1406642 96.3930961,32.0872107 96.4016736,27.0839107 L96.4016736,18.0005881 C96.4016736,12.9989487 92.2175528,8.94217408 87.0521621,8.93387123 L87.0521621,8.93387123 Z" id="Fill-3"></path>
                <path d="M122.848054,26.7668148 C122.848054,29.3640895 120.74313,31.4672987 118.147572,31.4672987 L108.780918,31.4672987 C106.192222,31.4570057 104.097591,29.3572274 104.097591,26.7668148 L104.097591,17.4001569 C104.097591,14.8131753 106.193937,12.716828 108.780918,12.716828 L118.147572,12.716828 C120.736268,12.716828 122.837761,14.8114598 122.848054,17.4001569 L122.848054,26.7668148 Z M118.147572,8.03348595 L108.780918,8.03348595 C103.61725,8.02492161 99.4228413,12.2021765 99.4142448,17.3658468 L99.4142448,17.4001569 L99.4142448,26.7668148 C99.4039707,31.9407781 103.589801,36.1420501 108.763763,36.1506276 L108.780918,36.1506276 L118.147572,36.1506276 C123.33011,36.1506276 127.531381,31.9493556 127.531381,26.7668148 L127.531381,17.4001569 C127.531381,12.2261936 123.336973,8.03348595 118.164727,8.03348595 L118.147572,8.03348595 Z" id="Fill-5"></path>
                <path d="M187.493273,17.399785 C187.503522,14.8111834 189.596079,12.7166026 192.173767,12.7166026 L201.517673,12.7166026 C204.093653,12.7080517 206.189626,14.7957444 206.198167,17.3826306 L206.198167,17.399785 L187.493273,17.399785 Z M201.483509,8.0334728 L192.088356,8.0334728 C186.938105,8.0334728 182.761519,12.2260126 182.761519,17.399785 L182.761519,17.4169395 L182.761519,26.7832517 C182.752991,31.9467315 186.912482,36.1409867 192.0559,36.1495639 L192.088356,36.1495639 L201.41518,36.1495639 C206.56714,36.2267588 210.8035,32.0925441 210.876953,26.9222025 C210.878661,26.8741701 210.878661,26.8295686 210.878661,26.7832517 L210.878661,25.3937438 C210.878661,24.8722495 210.458442,24.4502508 209.940854,24.4502508 L207.137682,24.4502508 C206.625219,24.458828 206.215249,24.8791113 206.215249,25.3937438 L206.215249,26.7660973 C206.206708,29.3564144 204.112443,31.4492534 201.536463,31.4492534 L192.088356,31.4492534 C189.514085,31.4492534 187.424944,29.3529835 187.424944,26.7660973 L187.424944,22.1000956 L209.819571,22.1000956 C210.338867,22.1000956 210.759086,21.6780969 210.759086,21.1566026 L210.759086,17.4169395 C210.759086,12.2603214 206.616678,8.07121252 201.483509,8.0334728 L201.483509,8.0334728 Z" id="Fill-7"></path>
                <path d="M65.3152791,8.05062786 L62.5361775,8.05062786 C62.014667,8.05062786 61.5926553,8.47264222 61.5926553,8.99415591 L61.5926553,26.7839484 C61.5926553,29.3709307 59.4963206,31.4672785 56.9093544,31.4672785 L47.5427526,31.4672785 C44.9540709,31.4672785 42.8508742,29.3743617 42.8422967,26.7839484 L42.8422967,8.97700085 C42.8422967,8.46234919 42.430578,8.04376584 41.9159295,8.0334728 L39.102518,8.0334728 C38.5878695,8.0334728 38.1675733,8.44519413 38.1589958,8.9598458 L38.1589958,26.7839484 C38.1589958,31.9579131 42.3533807,36.1506276 47.5255976,36.1506276 L47.5427526,36.1506276 L56.9093544,36.1506276 C62.0729939,36.1609017 66.2673787,31.9819302 66.2761506,26.8182585 L66.2761506,26.7839484 L66.2761506,8.97700085 C66.2862492,8.47607323 65.8865389,8.05920539 65.3856144,8.05062786 C65.3615975,8.04891235 65.339296,8.04891235 65.3152791,8.05062786" id="Fill-9"></path>
                <path d="M174.893993,5.1182566 L169.057796,5.0209205 L154.823168,23.2065486 C154.517914,23.5861593 153.970672,23.6413165 153.59899,23.329841 C153.554704,23.2925288 153.513582,23.2503498 153.477204,23.2065486 L139.354872,5.06958855 L133.407961,5.06958855 C132.933473,5.07769989 132.552301,5.47515564 132.552301,5.96183614 L132.552301,35.1626662 C132.552301,35.6493467 132.933473,36.0451802 133.407961,36.0549138 L136.001826,36.0549138 C136.481059,36.0549138 136.870138,35.6558358 136.870138,35.1626662 L136.870138,9.43349038 L153.445572,30.8312097 C153.750826,31.2108205 154.29965,31.2675999 154.671332,30.9528799 C154.715617,30.91719 154.755158,30.875011 154.791535,30.8312097 L171.398601,9.53082648 L171.398601,35.2600023 C171.398601,35.7515496 171.787681,36.1506276 172.268495,36.1506276 L174.860779,36.1506276 C175.341593,36.1506276 175.730673,35.7515496 175.730673,35.2600023 L175.730673,6.05917224 C175.759142,5.56600266 175.390623,5.14583516 174.911391,5.1182566 C174.905064,5.1182566 174.898738,5.1182566 174.893993,5.1182566" id="Fill-11"></path>
                <path d="M31.271175,5.03720173 L28.6992228,5.03720173 C28.2287437,5.04534234 27.8523605,5.44423242 27.8523605,5.93266925 L27.8523605,30.4684792 L8.31179677,5.0209205 L0.862544948,5.0209205 C0.385792831,5.0209205 0,5.4214387 0,5.91638802 L0,5.93266925 L0,35.2388789 C0,35.7338282 0.385792831,36.1343464 0.862544948,36.1343464 L3.43449715,36.1343464 C3.90497622,36.1245777 4.28135947,35.7273157 4.28135947,35.2388789 L4.28135947,9.46569563 L5.92803618,9.46569563 L26.409558,36.1506276 L31.271175,36.1506276 C31.7479271,36.1506276 32.1338912,35.7501094 32.1338912,35.2551601 L32.1338912,5.94895047 C32.1431295,5.45400116 31.7636098,5.04697047 31.2868576,5.03720173 L31.271175,5.03720173 Z" id="Fill-13"></path>
            </g>
        </g>
    </g>
</svg>