<?xml version="1.0" encoding="UTF-8"?>
<svg width="46px" height="46px" viewBox="0 0 46 46" version="1.1" xmlns="http://www.w3.org/2000/svg" xmlns:xlink="http://www.w3.org/1999/xlink">
    <!-- Generator: Sketch 60.1 (88133) - https://sketch.com -->
    <title>6F6AEA69-900F-4AE6-A2C9-57ADEB48740E</title>
    <desc>Created with Sketch.</desc>
    <defs>
        <path d="M31.2142873,10 C31.6482261,10 32,10.3469794 32,10.7749988 L32,15.8000114 C32,16.0761537 31.7761424,16.3000114 31.5,16.3000114 L29.3791443,16.3000114 C29.1030019,16.3000114 28.8791443,16.0761537 28.8791443,15.8000114 L28.8791443,13.099999 L13.1428656,13.099999 L21.8837717,15.9739033 C22.2941008,16.1088145 22.5714328,16.4919353 22.5714328,16.923874 L22.5714328,31.7000107 L28.8791443,31.7000107 L28.8791443,28.5500105 C28.8791443,28.2738681 29.1030019,28.0500105 29.3791443,28.0500105 L31.5,28.0500105 C31.7761424,28.0500105 32,28.2738681 32,28.5500105 L32,34.0249888 C32,34.4530104 31.6482128,34.7999876 31.2142762,34.7999876 L22.5714106,34.7999876 L22.5714106,39.4141334 C22.5714106,39.9664182 22.1236954,40.4141334 21.5714106,40.4141334 C21.4222575,40.4141334 21.2749933,40.3807685 21.1404051,40.3164827 L10.5689944,35.2670668 C10.2213379,35.1010093 10,34.7499969 10,34.3647176 L10,10.7749987 C10,10.3469772 10.3517762,10 10.7857127,10 L31.2142873,10 Z M36.0750104,15.5213558 C36.1860707,15.5213558 36.2939702,15.558332 36.3816867,15.6264511 L42.4914913,20.371222 C42.7095911,20.5405946 42.7490923,20.854703 42.5797197,21.0728029 C42.5541109,21.1057791 42.5244725,21.1354179 42.4914966,21.1610272 L36.3816919,25.9059283 C36.1635944,26.0753038 35.8494854,26.0358068 35.6801098,25.8177092 C35.6119881,25.7299918 35.5750104,25.6220903 35.5750104,25.5110277 L35.5750104,23.2374008 C32.4887786,23.0036859 29.7758708,23.2727785 27.9602725,25.2231066 C27.0636857,26.1860032 25.9833473,28.0938503 25.7246849,28.6561154 C25.6880596,28.7350822 25.6204542,28.881718 25.4574082,28.9370798 L25.2604326,29 L25.1141073,28.8746147 C24.9599686,28.7425812 24.866618,28.6626647 25.4853802,26.0805031 C26.5576122,21.6109336 30.8118291,18.7258449 35.5750104,18.2949603 L35.5750104,16.0213558 C35.5750104,15.7452134 35.798868,15.5213558 36.0750104,15.5213558 Z" id="path-1"></path>
    </defs>
    <g id="组件" stroke="none" stroke-width="1" fill="none" fill-rule="evenodd">
        <g id="icon/退出">
            <mask id="mask-2" fill="white">
                <use xlink:href="#path-1"></use>
            </mask>
            <use id="形状结合" fill="#FFFFFF" fill-rule="nonzero" xlink:href="#path-1"></use>
            <g id="icon/颜色/白" mask="url(#mask-2)" fill="#FFFFFF">
                <g transform="translate(0.071902, 0.000000)" id="矩形">
                    <rect x="0" y="0" width="46" height="46"></rect>
                </g>
            </g>
        </g>
    </g>
</svg>