<?xml version="1.0" encoding="UTF-8"?>
<svg width="216px" height="24px" viewBox="0 0 216 24" version="1.1" xmlns="http://www.w3.org/2000/svg" xmlns:xlink="http://www.w3.org/1999/xlink">
    <!-- Generator: Sketch 60.1 (88133) - https://sketch.com -->
    <title>logo</title>
    <desc>Created with Sketch.</desc>
    <defs>
        <polygon id="path-1" points="0 24 216 24 216 0 0 0"></polygon>
    </defs>
    <g id="组件" stroke="none" stroke-width="1" fill="none" fill-rule="evenodd">
        <g id="img/登录" transform="translate(-70.000000, -667.000000)">
            <g id="logo" transform="translate(70.000000, 667.000000)">
                <path d="M155.999314,17.9862322 C155.999314,19.6471776 154.656403,20.9920147 153.001647,20.9920147 L146.995333,20.9920147 C145.339479,20.9920147 143.997667,19.6471776 143.997667,17.9862322 L143.997667,11.9614502 C143.997667,10.3005048 145.339479,8.95456631 146.995333,8.95456631 L153.001647,8.95456631 C154.656403,8.95456631 155.999314,10.3005048 155.999314,11.9614502 L155.999314,17.9862322 Z M158.415016,0 L156.61422,0 C156.280414,0 156.010294,0.270949977 156.010294,0.605782469 L156.010294,6.7627352 C155.097818,6.22634236 154.057968,5.94547958 153.001647,5.94768242 L146.995333,5.94768242 C143.68692,5.95318954 141.006588,8.6428637 141,11.9614502 L141,17.9862322 C141,21.308123 143.683625,24 146.995333,24 L153.001647,24 C156.312257,24 158.995882,21.308123 158.995882,17.9862322 L158.995882,15.838458 C159.001373,15.7910968 159.001373,15.7426342 158.995882,15.6952731 L158.995882,0.605782469 C159.002471,0.277558513 158.742234,0.00550711335 158.415016,0 L158.415016,0 Z" id="Fill-1" fill="#FFFFFF"></path>
                <path d="M61.0457596,17.9807074 C61.0402685,19.6398714 59.7004271,20.9848415 58.04759,20.9892513 L52.0073215,20.9892513 C50.3511897,21.0146073 48.9893838,19.6872761 48.9652227,18.0248048 C48.9652227,18.0093707 48.9652227,17.9961415 48.9652227,17.9807074 L48.9652227,11.9503904 C48.9652227,10.2879192 50.3072605,8.94074414 51.9633923,8.94074414 L57.9707138,8.94074414 C59.6257474,8.8977492 61.0018304,10.2107487 61.0446614,11.8721176 C61.0457596,11.8974736 61.0457596,11.923932 61.0457596,11.9503904 L61.0457596,17.9807074 Z M58.0146431,5.93109784 L52.0073215,5.93109784 C50.9398414,5.92448323 49.8899329,6.20229674 48.9652227,6.73587506 L48.9652227,0.606338999 C48.9652227,0.271198898 48.695058,0 48.3611959,0 L46.6040268,0 C46.2701647,0 46,0.271198898 46,0.606338999 L46,17.9807074 C46,21.30565 48.6851739,24 51.9963392,24 L58.0036608,24 C61.3126297,23.9933854 63.9945088,21.3023427 64,17.9807074 L64,11.9503904 C64,8.6298576 61.3214155,5.93661001 58.0146431,5.93109784 L58.0146431,5.93109784 Z" id="Fill-3" fill="#FFFFFF"></path>
                <path d="M82.0018344,17.9926785 C82.0018344,19.6553973 80.6543072,21.0018262 78.9926865,21.0018262 L72.9963554,21.0018262 C71.3391276,20.9952368 69.9981898,19.6510044 69.9981898,17.9926785 L69.9981898,11.9963477 C69.9981898,10.3402182 71.3402258,8.99818226 72.9963554,8.99818226 L78.9926865,8.99818226 C80.6499143,8.99818226 81.995245,10.33912 82.0018344,11.9963477 L82.0018344,17.9926785 Z M78.9926865,6.00000842 L72.9963554,6.00000842 C69.6906856,5.99452571 67.0055154,8.66871354 67.0000121,11.9743831 L67.0000121,11.9963477 L67.0000121,17.9926785 C66.9934348,21.3049374 69.673114,23.9945004 72.9853731,23.9999916 L72.9963554,23.9999916 L78.9926865,23.9999916 C82.3104368,23.9999916 85,21.3104286 85,17.9926785 L85,11.9963477 C85,8.68408874 82.3148297,6.00000842 79.0036688,6.00000842 L78.9926865,6.00000842 Z" id="Fill-5" fill="#FFFFFF"></path>
                <path d="M124.029174,11.9961124 C124.035736,10.3389451 125.375345,8.99803933 127.025525,8.99803933 L133.00729,8.99803933 C134.656377,8.99256525 135.998173,10.3290614 136.003641,11.9851305 L136.003641,11.9961124 L124.029174,11.9961124 Z M132.985419,6 L126.970847,6 C123.673768,6 121.000008,8.68397412 121.000008,11.9961124 L121.000008,12.0070943 L121.000008,18.0032067 C120.994549,21.3087558 123.657364,23.9938281 126.950069,23.999319 L126.970847,23.999319 L132.941677,23.999319 C136.23985,24.0487376 138.951875,21.4021019 138.998898,18.09216 C138.999992,18.0614107 138.999992,18.0328578 138.999992,18.0032067 L138.999992,17.1136735 C138.999992,16.779824 138.730976,16.5096695 138.399628,16.5096695 L136.605098,16.5096695 C136.277031,16.5151605 136.014577,16.7842168 136.014577,17.1136735 L136.014577,17.9922248 C136.009109,19.6504903 134.668406,20.990281 133.01932,20.990281 L126.970847,20.990281 C125.322854,20.990281 123.985432,19.6482939 123.985432,17.9922248 L123.985432,15.0051505 L138.321985,15.0051505 C138.654427,15.0051505 138.923443,14.734996 138.923443,14.4011465 L138.923443,12.0070943 C138.923443,8.7059379 136.271563,6.02416016 132.985419,6 L132.985419,6 Z" id="Fill-7" fill="#FFFFFF"></path>
                <path d="M42.3848706,6.0109823 L40.6057493,6.0109823 C40.2718895,6.0109823 40.0017267,6.28114685 40.0017267,6.61500874 L40.0017267,18.0036527 C40.0017267,19.6597833 38.6596981,21.0018203 37.0035778,21.0018203 L31.00728,21.0018203 C29.3500614,21.0018203 28.00364,19.6619798 27.9981489,18.0036527 L27.9981489,6.60402644 C27.9981489,6.27455747 27.7345754,6.00658938 27.4051084,6 L25.6040227,6 C25.2745558,6 25.0054911,6.26357517 25,6.59304414 L25,18.0036527 C25,21.315914 27.6851553,24 30.9962978,24 L31.00728,24 L37.0035778,24 C40.3092291,24.0065772 42.9943844,21.3312892 43,18.0256173 L43,18.0036527 L43,6.60402644 C43.0064649,6.28334331 42.7505789,6.01647345 42.4298978,6.0109823 C42.4145227,6.00988407 42.4002458,6.00988407 42.3848706,6.0109823" id="Fill-9" fill="#FFFFFF"></path>
                <path d="M116.437041,3.06566262 L112.517401,3 L102.957304,15.267966 C102.752293,15.5240502 102.38476,15.5612591 102.135135,15.3511387 C102.105393,15.325968 102.077775,15.2975142 102.053343,15.267966 L92.5686644,3.03283131 L88.5746681,3.03283131 C88.2559982,3.03830319 88,3.30642556 88,3.63473865 L88,23.3335244 C88,23.6618375 88.2559982,23.9288655 88.5746681,23.9354318 L90.3167303,23.9354318 C90.6385869,23.9354318 90.8998963,23.666215 90.8998963,23.3335244 L90.8998963,5.9767054 L102.032099,20.4115379 C102.23711,20.6676221 102.605705,20.7059253 102.855329,20.4936161 C102.885072,20.4695398 102.911628,20.441086 102.936059,20.4115379 L114.089506,6.04236802 L114.089506,23.399187 C114.089506,23.7307833 114.350816,24 114.673734,24 L116.414734,24 C116.737653,24 116.998963,23.7307833 116.998963,23.399187 L116.998963,3.70040127 C117.018083,3.36771067 116.770582,3.08426703 116.448726,3.06566262 C116.444477,3.06566262 116.440228,3.06566262 116.437041,3.06566262" id="Fill-11" fill="#FFFFFF"></path>
                <path d="M21.4093539,3.01098326 L19.6485044,3.01098326 C19.3263977,3.0164749 19.0687124,3.28556485 19.0687124,3.61506276 L19.0687124,20.166841 L5.69055044,3 L0.59052882,3 C0.264127436,3 0,3.27018828 0,3.6040795 L0,3.61506276 L0,23.3849372 C0,23.7188285 0.264127436,23.9890167 0.59052882,23.9890167 L2.35137839,23.9890167 C2.67348502,23.9824268 2.93117032,23.7144351 2.93117032,23.3849372 L2.93117032,5.99843096 L4.05854352,5.99843096 L18.0809188,24 L21.4093539,24 C21.7357553,24 22,23.7298117 22,23.3959205 L22,3.62604603 C22.0063249,3.29215481 21.7464922,3.01757322 21.4200908,3.01098326 L21.4093539,3.01098326 Z" id="Fill-13" fill="#FFFFFF"></path>
                <path d="M167.09257,5.26412615 L168.381781,4.06303125 C168.487619,3.96426748 168.642726,3.98338304 168.727578,4.10763424 L170.946517,7.33285547 C171.030457,7.45604469 171.014034,7.63658062 170.908197,7.73534439 L169.618986,8.93643929 C169.512236,9.03626504 169.357129,9.01608749 169.272277,8.89289827 L167.05425,5.66767704 C166.968485,5.54342585 166.986733,5.36288992 167.09257,5.26412615" id="Fill-15" fill="#FFFFFF"></path>
                <path d="M171.917755,19.3546735 C171.824481,19.2332808 171.648296,19.2098184 171.526002,19.301628 C171.524966,19.3026481 171.523929,19.3026481 171.523929,19.3036682 L170.777733,19.8749279 L170.777733,11.2856299 C170.777733,11.1315938 170.653366,11.0051005 170.497909,11 L166.279824,11 C166.12333,11.0051005 166,11.1315938 166,11.2856299 L166,12.8565941 C166,13.00859 166.125403,13.1320229 166.279824,13.1320229 L168.352593,13.1320229 L168.352593,20.7930239 C168.355702,21.0674326 168.32461,21.3418413 168.259318,21.6091092 C168.200244,21.8335327 168.064478,22.0314334 167.875856,22.1701679 C167.77429,22.2752389 167.77429,22.4404962 167.875856,22.5476074 L168.974424,23.9145503 C169.087389,24.026762 169.269793,24.0288022 169.384832,23.9186307 C169.386905,23.9176106 169.387941,23.9155704 169.388977,23.9145503 C170.104083,23.2820841 170.860643,22.6292159 171.461746,22.1293636 L172.923048,20.9766431 C173.025651,20.8664716 173.025651,20.698154 172.923048,20.5890026 L171.917755,19.3546735 Z" id="Fill-17" fill="#FFFFFF"></path>
                <mask id="mask-2" fill="white">
                    <use xlink:href="#path-1"></use>
                </mask>
                <g id="Clip-20"></g>
                <path d="M178.408139,3 C178.576749,3 178.713673,3.12676594 178.713673,3.28286614 L178.713673,3.28286614 L178.713673,5.1791169 L182.879126,5.1791169 L182.879126,3.28286614 C182.883653,3.12467063 183.023972,3 183.194845,3 L183.194845,3 L185.073316,3 C185.244189,3 185.383377,3.12467063 185.390167,3.28286614 L185.390167,3.28286614 L185.390167,5.1791169 L188.626569,5.1791169 C188.642412,5.17597394 188.660517,5.17492629 188.677491,5.17492629 C188.851759,5.17178333 188.996605,5.29959692 189,5.46198304 L189,5.46198304 L189,6.94964938 C188.994342,7.10784489 188.854022,7.23251552 188.683149,7.23251552 L188.683149,7.23251552 L185.446747,7.23251552 L185.446747,8.52112792 C185.441089,8.68037108 185.301902,8.80923232 185.129897,8.81447058 L185.129897,8.81447058 L183.251426,8.81447058 C183.07829,8.80923232 182.940233,8.68037108 182.934575,8.52112792 L182.934575,8.52112792 L182.934575,7.1801329 L178.770254,7.1801329 L178.770254,8.22778526 L180.829782,8.6468462 C180.838835,8.64894151 180.846757,8.65103681 180.854678,8.65313212 C181.021024,8.70446708 181.111553,8.86999615 181.056104,9.02400105 C180.999524,9.1811489 180.965576,9.23353152 180.863731,9.48496809 C180.761886,9.73640465 180.660041,9.97736469 180.570644,10.2183247 L180.570644,10.2183247 L188.683149,10.2183247 C188.854022,10.2183247 188.994342,10.3429954 189,10.5011909 L189,10.5011909 L189,12.0517164 C188.994342,12.2099119 188.854022,12.3345825 188.683149,12.3345825 L188.683149,12.3345825 L179.494484,12.3345825 C179.052025,13.0847016 178.5213,13.7876763 177.910231,14.4298872 L177.910231,14.4298872 L186.861259,14.4298872 C187.031,14.4361731 187.167925,14.566082 187.166793,14.7232299 L187.166793,14.7232299 L187.166793,22.7168173 C187.166793,22.8729175 187.031,22.9998467 186.861259,22.9998467 L186.861259,22.9998467 L184.859442,22.9998467 C184.689701,22.9998467 184.552776,22.8729175 184.552776,22.7168173 L184.552776,22.7168173 L184.552776,21.669165 L177.559432,21.669165 L177.559432,22.7283415 C177.553774,22.8833941 177.412323,23.0049217 177.242582,22.9998467 L177.242582,22.9998467 L175.228317,22.9998467 C175.059708,22.9998467 174.922783,22.8729175 174.922783,22.7168173 L174.922783,22.7168173 L174.922783,16.986159 L173.621433,17.8661869 C173.615775,17.8703775 173.610117,17.8745682 173.604458,17.8777111 C173.465271,17.9657139 173.27516,17.932189 173.180105,17.8033278 L173.180105,17.8033278 L172.048496,16.3156615 C171.957967,16.1815619 171.997574,16.006604 172.139025,15.9175536 C172.978679,15.4052516 173.776463,14.837424 174.52672,14.2203567 C175.221528,13.6504339 175.840518,13.0071753 176.372374,12.3031529 L176.372374,12.3031529 L172.670881,12.3031529 C172.502271,12.3031529 172.366478,12.176387 172.366478,12.0202868 L172.366478,12.0202868 L172.366478,10.4907143 C172.366478,10.3346141 172.502271,10.2078482 172.670881,10.2078482 L172.670881,10.2078482 L177.604697,10.2078482 C177.717857,9.98784122 177.831018,9.74688118 177.921547,9.52687418 C178.012076,9.30686719 178.113921,9.06590714 178.204449,8.81447058 L178.204449,8.81447058 L176.450455,8.81447058 C176.280714,8.80818466 176.149447,8.67722812 176.156237,8.52112792 L176.156237,8.52112792 L176.156237,7.23251552 L172.670881,7.23251552 C172.502271,7.23251552 172.366478,7.10574958 172.366478,6.94964938 L172.366478,6.94964938 L172.366478,5.46198304 C172.366478,5.30588284 172.502271,5.1791169 172.670881,5.1791169 L172.670881,5.1791169 L176.156237,5.1791169 L176.156237,3.28286614 C176.156237,3.12676594 176.293162,3 176.461771,3 L176.461771,3 Z M184.496196,16.4623328 L177.502852,16.4623328 L177.502852,19.7100551 L184.496196,19.7100551 L184.496196,16.4623328 Z" id="Fill-19" fill="#FFFFFF" mask="url(#mask-2)"></path>
                <path d="M200,11.134344 L200,9.39989545 C199.993519,9.23303711 199.861728,9.09801359 199.697531,9.09252483 L197.914043,9.09252483 L197.914043,3.2963931 C197.914043,3.13282802 197.784414,3 197.623457,3 L195.873457,3 C195.720062,3.01207527 195.603395,3.14051228 195.603395,3.2963931 L195.603395,9.09252483 L193.302469,9.09252483 C193.137191,9.09801359 193.004321,9.23303711 193,9.39989545 L193,11.134344 C193.005401,11.2990068 193.138272,11.4307371 193.302469,11.4307371 L195.603395,11.4307371 L195.603395,23.6926294 C195.603395,23.8572922 195.731944,23.9934135 195.893981,24 L197.643981,24 C197.808179,23.9934135 197.936728,23.8572922 197.936728,23.6926294 L197.936728,11.4307371 L199.718056,11.4307371 C199.873611,11.4197595 199.994599,11.2913225 200,11.134344" id="Fill-21" fill="#FFFFFF" mask="url(#mask-2)"></path>
                <path d="M209.125999,3.00015336 C209.288263,3.00015336 209.420035,3.12710437 209.420035,3.28323152 L209.420035,3.28323152 L209.420035,5.09598298 L212.447514,5.09598298 L211.73965,4.25771641 C211.631837,4.14559826 211.631837,3.97165794 211.73965,3.85953979 L211.73965,3.85953979 L212.697989,3.11557821 C212.699078,3.11453037 212.700167,3.11453037 212.700167,3.11453037 C212.829761,3.02022538 213.013805,3.04327771 213.111817,3.16796987 L213.111817,3.16796987 L214.734459,5.09598298 L216.151276,5.09598298 C216.314629,5.09598298 216.449667,5.22067514 216.455113,5.37889795 L216.455113,5.37889795 L216.455113,6.60486282 C216.449667,6.76413346 216.316807,6.89301695 216.151276,6.89825612 L216.151276,6.89825612 L209.376474,6.89825612 L209.376474,7.94608933 L215.039385,7.94608933 C215.201649,7.94608933 215.33451,8.07287715 215.33451,8.2290043 L215.33451,8.2290043 L215.33451,15.7210118 C215.33451,15.8792346 215.202738,16.0091659 215.039385,16.0144051 L215.039385,16.0144051 L213.601877,16.0144051 L213.601877,16.61167 L216.749148,16.61167 C216.898344,16.6326267 217.007246,16.7594145 216.999623,16.9050633 L216.999623,16.9050633 L216.999623,18.0681582 C216.999623,18.2242853 216.868941,18.3510732 216.705587,18.3510732 L216.705587,18.3510732 L213.558316,18.3510732 L213.558316,20.3838696 C213.428722,21.3908373 212.758974,22.2584432 211.79519,22.668146 C211.043765,22.938487 210.241157,23.045366 209.441815,22.982496 C209.300242,22.982496 209.245791,22.9615393 209.18045,22.8777127 L209.18045,22.8777127 L208.015197,21.4945728 C207.974903,21.4463725 207.952034,21.3876938 207.949856,21.3269195 C207.943322,21.1697445 208.070737,21.0387654 208.233001,21.0335262 L208.233001,21.0335262 L209.518047,21.0335262 C209.839308,21.066009 210.162747,21.0272392 210.465495,20.9182645 C210.911994,20.7107936 211.20603,20.2843254 211.22781,19.8075613 L211.22781,19.8075613 L211.22781,18.3929865 L205.379765,18.3929865 L207.198431,20.5724796 C207.203876,20.5766709 207.208232,20.5808622 207.212588,20.5861014 C207.318223,20.6950761 207.312778,20.8679685 207.198431,20.9706562 L207.198431,20.9706562 L205.826264,22.0184894 C205.693404,22.1159379 205.503914,22.0918377 205.401546,21.9660978 L205.401546,21.9660978 L203.07104,19.1683831 L203.07104,19.1683831 L203.057972,19.1547612 C202.950159,19.0457866 202.956693,18.8728941 203.07104,18.7702065 L203.07104,18.7702065 L203.57199,18.3720298 L200.304926,18.3720298 C200.140484,18.3720298 200.005445,18.2462898 200,18.0891149 L200,18.0891149 L200,16.9155417 C200.005445,16.7573188 200.140484,16.6326267 200.304926,16.6326267 L200.304926,16.6326267 L211.2387,16.6326267 L211.2387,15.8257951 C211.2387,15.6686201 211.370472,15.5428801 211.532736,15.5428801 L211.532736,15.5428801 L212.948464,15.5428801 L212.948464,14.9665719 L209.398254,14.9665719 L209.398254,15.5743151 C209.398254,15.7304423 209.266483,15.8572301 209.104218,15.8572301 L209.104218,15.8572301 L207.503357,15.8572301 C207.458707,15.8698041 207.411879,15.8718998 207.367229,15.8635171 C207.208232,15.8341778 207.102597,15.6864333 207.13309,15.5324018 L207.13309,15.5324018 L207.13309,14.9351369 L203.789794,14.9351369 L203.789794,15.7105335 C203.789794,15.8687563 203.660201,15.9986876 203.495759,16.0039268 L203.495759,16.0039268 L201.807775,16.0039268 C201.643333,15.9986876 201.51374,15.8687563 201.51374,15.7105335 L201.51374,15.7105335 L201.51374,8.21852597 C201.51374,8.06239882 201.645511,7.935611 201.807775,7.935611 L201.807775,7.935611 L207.13309,7.935611 L207.13309,6.88777778 L201.274155,6.88777778 C201.105357,6.88777778 200.969229,6.7557508 200.969229,6.59438448 L200.969229,6.59438448 L200.969229,5.37889795 C200.971407,5.36422829 200.973585,5.34955862 200.977941,5.33488896 C201.021502,5.18504881 201.182677,5.09598298 201.339496,5.13789631 L201.339496,5.13789631 L207.198431,5.13789631 L207.198431,3.27275319 C207.204965,3.11662604 207.341093,2.99507739 207.503357,3.00015336 L207.503357,3.00015336 Z M212.948464,12.3365105 L209.343803,12.3365105 L209.343803,13.3843437 L212.948464,13.3843437 L212.948464,12.3365105 Z M207.176651,12.3365105 L203.833355,12.3365105 L203.833355,13.3843437 L207.176651,13.3843437 L207.176651,12.3365105 Z M212.948464,9.62262248 L209.343803,9.62262248 L209.343803,10.7961957 L212.948464,10.7961957 L212.948464,9.62262248 Z M207.176651,9.62262248 L203.833355,9.62262248 L203.833355,10.7961957 L207.176651,10.7961957 L207.176651,9.62262248 Z" id="Fill-22" fill="#FFFFFF" mask="url(#mask-2)"></path>
            </g>
        </g>
    </g>
</svg>