<?xml version="1.0" encoding="UTF-8"?>
<svg width="498px" height="432px" viewBox="0 0 498 432" version="1.1" xmlns="http://www.w3.org/2000/svg" xmlns:xlink="http://www.w3.org/1999/xlink">
    <!-- Generator: Sketch 60.1 (88133) - https://sketch.com -->
    <title>img_无异常</title>
    <desc>Created with Sketch.</desc>
    <defs>
        <linearGradient x1="50%" y1="0%" x2="50%" y2="100%" id="linearGradient-1">
            <stop stop-color="#353E76" stop-opacity="0.02" offset="0%"></stop>
            <stop stop-color="#181D41" stop-opacity="0.04" offset="100%"></stop>
        </linearGradient>
        <path d="M4,0 L162,0 C164.209139,-1.61026889e-14 166,1.790861 166,4 L166,158.380676 C166,160.524597 165.139475,162.578806 163.611413,164.08261 L133.986662,193.237051 C132.490218,194.709738 130.47481,195.535117 128.37525,195.535117 L4,195.535117 C1.790861,195.535117 7.37596886e-15,193.744256 0,191.535117 L0,4 C-2.705415e-16,1.790861 1.790861,4.05812251e-16 4,0 Z" id="path-2"></path>
        <linearGradient x1="25.9716324%" y1="90.4193186%" x2="25.9716324%" y2="0%" id="linearGradient-4">
            <stop stop-color="#5474E5" stop-opacity="0" offset="0%"></stop>
            <stop stop-color="#5474E5" offset="100%"></stop>
        </linearGradient>
        <linearGradient x1="25.9716324%" y1="90.4193186%" x2="25.9716324%" y2="0%" id="linearGradient-5">
            <stop stop-color="#5474E5" stop-opacity="0" offset="0%"></stop>
            <stop stop-color="#5474E5" offset="100%"></stop>
        </linearGradient>
    </defs>
    <g id="img_无异常" stroke="none" stroke-width="1" fill="none" fill-rule="evenodd">
        <g id="编组备份" transform="translate(46.000000, 80.000000)">
            <rect id="矩形" fill="url(#linearGradient-1)" x="0" y="0" width="220" height="220" rx="40"></rect>
            <rect id="矩形备份" fill="url(#linearGradient-1)" x="286" y="94" width="100" height="100" rx="20"></rect>
            <g id="编组-4备份-4" transform="translate(146.000000, 44.000000)">
                <path d="M16,33 L174,33 C182.836556,33 190,40.163444 190,49 L190,237 C190,245.836556 182.836556,253 174,253 L16,253 C7.163444,253 1.082166e-15,245.836556 0,237 L0,49 C-1.082166e-15,40.163444 7.163444,33 16,33 Z" id="矩形" stroke="#181D41" stroke-width="2" fill="#FFFFFF"></path>
                <g id="编组-4" transform="translate(12.000000, 45.000000)">
                    <mask id="mask-3" fill="white">
                        <use xlink:href="#path-2"></use>
                    </mask>
                    <path stroke="#181D41" stroke-width="2" d="M4,-1 L162,-1 C164.761424,-1 167,1.23857625 167,4 L167,158.380676 C167,160.792587 166.031909,163.103573 164.312839,164.795352 L134.688089,193.949793 C133.004589,195.606566 130.737255,196.535117 128.37525,196.535117 L4,196.535117 C1.23857625,196.535117 -1,194.296541 -1,191.535117 L-1,4 C-1,1.23857625 1.23857625,-1 4,-1 Z"></path>
                    <path d="M131.841451,161.467521 L177.255664,206.881735 L144.841451,206.881735 C137.661749,206.881735 131.841451,201.061437 131.841451,193.881735 L131.841451,161.467521 Z" id="矩形备份-9" stroke="#181D41" stroke-width="2" fill="#F2F3F4" stroke-linejoin="round" mask="url(#mask-3)" transform="translate(153.841451, 184.881735) scale(1, -1) translate(-153.841451, -184.881735) "></path>
                    <rect id="矩形备份-12" fill="url(#linearGradient-4)" opacity="0.159999996" mask="url(#mask-3)" x="27" y="41" width="20" height="20" rx="4"></rect>
                    <rect id="矩形" stroke="#5474E5" stroke-width="2" mask="url(#mask-3)" x="26" y="41" width="20" height="20" rx="4"></rect>
                    <path d="M62,50 L119,50 C119.552285,50 120,50.4477153 120,51 C120,51.5522847 119.552285,52 119,52 L62,52 C61.4477153,52 61,51.5522847 61,51 C61,50.4477153 61.4477153,50 62,50 Z" id="矩形备份-2" fill="#5474E5" mask="url(#mask-3)"></path>
                    <rect id="矩形备份-4" stroke="#181D41" stroke-width="2" fill="#F2F3F4" mask="url(#mask-3)" x="26" y="89" width="20" height="20" rx="4"></rect>
                    <path d="M62,98 L139,98 C139.552285,98 140,98.4477153 140,99 C140,99.5522847 139.552285,100 139,100 L62,100 C61.4477153,100 61,99.5522847 61,99 C61,98.4477153 61.4477153,98 62,98 Z" id="矩形备份-3" fill="#181D41" mask="url(#mask-3)"></path>
                    <rect id="矩形备份-6" stroke="#181D41" stroke-width="2" fill="#F2F3F4" mask="url(#mask-3)" x="26" y="137" width="20" height="20" rx="4"></rect>
                    <path d="M62,146 L99,146 C99.5522847,146 100,146.447715 100,147 C100,147.552285 99.5522847,148 99,148 L62,148 C61.4477153,148 61,147.552285 61,147 C61,146.447715 61.4477153,146 62,146 Z" id="矩形备份-5" fill="#181D41" mask="url(#mask-3)"></path>
                </g>
                <path d="M94.7142857,0.769230769 C104.655411,0.769230769 112.714286,8.82810527 112.714286,18.7692308 L112.714286,18.7692308 L130.664118,18.7692308 C140.632951,18.7692308 148.714286,26.8505659 148.714286,36.819398 L148.714286,36.819398 L148.714286,50.8695652 C148.714286,53.0787042 146.923425,54.8695652 144.714286,54.8695652 L144.714286,54.8695652 L44.7142857,54.8695652 C42.5051467,54.8695652 40.7142857,53.0787042 40.7142857,50.8695652 L40.7142857,50.8695652 L40.7142857,36.819398 C40.7142857,26.8505659 48.7956208,18.7692308 58.7644529,18.7692308 L58.7644529,18.7692308 L76.7142857,18.7692308 C76.7142857,8.82810527 84.7731602,0.769230769 94.7142857,0.769230769 Z M94.7142857,12.7692308 C91.4005772,12.7692308 88.7142857,15.4555223 88.7142857,18.7692308 C88.7142857,22.0829393 91.4005772,24.7692308 94.7142857,24.7692308 C98.0279942,24.7692308 100.714286,22.0829393 100.714286,18.7692308 C100.714286,15.4555223 98.0279942,12.7692308 94.7142857,12.7692308 Z" id="形状结合" stroke="#181D41" stroke-width="2" fill="#F2F3F4"></path>
                <polygon id="矩形备份-19" fill="#181D41" points="72.4285714 34.2408027 117 34.2408027 117 36.2408027 72.4285714 36.2408027"></polygon>
                <polygon id="矩形备份-20" fill="#181D41" points="72.4285714 42.8361204 117 42.8361204 117 44.8361204 72.4285714 44.8361204"></polygon>
            </g>
            <g id="编组" transform="translate(51.000000, 179.000000)">
                <path d="M59,118 C91.5848002,118 118,91.5848002 118,59 C118,26.4151998 91.5848002,0 59,0 C26.4151998,0 0,26.4151998 0,59 C0,91.5848002 26.4151998,118 59,118 Z" id="椭圆形备份-2" stroke="#181D41" stroke-width="2" fill="#FFFFFF" stroke-dasharray="18,12"></path>
                <circle id="椭圆形" stroke="#181D41" stroke-width="2" fill="#FFFFFF" cx="59" cy="59" r="49"></circle>
                <path d="M59,76 C62.3137085,76 65,78.6862915 65,82 C65,85.3137085 62.3137085,88 59,88 C55.6862915,88 53,85.3137085 53,82 C53,78.6862915 55.6862915,76 59,76 Z M59,30 C62.1347234,30 64.6759188,32.5411954 64.6759188,35.6759188 C64.6759188,35.7809272 64.6730047,35.8859154 64.6671799,35.9907621 L63.2218801,62.0061586 C63.0973971,64.2468527 61.2441493,66 59,66 C56.7558507,66 54.9026029,64.2468527 54.7781199,62.0061586 L53.3328201,35.9907621 C53.1589369,32.8608651 55.5552596,30.1826221 58.6851567,30.0087389 C58.7900034,30.0029141 58.8949916,30 59,30 Z" id="形状结合" stroke="#5474E5" stroke-width="2"></path>
                <path d="M59,76 C62.3137085,76 65,78.6862915 65,82 C65,85.3137085 62.3137085,88 59,88 C55.6862915,88 53,85.3137085 53,82 C53,78.6862915 55.6862915,76 59,76 Z M59,30 C62.1347234,30 64.6759188,32.5411954 64.6759188,35.6759188 C64.6759188,35.7809272 64.6730047,35.8859154 64.6671799,35.9907621 L63.2218801,62.0061586 C63.0973971,64.2468527 61.2441493,66 59,66 C56.7558507,66 54.9026029,64.2468527 54.7781199,62.0061586 L53.3328201,35.9907621 C53.1589369,32.8608651 55.5552596,30.1826221 58.6851567,30.0087389 C58.7900034,30.0029141 58.8949916,30 59,30 Z" id="形状结合备份" fill="url(#linearGradient-5)" opacity="0.159999996"></path>
            </g>
        </g>
    </g>
</svg>