<?xml version="1.0" encoding="UTF-8"?>
<svg width="46px" height="46px" viewBox="0 0 46 46" version="1.1" xmlns="http://www.w3.org/2000/svg" xmlns:xlink="http://www.w3.org/1999/xlink">
    <!-- Generator: Sketch 60.1 (88133) - https://sketch.com -->
    <title>F70333C0-15BF-4F01-B357-A67ECB967938</title>
    <desc>Created with Sketch.</desc>
    <defs>
        <path d="M9.30401059,16.1460049 L7.79601295,21.6756819 C7.70715516,22.0031001 7.7995139,22.3548241 8.03601279,22.5896587 C8.21601262,22.764543 8.45001132,22.8582309 8.69601127,22.8582309 C8.78001111,22.8582309 8.86401121,22.8499031 8.9460111,22.8270017 L14.4420108,21.3279948 C14.4500108,21.3279948 14.4560108,21.3363226 14.4600108,21.3363226 C14.5233558,21.3365931 14.5843192,21.3112085 14.6300107,21.2655361 L29.7121118,6.23771487 C30.4945671,5.45807557 30.4968499,4.19174767 29.7172106,3.40929234 C29.6985343,3.39054855 29.6794878,3.37217723 29.6600825,3.35418924 L27.142445,1.02043976 C26.3549134,0.290429424 25.131446,0.31261443 24.3708978,1.07069593 L9.37602711,16.0169343 L9.37602711,16.0169343 C9.36202711,16.029426 9.36602712,16.0502457 9.35402714,16.0627373 C9.33032166,16.0864735 9.31393235,16.1149086 9.30401059,16.1460049 Z M27.8919825,5.15121705 L26.4359849,6.60858608 L24.0679868,4.20392833 L25.5079855,2.76321671 C25.7339853,2.5342019 26.1779837,2.567513 26.4359849,2.82775731 L27.8239836,4.21642166 C27.9699834,4.36215857 28.0559878,4.55369706 28.0559878,4.74107292 L28.0559878,4.74107462 C28.0565752,4.89519516 27.9974515,5.04305409 27.8919825,5.15121904 L27.8919825,5.15121705 Z M11.9680046,16.2980139 L22.5719959,5.69670999 L24.939994,8.10136774 L14.3520016,18.6818641 L11.9680046,16.2980253 L11.9680046,16.2980139 Z M18,0 C18.5522847,-1.01453063e-16 19,0.44771525 19,1 C19,1.55228475 18.5522847,2 18,2 L4,2 C2.8954305,2 2,2.8954305 2,4 L2,26 C2,27.1045695 2.8954305,28 4,28 L26,28 C27.1045695,28 28,27.1045695 28,26 L28,12 C28,11.4477153 28.4477153,11 29,11 C29.5522847,11 30,11.4477153 30,12 L30,26.2 C30,28.298682 28.298682,30 26.2,30 L3.8,30 C1.70131795,30 -6.31163994e-16,28.298682 0,26.2 L0,3.8 C-2.57014425e-16,1.70131795 1.70131795,-5.85675717e-17 3.8,0 L18,0 Z M10.7960068,17.7845419 L12.8400063,19.8248574 L10.0320001,20.5951797 L10.7960068,17.7845419 Z" id="path-1"></path>
    </defs>
    <g id="组件" stroke="none" stroke-width="1">
        <g id="Icon/修改密码">
            <g id="修改-密码" transform="translate(8.000000, 8.000000)">
                <mask id="mask-2">
                    <use xlink:href="#path-1"></use>
                </mask>
                <use id="形状" xlink:href="#path-1"></use>
                <g id="icon/颜色/黄" mask="url(#mask-2)">
                    <g transform="translate(-8.000000, -9.000000)" id="矩形">
                        <rect x="0" y="0" width="46" height="46"></rect>
                    </g>
                </g>
            </g>
        </g>
    </g>
</svg>