<?xml version="1.0" encoding="UTF-8"?>
<svg width="32px" height="32px" viewBox="0 0 32 32" version="1.1" xmlns="http://www.w3.org/2000/svg" xmlns:xlink="http://www.w3.org/1999/xlink">
    <!-- Generator: Sketch 60.1 (88133) - https://sketch.com -->
    <title>A2FB162A-8C9E-4B38-8E89-CCF9C8F18C9E</title>
    <desc>Created with Sketch.</desc>
    <g id="组件" stroke="none" stroke-width="1" fill="none" fill-rule="evenodd">
        <g id="标识/普通" fill="#06B5D4">
            <path d="M5.40032681,5.41075903 C11.2107777,-0.47025301 20.7698764,-0.47025301 26.5802961,5.41075903 C31.453529,10.2649547 32.3906878,17.8262647 28.9231808,23.8006336 C24.6122202,30.801837 15.4279863,33.1355674 8.30552423,28.8414966 C7.83693951,28.561448 7.6495065,27.9080001 7.93065633,27.4412534 C8.21180648,26.9745049 8.86782452,26.7878059 9.33640706,27.0678542 C13.5536748,29.5882891 18.8955058,29.4949417 23.0190495,26.7878059 C28.9232119,22.960488 30.6101003,15.0257818 26.7677285,9.05141298 C22.9253567,3.17038235 14.9594411,1.49010293 8.96157339,5.31742085 C3.057411,9.14473877 1.37052258,17.0794449 5.21289441,23.0538137 C5.49404456,23.5205635 5.30660905,24.1740086 4.83802652,24.4540569 C4.36944087,24.7341056 3.71342562,24.5474044 3.43227579,24.0806577 C-0.410092931,18.1996457 0.33963664,10.3582963 5.40032681,5.41075903 Z M21.994,16.97 L21.994,24.494 L19.798,24.494 L19.798,24.026 L12.148,24.026 L12.148,24.566 L10.06,24.566 L10.06,16.97 L21.994,16.97 Z M19.798,21.254 L12.148,21.254 L12.148,22.37 L19.798,22.37 L19.798,21.254 Z M19.798,18.59 L12.148,18.59 L12.148,19.688 L19.798,19.688 L19.798,18.59 Z M18.934,7.7 L21.04,8.312 C20.734,8.852 20.41,9.356 20.086,9.806 L20.086,9.806 L23.326,9.806 L23.326,11.534 L20.986,11.534 L22.498,11.948 C22.048,12.866 21.58,13.784 21.184,14.45 L21.184,14.45 L24.208,14.45 L24.208,16.178 L7.828,16.178 L7.828,14.45 L10.51,14.45 C10.312,13.73 9.862,12.776 9.412,12.056 L9.412,12.056 L10.816,11.534 L8.782,11.534 L8.782,9.806 L11.896,9.806 C11.644,9.338 11.302,8.798 10.978,8.384 L10.978,8.384 L12.868,7.7 C13.372,8.24 13.876,8.96 14.092,9.482 L14.092,9.482 L13.318,9.806 L17.728,9.806 C18.16,9.176 18.646,8.33 18.934,7.7 L18.934,7.7 Z M13.21,11.534 L11.23,11.534 C11.752,12.254 12.202,13.208 12.382,13.856 L12.382,13.856 L10.942,14.45 L13.21,14.45 L13.21,11.534 Z M16.666,11.534 L15.208,11.534 L15.208,14.45 L16.666,14.45 L16.666,11.534 Z M20.5,11.534 L18.7,11.534 L18.7,14.45 L20.842,14.45 L19.456,14.036 C19.816,13.352 20.248,12.29 20.5,11.534 L20.5,11.534 Z" id="形状结合"></path>
        </g>
    </g>
</svg>