<?xml version="1.0" encoding="UTF-8"?>
<svg width="46px" height="46px" viewBox="0 0 46 46" version="1.1" xmlns="http://www.w3.org/2000/svg" xmlns:xlink="http://www.w3.org/1999/xlink">
    <!-- Generator: Sketch 60.1 (88133) - https://sketch.com -->
    <title>37BAD42A-7096-4698-AC0D-31CBA7BC1AA0</title>
    <desc>Created with Sketch.</desc>
    <defs>
        <path d="M15.5366541,9.0123179 C13.5069662,9.01936945 12.0144015,10.587781 12.0097676,12.7138206 L12.0009949,18.5417094 L12.0016718,24.7758095 C12.003224,26.4558492 12.005835,28.1716568 12.0094125,29.9752584 C12.0134964,31.9962663 13.3118141,33.4481307 15.2674555,33.6862202 L15.7067389,33.7321016 L16.1870377,33.7765911 L16.1870377,33.7765911 L16.2227417,34.4227157 C16.2288255,34.5251146 16.235415,34.6258776 16.2431684,34.726517 C16.3798896,36.4996082 17.4599877,37.3274215 19.099938,36.8807609 C22.5595119,35.9388249 26.0134223,34.9740626 29.472102,34.0276803 C30.0997773,33.8558455 30.7448524,33.7532271 31.3707501,33.5756388 C32.9457075,33.1284231 33.9863871,31.7470651 33.989937,30.0411414 L33.9996053,19.4888702 C33.9985382,17.294487 33.9952736,15.0664929 33.9894043,12.6872941 C33.9842551,10.5705351 32.4790793,9.01807665 30.4376686,9.0117612 C25.4706096,8.99654472 20.5035505,8.99543133 15.5366541,9.0123179 Z M22.5794636,10.8365411 L30.2306157,10.8371674 L30.2558393,11.0470558 C26.5517563,12.589486 22.8466165,14.1285687 19.1441323,15.6750883 C17.1321993,16.5153343 16.1208158,18.0599933 16.1254225,20.3155534 L16.1386737,22.3431693 L16.175132,25.6240864 L16.175132,25.6240864 L16.1785129,26.1761385 C16.1879236,28.0234546 16.1804661,29.8711559 16.1804661,31.7021255 C14.6294799,32.0257539 13.7601464,31.3031564 13.7585476,29.732706 L13.7576598,13.0235157 C13.75837,11.5170836 14.4185387,10.8392097 15.8812762,10.8382808 L22.5794636,10.8365411 Z M20.782089,21.784789 C20.9331925,21.8020467 21.125846,22.3004778 21.140051,22.5869951 C21.1860389,23.5077786 21.1572743,24.4331982 21.1572742,25.3565787 L21.1640195,25.3565912 C21.1640195,26.3113309 21.1942047,27.2670023 21.1467961,28.2191308 C21.1311709,28.5332945 20.9351447,29.0872129 20.7867042,29.1005717 C20.2327177,29.1491901 19.6249299,29.1157882 19.1265195,28.8944069 C18.98749,28.8327987 19.1178191,28.0092533 19.1950577,27.548676 C19.2550728,27.1905307 19.4919371,26.8604085 19.5301134,26.5037501 C19.588708,25.9568834 19.5597658,25.3968449 19.5386362,24.8434844 C19.5162637,24.2600618 19.6705633,23.6695903 19.1098281,23.1598375 C18.915045,22.9829923 19.0009838,22.0137766 19.1794315,21.932129 C19.6504969,21.7159436 20.2490522,21.7242941 20.782089,21.784789 Z" id="path-1"></path>
    </defs>
    <g id="组件" stroke="none" stroke-width="1" fill="none" fill-rule="evenodd">
        <g id="icon/开柜">
            <mask id="mask-2" fill="white">
                <use xlink:href="#path-1"></use>
            </mask>
            <use id="形状" fill="#5474E5" xlink:href="#path-1"></use>
        </g>
    </g>
</svg>