<?xml version="1.0" encoding="UTF-8"?>
<svg width="46px" height="46px" viewBox="0 0 46 46" version="1.1" xmlns="http://www.w3.org/2000/svg" xmlns:xlink="http://www.w3.org/1999/xlink">
    <!-- Generator: Sketch 60.1 (88133) - https://sketch.com -->
    <title>C9DB58D1-EF2A-429F-B635-26E8E263AC27</title>
    <desc>Created with Sketch.</desc>
    <defs>
        <path d="M32.1875334,18.8465586 L32.1875334,15.6847548 C32.1853945,10.5618598 28.0317012,7 22.9989306,7 C17.9682988,7 13.8124666,10.5618598 13.8124666,15.6847548 L13.8124666,18.6223095 L11.1880681,18.6223095 C9.87479948,18.6223095 9,19.7370235 9,20.8517376 L9,37.7749262 C9,39.109535 10.0929646,40 11.1880681,40 L34.8119319,40 C36.1252005,40 37,38.8896403 37,37.7749262 L37,21.0759867 C37,19.7392007 36.1230616,18.8487358 34.8119319,18.8487358 L32.1875334,18.8465586 Z M24.3143381,33.7645681 C24.3143381,33.9866401 24.0961729,33.9866401 24.0961729,33.9866401 L22.1284088,33.9866401 C21.9081048,33.9866401 21.9081048,33.7645681 21.9081048,33.7645681 L21.9081048,29.9784592 C20.8151402,29.5343153 20.1585058,28.6438503 20.1585058,27.5291362 C20.1585058,25.9702782 21.4717745,24.6334922 23.0032083,24.6334922 C24.5325032,24.6334922 25.8457719,25.9702782 25.8457719,27.5291362 C25.8457719,28.6438503 25.1891376,29.5321381 24.3143381,29.9784592 L24.3143381,33.7645681 Z M17.3116645,18.8487358 L17.3116645,15.4605057 C17.3116645,12.7891108 19.9382018,10.5618598 23.0010694,10.5618598 C26.0617982,10.5618598 28.6861966,12.7891108 28.6861966,15.4605057 L28.6861966,18.8487358 L17.3116645,18.8487358 Z" id="path-1"></path>
    </defs>
    <g id="组件" stroke="none" stroke-width="1" fill="none" fill-rule="evenodd">
        <g id="Icon/Password">
            <mask id="mask-2" fill="white">
                <use xlink:href="#path-1"></use>
            </mask>
            <use id="形状" fill="#C3C6D5" fill-rule="nonzero" xlink:href="#path-1"></use>
        </g>
    </g>
</svg>