<?xml version="1.0" encoding="UTF-8"?>
<svg width="498px" height="432px" viewBox="0 0 498 432" version="1.1" xmlns="http://www.w3.org/2000/svg" xmlns:xlink="http://www.w3.org/1999/xlink">
    <!-- Generator: Sketch 60.1 (88133) - https://sketch.com -->
    <title>img_暂无数据</title>
    <desc>Created with Sketch.</desc>
    <defs>
        <linearGradient x1="50%" y1="0%" x2="50%" y2="100%" id="linearGradient-1">
            <stop stop-color="#353E76" stop-opacity="0.02" offset="0%"></stop>
            <stop stop-color="#181D41" stop-opacity="0.04" offset="100%"></stop>
        </linearGradient>
        <path d="M189.656306,1.62744177 L207.415182,11.9583893 L207.415182,11.9583893 L21.9143092,16.0353124 L19.8750935,106.895695 L5.49227601,96.4289372 C2.04311997,93.9188949 0,87.4675054 0,83.1804297 L0,4 C-2.705415e-16,1.790861 1.790861,4.05812251e-16 4,0 L183.622233,0 C185.742029,9.34383115e-14 187.823997,0.561524775 189.656306,1.62744177 Z" id="path-2"></path>
        <rect id="path-4" x="0" y="0" width="192.679339" height="97.6827848"></rect>
        <linearGradient x1="25.9716324%" y1="90.4193186%" x2="25.9716324%" y2="0%" id="linearGradient-6">
            <stop stop-color="#5474E5" stop-opacity="0" offset="0%"></stop>
            <stop stop-color="#5474E5" offset="100%"></stop>
        </linearGradient>
        <linearGradient x1="29.8712723%" y1="65.0905024%" x2="108.670729%" y2="8.78349528%" id="linearGradient-7">
            <stop stop-color="#5474E5" stop-opacity="0.0190888228" offset="0%"></stop>
            <stop stop-color="#5474E5" offset="99.9524916%"></stop>
        </linearGradient>
        <filter x="-8.0%" y="-9.4%" width="116.0%" height="118.8%" filterUnits="objectBoundingBox" id="filter-8">
            <feGaussianBlur stdDeviation="4" in="SourceGraphic"></feGaussianBlur>
        </filter>
        <linearGradient x1="17.2747463%" y1="74.8091069%" x2="46.4295879%" y2="27.9547749%" id="linearGradient-9">
            <stop stop-color="#5474E5" stop-opacity="0" offset="0%"></stop>
            <stop stop-color="#5474E5" offset="100%"></stop>
        </linearGradient>
    </defs>
    <g id="img_暂无数据" stroke="none" stroke-width="1" fill="none" fill-rule="evenodd">
        <g id="编组-4" transform="translate(59.000000, 71.000000)">
            <rect id="矩形" fill="url(#linearGradient-1)" x="0" y="0" width="220" height="220" rx="40"></rect>
            <rect id="矩形备份" fill="url(#linearGradient-1)" x="301" y="200" width="100" height="100" rx="20"></rect>
            <g id="编组-2" transform="translate(64.000000, 77.000000)">
                <g id="矩形备份-29" transform="translate(12.000000, 111.000000)">
                    <mask id="mask-3" fill="white">
                        <use xlink:href="#path-2"></use>
                    </mask>
                    <path stroke="#181D41" stroke-width="2" d="M22.8925948,17.0140532 L20.83196,108.828796 L4.90386436,97.2374987 C1.45294558,94.7261736 -1,88.3134018 -1,83.1804297 L-1,4 C-1,1.23857625 1.23857625,-1 4,-1 L183.622233,-1 C185.918679,-1 188.174144,-0.391681494 190.159145,0.763061916 L210.988309,12.8801009 L22.8925948,17.0140532 Z"></path>
                    <polygon stroke="#181D41" stroke-width="2" fill="#F2F3F4" stroke-linejoin="round" mask="url(#mask-3)" transform="translate(107.052282, 0.286567) scale(1, -1) translate(-107.052282, -0.286567) " points="16.7457592 -11.6400625 67.0965931 -11.039797 220.524195 -15.5509584 192.936798 16.1240929 -6.41963153 4.99822161"></polygon>
                    <line x1="-6.55400957" y1="29.4672992" x2="13.9251839" y2="14.3906931" id="路径" stroke="#181D41" stroke-width="2" fill="#F2F3F4" stroke-linejoin="round" mask="url(#mask-3)" transform="translate(3.685587, 21.928996) scale(1, -1) translate(-3.685587, -21.928996) "></line>
                </g>
                <path d="M30,121 L216,121 C218.761424,121 221,123.238576 221,126 L221,208 C221,215.179702 215.179702,221 208,221 L38,221 C30.8202983,221 25,215.179702 25,208 L25,126 C25,123.238576 27.2385763,121 30,121 Z" id="矩形" stroke="#181D41" stroke-width="2" fill="#FFFFFF"></path>
                <g id="编组-5">
                    <path d="M190.509107,8.03813706 L198.688166,14.4876802 L196.177123,28.9876865 L194.181021,27.5305572 L194.181652,86.061259 C194.181652,93.2409608 188.361354,99.061259 181.181652,99.061259 L12,99.061259 C11.3987858,99.061259 10.802672,99.020378 10.2146386,98.9395539 L10.7806182,105.687213 L3.14993287,95.5837383 C2.03184743,94.5441725 1.1028559,93.3153317 0.409664357,91.9545361 L0.00145070718,91.413717 L0.0405089223,91.1652661 C-0.642695805,89.5664263 -1,87.8382075 -1,86.061259 L-1,17.0934579 C-1,9.9137562 4.82029825,4.09345794 12,4.09345794 L181.181652,4.09345794 C184.743467,4.09345794 188.078058,5.53428703 190.509107,8.03813706 Z" id="形状结合" stroke="#181D41" stroke-width="2" fill="#FFFFFF"></path>
                    <g id="矩形备份-30" transform="translate(8.162437, 11.205607)">
                        <mask id="mask-5" fill="white">
                            <use xlink:href="#path-4"></use>
                        </mask>
                        <rect stroke="#181D41" stroke-width="2" x="-1" y="-1" width="194.679339" height="99.6827848"></rect>
                        <rect stroke="#181D41" stroke-width="2" fill="#FFFFFF" mask="url(#mask-5)" x="-7.64411515" y="-8.67888146" width="194.679339" height="99.6827848" rx="8"></rect>
                    </g>
                    <rect id="矩形备份-22" stroke="#181D41" stroke-width="2" fill="#F2F3F4" stroke-linejoin="round" x="40.8121827" y="0" width="26.5279188" height="6.11214953" rx="2"></rect>
                    <rect id="矩形备份-31" stroke="#181D41" stroke-width="2" fill="#F2F3F4" stroke-linejoin="round" x="132.639594" y="0" width="26.5279188" height="6.11214953" rx="2"></rect>
                </g>
                <g id="编组" transform="translate(47.000000, 151.000000)" stroke="#181D41" stroke-width="2">
                    <rect id="矩形备份-24" stroke-linejoin="round" x="0" y="0" width="26" height="22.6875" rx="2"></rect>
                    <path d="M7,6.1875 L21,6.1875 L21,26 C21,29.8659932 17.8659932,33 14,33 C10.1340068,33 7,29.8659932 7,26 L7,6.1875 L7,6.1875 Z" id="矩形备份-26"></path>
                    <rect id="矩形备份-25" fill="#FFFFFF" stroke-linejoin="round" x="7" y="6.1875" width="14" height="10.3125"></rect>
                </g>
                <g id="编组备份" transform="translate(173.000000, 151.000000)" stroke="#181D41" stroke-width="2">
                    <rect id="矩形备份-24" stroke-linejoin="round" x="0" y="0" width="26" height="22.6875" rx="2"></rect>
                    <path d="M7,6.1875 L21,6.1875 L21,26 C21,29.8659932 17.8659932,33 14,33 C10.1340068,33 7,29.8659932 7,26 L7,6.1875 L7,6.1875 Z" id="矩形备份-26"></path>
                    <rect id="矩形备份-25" fill="#FFFFFF" stroke-linejoin="round" x="7" y="6.1875" width="14" height="10.3125"></rect>
                </g>
                <path d="M130.666667,164 L130.666,177.666 L144,177.666667 L144,191.333333 L130.666,191.333 L130.666667,205 L117.333333,205 L117.333,191.333 L104,191.333333 L104,177.666667 L117.333,177.666 L117.333333,164 L130.666667,164 Z" id="形状结合备份" fill="url(#linearGradient-6)" opacity="0.16"></path>
                <path d="M131.666049,176.66605 L145,176.666717 L145,192.333358 L131.666049,192.333025 L131.666715,206 L116.333358,206 L116.333024,192.333025 L103,192.333358 L103,176.666717 L116.333024,176.66605 L116.333358,163 L131.666715,163 L131.666049,176.66605 Z" id="形状结合" stroke="#5474E5" stroke-width="2" stroke-linejoin="round"></path>
                <path d="M30,121 L216,121 C218.761424,121 221,123.238576 221,126 L221,139 L25,139 L25,126 C25,123.238576 27.2385763,121 30,121 Z" id="矩形备份-9" stroke="#181D41" stroke-width="2"></path>
            </g>
            <g id="编组-3" transform="translate(235.000000, 54.000000)">
                <polygon id="路径-17" fill="url(#linearGradient-7)" opacity="0.16" filter="url(#filter-8)" points="86.3146638 30 0 104.233572 62.0312239 158 150 70.6101894 118.113803 47.7712222 109.003461 70.6101894 103.537256 38.9144032"></polygon>
                <polygon id="路径-13" stroke="#5474E5" stroke-width="2" fill="#FFFFFF" stroke-linejoin="round" points="180 0 69 24.8911634 100.803653 42"></polygon>
                <polygon id="路径-14备份" stroke="#5474E5" stroke-width="2" stroke-linecap="round" stroke-linejoin="round" points="101 42.2391826 106.644175 74 180 0"></polygon>
                <polygon id="路径-14" fill="url(#linearGradient-9)" opacity="0.16" points="101 42.2391826 106.644175 74 180 0"></polygon>
                <polygon id="路径-15" stroke="#5474E5" stroke-width="2" fill="#FFFFFF" stroke-linejoin="round" points="114.094063 50.0173358 106 74 140.15313 42.2391826 180 -8.21565038e-15"></polygon>
                <polygon id="路径-16" stroke="#5474E5" stroke-width="2" fill="#FFFFFF" stroke-linejoin="round" points="114 49.4212725 151.860742 75 180 -8.32667268e-15"></polygon>
            </g>
            <path d="M142.443308,168.961072 C165.831634,167.378818 208.870868,158.125056 208.870868,148.197623 C208.870868,138.270189 195.615345,133.511454 184.591978,139.798839 C173.568611,146.086224 169.4262,161.424033 202.684957,161.424033 C235.943714,161.424033 298.891712,151.685677 321.556348,137.577358" id="路径-7备份" stroke="#181D41" stroke-width="2" stroke-dasharray="12,8" transform="translate(231.999828, 152.961072) rotate(-360.000000) translate(-231.999828, -152.961072) "></path>
        </g>
    </g>
</svg>