<?xml version="1.0" encoding="UTF-8"?>
<svg width="36px" height="36px" viewBox="0 0 36 36" version="1.1" xmlns="http://www.w3.org/2000/svg" xmlns:xlink="http://www.w3.org/1999/xlink">
    <!-- Generator: Sketch 60.1 (88133) - https://sketch.com -->
    <title>57F979C5-3500-4A74-9081-F5F6583DD6B2</title>
    <desc>Created with Sketch.</desc>
    <defs>
        <path d="M32.6480228,30.9408482 L25.7608423,24.0569196 C27.6056826,21.8303571 28.713926,18.9743304 28.713926,15.8571429 C28.713926,8.75558036 22.9584262,3 15.856963,3 C8.75549985,3 3,8.75558036 3,15.8571429 C3,22.9587054 8.75549985,28.7142857 15.856963,28.7142857 C18.9741069,28.7142857 21.8300937,27.6060268 24.0566251,25.7611607 L30.9438055,32.6484375 C31.1781773,32.8828125 31.4862087,33 31.7975882,33 C32.1089678,33 32.4136511,32.8828125 32.6513709,32.6484375 C33.1167662,32.1763393 33.1167662,31.4129464 32.6480228,30.9408482 Z M19.9216383,25.4832589 C18.635942,26.0290179 17.2698897,26.3035714 15.856963,26.3035714 C14.4440363,26.3035714 13.077984,26.0290179 11.7922877,25.4832589 C10.5501176,24.9575893 9.43182967,24.2042411 8.47090561,23.2433036 C7.50998156,22.2823661 6.75664388,21.1640625 6.23098159,19.921875 C5.6852303,18.6361607 5.41068056,17.2700893 5.41068056,15.8571429 C5.41068056,14.4441964 5.6852303,13.078125 6.23098159,11.7924107 C6.75664388,10.5502232 7.50998156,9.43191964 8.47090561,8.47098214 C9.43182967,7.51004464 10.5501176,6.75669643 11.7922877,6.23102679 C13.077984,5.68526786 14.4440363,5.41071429 15.856963,5.41071429 C17.2698897,5.41071429 18.635942,5.68526786 19.9216383,6.23102679 C21.1638084,6.75669643 22.2820963,7.51004464 23.2430204,8.47098214 C24.2039445,9.43191964 24.9572821,10.5502232 25.4829444,11.7924107 C26.0286957,13.078125 26.3032455,14.4441964 26.3032455,15.8571429 C26.3032455,17.2700893 26.0286957,18.6361607 25.4829444,19.921875 C24.9572821,21.1640625 24.2039445,22.2823661 23.2430204,23.2433036 C22.2820963,24.2042411 21.1671566,24.9575893 19.9216383,25.4832589 Z" id="path-1"></path>
    </defs>
    <g id="组件" stroke="none" stroke-width="1" fill="none" fill-rule="evenodd">
        <g id="icon/搜索-小">
            <mask id="mask-2" fill="white">
                <use xlink:href="#path-1"></use>
            </mask>
            <use id="Mask" fill="#C3C6D5" xlink:href="#path-1"></use>
        </g>
    </g>
</svg>