<?xml version="1.0" encoding="UTF-8"?>
<svg width="46px" height="46px" viewBox="0 0 46 46" version="1.1" xmlns="http://www.w3.org/2000/svg" xmlns:xlink="http://www.w3.org/1999/xlink">
    <!-- Generator: Sketch 60.1 (88133) - https://sketch.com -->
    <title>0E7E5054-8343-4683-AD58-28B9FC6A2C65</title>
    <desc>Created with Sketch.</desc>
    <g id="组件" stroke="none" stroke-width="1" fill="none" fill-rule="evenodd">
        <g id="icon/日期" fill="#C3C6D5">
            <path d="M34.7538926,32.7498107 L11.2439977,32.7498107 L11.2439977,20.012413 L34.7560023,20.012413 L34.7560023,32.7498107 L34.7538926,32.7498107 Z M11.2439977,15.0002489 L14.8497164,15.0002489 L14.8497164,15.5061028 C14.8497164,16.0471321 15.2860148,16.4847922 15.8257309,16.4847922 C16.3633373,16.4847922 16.7996357,16.0471321 16.7996357,15.5061028 L16.7996357,15.0002489 L29.2042528,15.0002489 L29.2042528,15.5061028 C29.2042528,16.0471321 29.6405512,16.4847922 30.1783231,16.4847922 C30.7177082,16.4847922 31.1541721,16.0471321 31.1541721,15.5061028 L31.1541721,15.0002489 L34.7597253,15.0002489 L34.7597253,18.064948 L11.2439977,18.064948 L11.2439977,15.0002489 Z M34.7538926,12.7501011 L31.1522278,12.7501011 L31.1522278,11.9783576 C31.1522278,11.4374527 30.7159294,11 30.1762133,11 C29.6366627,11 29.2003643,11.4374527 29.2003643,11.9783576 L29.2003643,12.7501011 L16.797526,12.7501011 L16.797526,11.9783576 C16.797526,11.4374527 16.3612275,11 15.8216769,11 C15.2822918,11 14.8476067,11.4374527 14.8476067,11.9783576 L14.8476067,12.7501011 L11.2439977,12.7501011 C10.0031513,12.7501011 9,13.7560017 9,15.0002489 L9,32.7498107 C9,33.9921498 10.0031513,35 11.2439977,35 L34.7560023,35 C35.9986275,35 37,33.9921498 37,32.7498107 L37,15.0002489 C36.9980557,13.7597349 35.994739,12.7501011 34.7538926,12.7501011 Z M28.8536256,27.2142879 L17.1425273,27.2142879 C16.6047554,27.2142879 16.168457,27.6517821 16.168457,28.1926455 C16.168457,28.7340067 16.6047554,29.1715009 17.1425273,29.1715009 L28.8573073,29.1715009 C29.3971888,29.1715009 29.8334872,28.7340067 29.8334872,28.1926455 C29.8295987,27.6517821 29.3931348,27.2142879 28.8536256,27.2142879 Z M28.8536256,21.9188954 L17.1425273,21.9188954 C16.6047554,21.9188954 16.168457,22.3563895 16.168457,22.897253 C16.168457,23.4364986 16.6047554,23.8739928 17.1425273,23.8739928 L28.8573073,23.8739928 C29.3971888,23.8739928 29.8334872,23.4364986 29.8334872,22.897253 C29.8295987,22.3563895 29.3931348,21.9188954 28.8536256,21.9188954 Z" id="riqi-(2)"></path>
        </g>
    </g>
</svg>