<?xml version="1.0" encoding="UTF-8"?>
<svg width="46px" height="46px" viewBox="0 0 46 46" version="1.1" xmlns="http://www.w3.org/2000/svg" xmlns:xlink="http://www.w3.org/1999/xlink">
    <!-- Generator: Sketch 60.1 (88133) - https://sketch.com -->
    <title>Icon/Password备份 4</title>
    <desc>Created with Sketch.</desc>
    <g id="Icon/Password备份-4" stroke="none" stroke-width="1" fill="none" fill-rule="evenodd">
        <g id="眼睛" transform="translate(1.000000, 9.000000)" fill="#8B92AC" fill-rule="nonzero">
            <path d="M28.4564365,10.0368301 C28.4564365,11.4368309 27.3483317,12.5568316 25.9553849,12.5568316 L25.955385,12.5568316 C24.5702757,12.5645689 23.4411985,11.4394805 23.4335211,10.0438793 C23.4335082,10.0415299 23.4334985,10.0391804 23.4334921,10.0368309 C23.4334921,8.65783008 24.5647539,7.53782943 25.9553858,7.53782943 C26.1290699,7.53782943 26.281912,7.60199622 26.4567549,7.62416272 L26.4567551,7.62416282 C25.1496489,6.70284197 23.5940605,6.20657175 21.9988531,6.20199441 C17.6949601,6.20199441 14.2166367,9.69149645 14.2166367,13.999999 C14.2166367,18.2863257 17.6949601,21.7758278 21.9999929,21.7758278 C26.3038859,21.7758278 29.7822093,18.2863257 29.7822093,13.999999 C29.7822093,12.340998 29.2379999,10.7904971 28.3464195,9.54099636 C28.3915774,9.71366322 28.4564194,9.86532898 28.4564194,10.0368291 L28.4564365,10.0368301 Z M43.5866317,13.246332 C39.9554663,6.65465234 31.3905315,0 22,0 C12.6083287,0 4.04222696,6.65467968 0.434210348,13.246332 L0,14 L0.434210348,14.753668 C4.04219982,21.3231719 12.6094685,28 22,28 C31.3905315,28 39.9554663,21.3231719 43.5866317,14.753668 L44,14 L43.5866317,13.246332 Z M22,24.8990146 C14.2606348,24.8990146 6.93347083,19.4063356 3.58600757,14.0000082 C6.93347083,8.57150502 14.2618017,3.10332604 22,3.10332604 C29.7381983,3.10332604 37.0641953,8.57150502 40.4128255,14.0000082 C37.0653622,19.4063356 29.7370314,24.8990146 22,24.8990146 Z" id="形状"></path>
        </g>
    </g>
</svg>