<?xml version="1.0" encoding="UTF-8"?>
<svg width="46px" height="46px" viewBox="0 0 46 46" version="1.1" xmlns="http://www.w3.org/2000/svg" xmlns:xlink="http://www.w3.org/1999/xlink">
    <!-- Generator: Sketch 60.1 (88133) - https://sketch.com -->
    <title>Icon/待冲销提醒</title>
    <desc>Created with Sketch.</desc>
    <defs>
        <path d="M26.7525992,6 C27.5029194,6 28.1745367,6.4654311 28.4379917,7.16797781 L29.124,9 L33.2,9 C35.298682,9 37,10.701318 37,12.8 L37,35.2 C37,37.298682 35.298682,39 33.2,39 L12.8,39 C10.701318,39 9,37.298682 9,35.2 L9,12.8 C9,10.701318 10.701318,9 12.8,9 L16.875,9 L17.5620083,7.16797781 C17.8254633,6.4654311 18.4970806,6 19.2474008,6 L26.7525992,6 Z M16.125,11 L13,11 C11.9456382,11 11.0818349,11.8158778 11.0054857,12.8507377 L11,13 L11,35 C11,36.0543618 11.8158778,36.9181651 12.8507377,36.9945143 L13,37 L33,37 C34.0543618,37 34.9181651,36.1841222 34.9945143,35.1492623 L35,35 L35,13 C35,11.9456382 34.1841222,11.0818349 33.1492623,11.0054857 L33,11 L29.874,11 L30.0879917,11.5679778 C30.4370479,12.4987944 29.9654379,13.5363363 29.0346214,13.8853925 C28.8325226,13.9611795 28.6184407,14 28.4025992,14 L17.5974008,14 C16.6032883,14 15.7974008,13.1941125 15.7974008,12.2 C15.7974008,11.9841585 15.8362213,11.7700765 15.9120083,11.5679778 L16.125,11 Z M20.7071974,18.4644572 C21.067677,18.8248453 21.0954747,19.3919939 20.7905421,19.7842694 L20.7072957,19.8785555 L19.5849614,20.9996236 L28.2,21 C29.1941125,21 30,21.8058875 30,22.8 L30,29.2 C30,30.1941125 29.1941125,31 28.2,31 L21,31 C20.4477153,31 20,30.5522847 20,30 C20,29.4477153 20.4477153,29 21,29 L28,29 L28,23 L19.5849614,22.9996236 L20.7071902,24.1213237 C21.0677013,24.4818077 21.0954533,25.0490591 20.7904318,25.4413767 L20.7072169,25.5356174 C20.3166631,25.9261712 19.6834503,25.9261712 19.2928965,25.5356174 L17.0301692,23.2728901 C16.3272255,22.5699464 16.3272255,21.4302494 17.0301692,20.7273057 L19.2929279,18.464547 C19.6834574,18.0740176 20.3166183,18.0739774 20.7071974,18.4644572 Z M26.5714286,8 L19.4285714,8 L18,12 L28,12 L26.5714286,8 Z" id="path-1"></path>
    </defs>
    <g id="Icon/待冲销提醒" stroke="none" stroke-width="1" fill="none" fill-rule="evenodd">
        <mask id="mask-2" fill="white">
            <use xlink:href="#path-1"></use>
        </mask>
        <use id="形状结合" fill="#D8D8D8" xlink:href="#path-1"></use>
        <g id="icon/颜色/黄" mask="url(#mask-2)" fill="#F4B263">
            <g transform="translate(0.000000, 0.000000)" id="矩形">
                <rect x="0" y="0" width="46" height="46"></rect>
            </g>
        </g>
    </g>
</svg>